<svg width="140" height="24" viewBox="0 0 140 24" fill="none" xmlns="http://www.w3.org/2000/svg">
<path d="M5.89986 18.9033C4.94531 18.9033 4.09517 18.7392 3.34943 18.4111C2.60795 18.0787 2.02202 17.6227 1.59162 17.0432C1.16548 16.4594 0.946023 15.7861 0.933239 15.0233H3.72017C3.73722 15.3429 3.84162 15.6242 4.03338 15.8671C4.2294 16.1057 4.48935 16.2911 4.81321 16.4232C5.13707 16.5553 5.50142 16.6213 5.90625 16.6213C6.32812 16.6213 6.70099 16.5467 7.02486 16.3976C7.34872 16.2485 7.60227 16.0418 7.78551 15.7776C7.96875 15.5134 8.06037 15.2087 8.06037 14.8635C8.06037 14.5141 7.96236 14.2051 7.76634 13.9367C7.57457 13.6639 7.29759 13.4509 6.93537 13.2975C6.57741 13.144 6.15128 13.0673 5.65696 13.0673H4.43608V11.0347H5.65696C6.07457 11.0347 6.44318 10.9622 6.76278 10.8173C7.08665 10.6725 7.33807 10.4722 7.51705 10.2165C7.69602 9.95655 7.78551 9.65399 7.78551 9.30882C7.78551 8.9807 7.70668 8.69305 7.54901 8.44589C7.3956 8.19447 7.17827 7.99845 6.89702 7.85783C6.62003 7.7172 6.29617 7.64689 5.92543 7.64689C5.55043 7.64689 5.20739 7.71507 4.89631 7.85143C4.58523 7.98354 4.33594 8.17317 4.14844 8.42033C3.96094 8.66749 3.8608 8.95726 3.84801 9.28964H1.19531C1.2081 8.53538 1.4233 7.87061 1.84091 7.29533C2.25852 6.72004 2.82102 6.27047 3.52841 5.9466C4.24006 5.61848 5.04332 5.45442 5.93821 5.45442C6.84162 5.45442 7.6321 5.61848 8.30966 5.9466C8.98722 6.27473 9.51349 6.71791 9.88849 7.27615C10.2678 7.83013 10.4553 8.45229 10.451 9.14263C10.4553 9.87558 10.2273 10.4871 9.76705 10.9771C9.31108 11.4672 8.71662 11.7783 7.98366 11.9104V12.0127C8.94673 12.1362 9.67969 12.4708 10.1825 13.0162C10.6896 13.5574 10.9411 14.235 10.9368 15.0489C10.9411 15.7946 10.7259 16.4573 10.2912 17.0368C9.8608 17.6163 9.26634 18.0723 8.50781 18.4047C7.74929 18.7371 6.87997 18.9033 5.89986 18.9033ZM16.0298 18.8841C15.284 18.8841 14.6086 18.6923 14.0035 18.3088C13.4026 17.921 12.9254 17.3521 12.5717 16.6021C12.2223 15.8479 12.0475 14.9232 12.0475 13.828C12.0475 12.703 12.2286 11.7676 12.5909 11.0219C12.9531 10.2719 13.4346 9.71152 14.0355 9.34078C14.6406 8.96578 15.3032 8.77828 16.0234 8.77828C16.5731 8.77828 17.0312 8.87203 17.3977 9.05953C17.7684 9.24277 18.0667 9.47288 18.2926 9.74987C18.5227 10.0226 18.6974 10.2911 18.8167 10.5553H18.8998V5.63339H21.6164V18.7243H18.9318V17.1519H18.8167C18.6889 17.4246 18.5078 17.6952 18.2734 17.9637C18.0433 18.2279 17.7428 18.4473 17.3721 18.622C17.0056 18.7967 16.5582 18.8841 16.0298 18.8841ZM16.8927 16.7172C17.3316 16.7172 17.7024 16.5979 18.0049 16.3592C18.3117 16.1163 18.5461 15.7776 18.708 15.3429C18.8742 14.9083 18.9573 14.399 18.9573 13.8152C18.9573 13.2314 18.8764 12.7243 18.7144 12.2939C18.5525 11.8635 18.3181 11.5311 18.0113 11.2967C17.7045 11.0624 17.3316 10.9452 16.8927 10.9452C16.4453 10.9452 16.0681 11.0666 15.7613 11.3095C15.4545 11.5524 15.2223 11.8891 15.0646 12.3195C14.9069 12.7499 14.8281 13.2485 14.8281 13.8152C14.8281 14.3862 14.9069 14.8912 15.0646 15.3301C15.2265 15.7648 15.4588 16.1057 15.7613 16.3529C16.0681 16.5958 16.4453 16.7172 16.8927 16.7172ZM31.4843 11.7058L28.9914 11.8592C28.9488 11.6462 28.8571 11.4544 28.7165 11.284C28.5759 11.1092 28.3905 10.9708 28.1604 10.8685C27.9346 10.7619 27.664 10.7087 27.3486 10.7087C26.9267 10.7087 26.5709 10.7982 26.2812 10.9771C25.9914 11.1519 25.8465 11.3862 25.8465 11.6803C25.8465 11.9146 25.9402 12.1128 26.1277 12.2747C26.3152 12.4367 26.637 12.5666 27.0929 12.6646L28.8699 13.0226C29.8245 13.2186 30.5361 13.534 31.0049 13.9686C31.4736 14.4033 31.708 14.9743 31.708 15.6817C31.708 16.3252 31.5184 16.8898 31.1391 17.3756C30.7641 17.8614 30.2485 18.2406 29.5922 18.5134C28.9402 18.7818 28.1881 18.9161 27.3358 18.9161C26.0361 18.9161 25.0006 18.6455 24.2293 18.1043C23.4623 17.5588 23.0127 16.8173 22.8806 15.8798L25.5588 15.7392C25.6398 16.1355 25.8358 16.4381 26.1469 16.6469C26.458 16.8514 26.8564 16.9537 27.3422 16.9537C27.8195 16.9537 28.203 16.8621 28.4928 16.6788C28.7868 16.4913 28.936 16.2506 28.9402 15.9565C28.936 15.7094 28.8316 15.507 28.627 15.3493C28.4225 15.1874 28.1071 15.0638 27.681 14.9786L25.9807 14.6398C25.0219 14.448 24.3081 14.1156 23.8394 13.6426C23.3749 13.1696 23.1427 12.5666 23.1427 11.8337C23.1427 11.203 23.3131 10.6597 23.654 10.2037C23.9992 9.74774 24.4829 9.39618 25.105 9.14902C25.7314 8.90186 26.4644 8.77828 27.3039 8.77828C28.5439 8.77828 29.5198 9.04036 30.2314 9.5645C30.9473 10.0887 31.365 10.8024 31.4843 11.7058ZM36.5598 5.63339H39.9732L43.5783 14.4288H43.7317L47.3368 5.63339H50.7502V18.7243H48.0655V10.2037H47.9568L44.569 18.6604H42.7409L39.3531 10.1717H39.2445V18.7243H36.5598V5.63339ZM55.2391 18.9097C54.6127 18.9097 54.0544 18.801 53.5644 18.5837C53.0743 18.3621 52.6865 18.0361 52.401 17.6057C52.1198 17.171 51.9792 16.6298 51.9792 15.9821C51.9792 15.4367 52.0793 14.9786 52.2796 14.6078C52.4799 14.2371 52.7526 13.9388 53.0978 13.7129C53.4429 13.4871 53.835 13.3166 54.2739 13.2016C54.7171 13.0865 55.1816 13.0056 55.6674 12.9587C56.2384 12.899 56.6986 12.8436 57.048 12.7925C57.3975 12.7371 57.651 12.6561 57.8087 12.5496C57.9664 12.4431 58.0452 12.2854 58.0452 12.0766V12.0382C58.0452 11.6334 57.9174 11.3202 57.6617 11.0986C57.4103 10.877 57.0523 10.7662 56.5878 10.7662C56.0978 10.7662 55.7078 10.8749 55.4181 11.0922C55.1283 11.3053 54.9365 11.5737 54.8428 11.8976L52.3243 11.6931C52.4522 11.0965 52.7036 10.5808 53.0786 10.1462C53.4536 9.70726 53.9373 9.37061 54.5296 9.13624C55.1262 8.8976 55.8165 8.77828 56.6006 8.77828C57.1461 8.77828 57.6681 8.8422 58.1667 8.97004C58.6695 9.09788 59.1148 9.29604 59.5026 9.5645C59.8946 9.83297 60.2036 10.1781 60.4294 10.6C60.6553 11.0176 60.7682 11.5183 60.7682 12.1021V18.7243H58.1858V17.3628H58.1091C57.9515 17.6696 57.7405 17.9402 57.4763 18.1746C57.2121 18.4047 56.8946 18.5858 56.5239 18.7179C56.1532 18.8458 55.7249 18.9097 55.2391 18.9097ZM56.0189 17.0304C56.4195 17.0304 56.7732 16.9516 57.08 16.7939C57.3868 16.632 57.6276 16.4146 57.8023 16.1419C57.977 15.8692 58.0644 15.5602 58.0644 15.2151V14.1732C57.9792 14.2286 57.862 14.2797 57.7128 14.3266C57.5679 14.3692 57.4039 14.4097 57.2206 14.448C57.0374 14.4821 56.8542 14.5141 56.6709 14.5439C56.4877 14.5695 56.3215 14.5929 56.1723 14.6142C55.8527 14.6611 55.5736 14.7357 55.335 14.8379C55.0963 14.9402 54.911 15.0787 54.7789 15.2534C54.6468 15.4239 54.5807 15.6369 54.5807 15.8926C54.5807 16.2634 54.7149 16.5467 54.9834 16.7428C55.2561 16.9345 55.6013 17.0304 56.0189 17.0304ZM64.6164 8.90612L66.4189 12.3387L68.2662 8.90612H71.0595L68.2151 13.8152L71.1362 18.7243H68.3557L66.4189 15.3301L64.5141 18.7243H61.7016L64.6164 13.8152L61.8039 8.90612H64.6164Z" fill="white"/>
<rect x="81" width="58.2246" height="23.4486" rx="5.65027" fill="#37373B"/>
<path d="M95.709 15.8102C94.9848 15.8102 94.3571 15.6509 93.8261 15.3323C93.295 15.0136 92.883 14.5678 92.5901 13.9949C92.3004 13.422 92.1555 12.7525 92.1555 11.9864C92.1555 11.2204 92.3004 10.5493 92.5901 9.9731C92.883 9.39695 93.295 8.94955 93.8261 8.6309C94.3571 8.31224 94.9848 8.15292 95.709 8.15292C96.4332 8.15292 97.0609 8.31224 97.592 8.6309C98.123 8.94955 98.5334 9.39695 98.8231 9.9731C99.116 10.5493 99.2625 11.2204 99.2625 11.9864C99.2625 12.7525 99.116 13.422 98.8231 13.9949C98.5334 14.5678 98.123 15.0136 97.592 15.3323C97.0609 15.6509 96.4332 15.8102 95.709 15.8102ZM95.7187 14.4101C96.1113 14.4101 96.4397 14.3023 96.7036 14.0866C96.9675 13.8678 97.1639 13.5748 97.2926 13.2079C97.4246 12.841 97.4906 12.4322 97.4906 11.9816C97.4906 11.5277 97.4246 11.1174 97.2926 10.7504C97.1639 10.3803 96.9675 10.0858 96.7036 9.86688C96.4397 9.64801 96.1113 9.53857 95.7187 9.53857C95.3163 9.53857 94.9816 9.64801 94.7144 9.86688C94.4505 10.0858 94.2525 10.3803 94.1206 10.7504C93.9918 11.1174 93.9274 11.5277 93.9274 11.9816C93.9274 12.4322 93.9918 12.841 94.1206 13.2079C94.2525 13.5748 94.4505 13.8678 94.7144 14.0866C94.9816 14.3023 95.3163 14.4101 95.7187 14.4101ZM101.814 11.3201V15.6654H100.066V8.24948H101.737V9.50961H101.824C101.994 9.09439 102.266 8.76447 102.639 8.51985C103.016 8.27523 103.481 8.15292 104.035 8.15292C104.547 8.15292 104.992 8.26235 105.372 8.48122C105.755 8.7001 106.051 9.01714 106.261 9.43236C106.473 9.84757 106.578 10.3513 106.574 10.9435V15.6654H104.827V11.2139C104.827 10.7182 104.698 10.3304 104.44 10.0504C104.186 9.77032 103.834 9.63031 103.383 9.63031C103.077 9.63031 102.805 9.6979 102.567 9.83309C102.332 9.96505 102.147 10.1566 102.012 10.4076C101.88 10.6587 101.814 10.9629 101.814 11.3201ZM109.419 5.7775V15.6654H107.671V5.7775H109.419ZM110.537 15.6654V8.24948H112.284V15.6654H110.537ZM111.415 7.19696C111.138 7.19696 110.9 7.10522 110.701 6.92176C110.501 6.73507 110.401 6.51137 110.401 6.25065C110.401 5.98672 110.501 5.76302 110.701 5.57955C110.9 5.39286 111.138 5.29952 111.415 5.29952C111.695 5.29952 111.933 5.39286 112.13 5.57955C112.329 5.76302 112.429 5.98672 112.429 6.25065C112.429 6.51137 112.329 6.73507 112.13 6.92176C111.933 7.10522 111.695 7.19696 111.415 7.19696ZM115.15 11.3201V15.6654H113.402V8.24948H115.072V9.50961H115.159C115.33 9.09439 115.602 8.76447 115.975 8.51985C116.352 8.27523 116.817 8.15292 117.37 8.15292C117.882 8.15292 118.328 8.26235 118.708 8.48122C119.091 8.7001 119.387 9.01714 119.596 9.43236C119.809 9.84757 119.913 10.3513 119.91 10.9435V15.6654H118.162V11.2139C118.162 10.7182 118.033 10.3304 117.776 10.0504C117.522 9.77032 117.169 9.63031 116.719 9.63031C116.413 9.63031 116.141 9.6979 115.903 9.83309C115.668 9.96505 115.483 10.1566 115.347 10.4076C115.215 10.6587 115.15 10.9629 115.15 11.3201ZM124.29 15.8102C123.546 15.8102 122.904 15.6557 122.364 15.3468C121.826 15.0345 121.412 14.5936 121.123 14.0239C120.833 13.4509 120.688 12.7766 120.688 12.0009C120.688 11.2381 120.833 10.5686 121.123 9.99241C121.416 9.41304 121.824 8.96242 122.349 8.64055C122.874 8.31546 123.49 8.15292 124.198 8.15292C124.655 8.15292 125.087 8.22695 125.492 8.37501C125.901 8.51985 126.261 8.74516 126.574 9.05094C126.889 9.35672 127.137 9.74618 127.317 10.2193C127.497 10.6893 127.588 11.2493 127.588 11.8995V12.4354H121.509V11.2574H125.912C125.909 10.9226 125.837 10.6249 125.695 10.3642C125.553 10.1002 125.355 9.89263 125.101 9.74135C124.85 9.59007 124.557 9.51443 124.222 9.51443C123.865 9.51443 123.551 9.60134 123.281 9.77515C123.011 9.94574 122.8 10.1711 122.648 10.4511C122.5 10.7279 122.425 11.0321 122.422 11.3636V12.392C122.422 12.8233 122.5 13.1934 122.658 13.5024C122.816 13.8082 123.036 14.0432 123.32 14.2073C123.603 14.3683 123.934 14.4487 124.314 14.4487C124.568 14.4487 124.799 14.4133 125.005 14.3425C125.211 14.2685 125.389 14.1607 125.54 14.019C125.692 13.8774 125.806 13.702 125.883 13.4928L127.515 13.6762C127.412 14.1075 127.216 14.4841 126.926 14.806C126.64 15.1247 126.273 15.3725 125.825 15.5495C125.378 15.7233 124.866 15.8102 124.29 15.8102Z" fill="white"/>
</svg>
