<svg width="233" height="24" viewBox="0 0 233 24" fill="none" xmlns="http://www.w3.org/2000/svg">
<path d="M3.39418 18.7243H0.428267L4.94744 5.63339H8.5142L13.027 18.7243H10.0611L6.78196 8.62487H6.67969L3.39418 18.7243ZM3.20881 13.5787H10.2145V15.7392H3.20881V13.5787ZM17.1724 18.8841C16.4266 18.8841 15.7512 18.6923 15.1461 18.3088C14.5452 17.921 14.068 17.3521 13.7143 16.6021C13.3648 15.8479 13.1901 14.9232 13.1901 13.828C13.1901 12.703 13.3712 11.7676 13.7334 11.0219C14.0957 10.2719 14.5772 9.71152 15.178 9.34078C15.7832 8.96578 16.4458 8.77828 17.166 8.77828C17.7157 8.77828 18.1738 8.87203 18.5403 9.05953C18.911 9.24277 19.2093 9.47288 19.4351 9.74987C19.6653 10.0226 19.84 10.2911 19.9593 10.5553H20.0424V5.63339H22.759V18.7243H20.0743V17.1519H19.9593C19.8314 17.4246 19.6503 17.6952 19.416 17.9637C19.1859 18.2279 18.8854 18.4473 18.5147 18.622C18.1482 18.7967 17.7008 18.8841 17.1724 18.8841ZM18.0353 16.7172C18.4742 16.7172 18.8449 16.5979 19.1475 16.3592C19.4543 16.1163 19.6887 15.7776 19.8506 15.3429C20.0168 14.9083 20.0999 14.399 20.0999 13.8152C20.0999 13.2314 20.0189 12.7243 19.857 12.2939C19.6951 11.8635 19.4607 11.5311 19.1539 11.2967C18.8471 11.0624 18.4742 10.9452 18.0353 10.9452C17.5878 10.9452 17.2107 11.0666 16.9039 11.3095C16.5971 11.5524 16.3648 11.8891 16.2072 12.3195C16.0495 12.7499 15.9707 13.2485 15.9707 13.8152C15.9707 14.3862 16.0495 14.8912 16.2072 15.3301C16.3691 15.7648 16.6013 16.1057 16.9039 16.3529C17.2107 16.5958 17.5878 16.7172 18.0353 16.7172ZM28.8939 18.9161C27.901 18.9161 27.0423 18.7051 26.3179 18.2833C25.5977 17.8571 25.0416 17.2648 24.6496 16.5063C24.2575 15.7435 24.0615 14.8592 24.0615 13.8536C24.0615 12.8394 24.2575 11.953 24.6496 11.1945C25.0416 10.4317 25.5977 9.83936 26.3179 9.41749C27.0423 8.99135 27.901 8.77828 28.8939 8.77828C29.8868 8.77828 30.7433 8.99135 31.4635 9.41749C32.1879 9.83936 32.7462 10.4317 33.1382 11.1945C33.5303 11.953 33.7263 12.8394 33.7263 13.8536C33.7263 14.8592 33.5303 15.7435 33.1382 16.5063C32.7462 17.2648 32.1879 17.8571 31.4635 18.2833C30.7433 18.7051 29.8868 18.9161 28.8939 18.9161ZM28.9067 16.8067C29.3584 16.8067 29.7355 16.6788 30.0381 16.4232C30.3406 16.1632 30.5686 15.8095 30.722 15.3621C30.8797 14.9146 30.9585 14.4054 30.9585 13.8344C30.9585 13.2634 30.8797 12.7541 30.722 12.3067C30.5686 11.8592 30.3406 11.5056 30.0381 11.2456C29.7355 10.9857 29.3584 10.8557 28.9067 10.8557C28.4507 10.8557 28.0672 10.9857 27.7561 11.2456C27.4493 11.5056 27.2171 11.8592 27.0594 12.3067C26.906 12.7541 26.8293 13.2634 26.8293 13.8344C26.8293 14.4054 26.906 14.9146 27.0594 15.3621C27.2171 15.8095 27.4493 16.1632 27.7561 16.4232C28.0672 16.6788 28.4507 16.8067 28.9067 16.8067ZM35.008 18.7243V5.63339H37.731V10.5553H37.8141C37.9334 10.2911 38.106 10.0226 38.3319 9.74987C38.562 9.47288 38.8603 9.24277 39.2268 9.05953C39.5975 8.87203 40.0577 8.77828 40.6075 8.77828C41.3234 8.77828 41.9839 8.96578 42.589 9.34078C43.1941 9.71152 43.6778 10.2719 44.04 11.0219C44.4022 11.7676 44.5833 12.703 44.5833 13.828C44.5833 14.9232 44.4065 15.8479 44.0528 16.6021C43.7033 17.3521 43.2261 17.921 42.6209 18.3088C42.0201 18.6923 41.3468 18.8841 40.6011 18.8841C40.0727 18.8841 39.6231 18.7967 39.2523 18.622C38.8859 18.4473 38.5854 18.2279 38.3511 17.9637C38.1167 17.6952 37.9377 17.4246 37.8141 17.1519H37.6927V18.7243H35.008ZM37.6735 13.8152C37.6735 14.399 37.7545 14.9083 37.9164 15.3429C38.0783 15.7776 38.3127 16.1163 38.6195 16.3592C38.9263 16.5979 39.2992 16.7172 39.7381 16.7172C40.1813 16.7172 40.5563 16.5958 40.8631 16.3529C41.17 16.1057 41.4022 15.7648 41.5599 15.3301C41.7218 14.8912 41.8028 14.3862 41.8028 13.8152C41.8028 13.2485 41.7239 12.7499 41.5663 12.3195C41.4086 11.8891 41.1763 11.5524 40.8695 11.3095C40.5627 11.0666 40.1856 10.9452 39.7381 10.9452C39.295 10.9452 38.92 11.0624 38.6131 11.2967C38.3106 11.5311 38.0783 11.8635 37.9164 12.2939C37.7545 12.7243 37.6735 13.2314 37.6735 13.8152ZM50.3347 18.9161C49.3247 18.9161 48.4554 18.7115 47.7267 18.3024C47.0023 17.8891 46.444 17.3053 46.052 16.551C45.66 15.7925 45.4639 14.8955 45.4639 13.86C45.4639 12.85 45.66 11.9637 46.052 11.2009C46.444 10.4381 46.9959 9.84362 47.7075 9.41749C48.4235 8.99135 49.2629 8.77828 50.226 8.77828C50.8737 8.77828 51.4767 8.88268 52.035 9.09149C52.5975 9.29604 53.0875 9.60499 53.5051 10.0183C53.927 10.4317 54.2551 10.9516 54.4895 11.578C54.7239 12.2002 54.8411 12.9288 54.8411 13.7641V14.5119H46.5506V12.8244H52.2779C52.2779 12.4324 52.1926 12.0851 52.0222 11.7825C51.8517 11.48 51.6152 11.2435 51.3127 11.073C51.0144 10.8983 50.6671 10.811 50.2708 10.811C49.8574 10.811 49.4909 10.9068 49.1713 11.0986C48.856 11.2861 48.6088 11.5396 48.4298 11.8592C48.2509 12.1746 48.1592 12.5262 48.155 12.9139V14.5183C48.155 15.0041 48.2445 15.4239 48.4235 15.7776C48.6067 16.1313 48.8645 16.404 49.1969 16.5958C49.5293 16.7875 49.9235 16.8834 50.3794 16.8834C50.682 16.8834 50.959 16.8408 51.2104 16.7556C51.4618 16.6703 51.677 16.5425 51.856 16.372C52.035 16.2016 52.1713 15.9928 52.2651 15.7456L54.7835 15.9118C54.6557 16.5169 54.3936 17.0453 53.9973 17.497C53.6053 17.9445 53.0982 18.2939 52.476 18.5453C51.8581 18.7925 51.1443 18.9161 50.3347 18.9161ZM62.0116 18.7243H59.0457L63.5649 5.63339H67.1316L71.6444 18.7243H68.6785L65.3994 8.62487H65.2971L62.0116 18.7243ZM61.8262 13.5787H68.8319V15.7392H61.8262V13.5787ZM77.733 8.90612V10.9516H71.6733V8.90612H77.733ZM73.0604 18.7243V8.1966C73.0604 7.48496 73.1989 6.89476 73.4759 6.42601C73.7571 5.95726 74.1406 5.6057 74.6264 5.37132C75.1122 5.13695 75.6641 5.01976 76.282 5.01976C76.6996 5.01976 77.081 5.05172 77.4261 5.11564C77.7756 5.17956 78.0355 5.23709 78.206 5.28822L77.7202 7.33368C77.6136 7.29959 77.4815 7.26763 77.3239 7.2378C77.1705 7.20797 77.0128 7.19305 76.8509 7.19305C76.4503 7.19305 76.1712 7.2868 76.0135 7.4743C75.8558 7.65754 75.777 7.91536 75.777 8.24774V18.7243H73.0604ZM84.0788 8.90612V10.9516H78.1662V8.90612H84.0788ZM79.5085 6.55385H82.2315V15.7073C82.2315 15.9587 82.2698 16.1547 82.3465 16.2953C82.4233 16.4317 82.5298 16.5276 82.6662 16.583C82.8068 16.6384 82.9687 16.6661 83.1519 16.6661C83.2798 16.6661 83.4076 16.6554 83.5355 16.6341C83.6633 16.6085 83.7613 16.5894 83.8295 16.5766L84.2578 18.6029C84.1214 18.6455 83.9296 18.6945 83.6825 18.7499C83.4353 18.8095 83.1349 18.8458 82.7812 18.8585C82.125 18.8841 81.5497 18.7967 81.0554 18.5965C80.5653 18.3962 80.1839 18.0851 79.9112 17.6632C79.6385 17.2413 79.5042 16.7087 79.5085 16.0652V6.55385ZM89.6815 18.9161C88.6716 18.9161 87.8023 18.7115 87.0736 18.3024C86.3492 17.8891 85.7909 17.3053 85.3989 16.551C85.0068 15.7925 84.8108 14.8955 84.8108 13.86C84.8108 12.85 85.0068 11.9637 85.3989 11.2009C85.7909 10.4381 86.3428 9.84362 87.0544 9.41749C87.7703 8.99135 88.6098 8.77828 89.5729 8.77828C90.2206 8.77828 90.8236 8.88268 91.3818 9.09149C91.9443 9.29604 92.4344 9.60499 92.852 10.0183C93.2739 10.4317 93.602 10.9516 93.8364 11.578C94.0708 12.2002 94.1879 12.9288 94.1879 13.7641V14.5119H85.8975V12.8244H91.6247C91.6247 12.4324 91.5395 12.0851 91.369 11.7825C91.1986 11.48 90.9621 11.2435 90.6595 11.073C90.3612 10.8983 90.0139 10.811 89.6176 10.811C89.2043 10.811 88.8378 10.9068 88.5182 11.0986C88.2029 11.2861 87.9557 11.5396 87.7767 11.8592C87.5977 12.1746 87.5061 12.5262 87.5019 12.9139V14.5183C87.5019 15.0041 87.5913 15.4239 87.7703 15.7776C87.9536 16.1313 88.2114 16.404 88.5438 16.5958C88.8761 16.7875 89.2703 16.8834 89.7263 16.8834C90.0288 16.8834 90.3058 16.8408 90.5573 16.7556C90.8087 16.6703 91.0239 16.5425 91.2029 16.372C91.3818 16.2016 91.5182 15.9928 91.6119 15.7456L94.1304 15.9118C94.0026 16.5169 93.7405 17.0453 93.3442 17.497C92.9521 17.9445 92.445 18.2939 91.8229 18.5453C91.205 18.7925 90.4912 18.9161 89.6815 18.9161ZM95.4249 18.7243V8.90612H98.0648V10.6192H98.1671C98.3461 10.0098 98.6465 9.54959 99.0684 9.23851C99.4903 8.92317 99.9761 8.7655 100.526 8.7655C100.662 8.7655 100.809 8.77402 100.967 8.79106C101.125 8.80811 101.263 8.83155 101.382 8.86138V11.2776C101.254 11.2392 101.078 11.2051 100.852 11.1753C100.626 11.1455 100.419 11.1306 100.232 11.1306C99.8312 11.1306 99.4732 11.2179 99.1579 11.3926C98.8468 11.5631 98.5996 11.8017 98.4164 12.1085C98.2374 12.4154 98.1479 12.769 98.1479 13.1696V18.7243H95.4249ZM105.927 18.7243V5.63339H114.748V7.91535H108.695V11.0347H114.294V13.3166H108.695V16.4423H114.774V18.7243H105.927ZM121.637 8.90612V10.9516H115.578V8.90612H121.637ZM116.965 18.7243V8.1966C116.965 7.48496 117.103 6.89476 117.38 6.42601C117.662 5.95726 118.045 5.6057 118.531 5.37132C119.017 5.13695 119.569 5.01976 120.187 5.01976C120.604 5.01976 120.986 5.05172 121.331 5.11564C121.68 5.17956 121.94 5.23709 122.111 5.28822L121.625 7.33368C121.518 7.29959 121.386 7.26763 121.228 7.2378C121.075 7.20797 120.917 7.19305 120.755 7.19305C120.355 7.19305 120.076 7.2868 119.918 7.4743C119.76 7.65754 119.682 7.91536 119.682 8.24774V18.7243H116.965ZM128.041 8.90612V10.9516H121.981V8.90612H128.041ZM123.368 18.7243V8.1966C123.368 7.48496 123.507 6.89476 123.784 6.42601C124.065 5.95726 124.449 5.6057 124.934 5.37132C125.42 5.13695 125.972 5.01976 126.59 5.01976C127.007 5.01976 127.389 5.05172 127.734 5.11564C128.083 5.17956 128.343 5.23709 128.514 5.28822L128.028 7.33368C127.922 7.29959 127.789 7.26763 127.632 7.2378C127.478 7.20797 127.321 7.19305 127.159 7.19305C126.758 7.19305 126.479 7.2868 126.321 7.4743C126.164 7.65754 126.085 7.91536 126.085 8.24774V18.7243H123.368ZM133.287 18.9161C132.277 18.9161 131.408 18.7115 130.679 18.3024C129.955 17.8891 129.397 17.3053 129.005 16.551C128.613 15.7925 128.417 14.8955 128.417 13.86C128.417 12.85 128.613 11.9637 129.005 11.2009C129.397 10.4381 129.948 9.84362 130.66 9.41749C131.376 8.99135 132.216 8.77828 133.179 8.77828C133.826 8.77828 134.429 8.88268 134.988 9.09149C135.55 9.29604 136.04 9.60499 136.458 10.0183C136.88 10.4317 137.208 10.9516 137.442 11.578C137.676 12.2002 137.794 12.9288 137.794 13.7641V14.5119H129.503V12.8244H135.23C135.23 12.4324 135.145 12.0851 134.975 11.7825C134.804 11.48 134.568 11.2435 134.265 11.073C133.967 10.8983 133.62 10.811 133.223 10.811C132.81 10.811 132.444 10.9068 132.124 11.0986C131.809 11.2861 131.561 11.5396 131.382 11.8592C131.203 12.1746 131.112 12.5262 131.108 12.9139V14.5183C131.108 15.0041 131.197 15.4239 131.376 15.7776C131.559 16.1313 131.817 16.404 132.149 16.5958C132.482 16.7875 132.876 16.8834 133.332 16.8834C133.635 16.8834 133.912 16.8408 134.163 16.7556C134.414 16.6703 134.63 16.5425 134.809 16.372C134.988 16.2016 135.124 15.9928 135.218 15.7456L137.736 15.9118C137.608 16.5169 137.346 17.0453 136.95 17.497C136.558 17.9445 136.051 18.2939 135.429 18.5453C134.811 18.7925 134.097 18.9161 133.287 18.9161ZM143.467 18.9161C142.461 18.9161 141.596 18.703 140.872 18.2769C140.151 17.8465 139.597 17.2499 139.21 16.4871C138.826 15.7243 138.634 14.8465 138.634 13.8536C138.634 12.8479 138.828 11.9658 139.216 11.2073C139.608 10.4445 140.164 9.85001 140.884 9.42388C141.604 8.99348 142.461 8.77828 143.454 8.77828C144.31 8.77828 145.06 8.93382 145.704 9.2449C146.347 9.55598 146.857 9.99277 147.232 10.5553C147.607 11.1178 147.813 11.7783 147.852 12.5368H145.282C145.21 12.0467 145.018 11.6526 144.707 11.3543C144.4 11.0517 143.997 10.9004 143.499 10.9004C143.077 10.9004 142.708 11.0155 142.393 11.2456C142.082 11.4715 141.839 11.8017 141.664 12.2364C141.489 12.671 141.402 13.1973 141.402 13.8152C141.402 14.4416 141.487 14.9743 141.658 15.4132C141.832 15.8521 142.078 16.1867 142.393 16.4168C142.708 16.6469 143.077 16.7619 143.499 16.7619C143.81 16.7619 144.089 16.698 144.336 16.5702C144.587 16.4423 144.794 16.257 144.956 16.0141C145.122 15.7669 145.231 15.4708 145.282 15.1256H147.852C147.809 15.8756 147.604 16.5361 147.238 17.1071C146.876 17.6739 146.375 18.1171 145.736 18.4367C145.097 18.7563 144.34 18.9161 143.467 18.9161ZM154.277 8.90612V10.9516H148.365V8.90612H154.277ZM149.707 6.55385H152.43V15.7073C152.43 15.9587 152.468 16.1547 152.545 16.2953C152.622 16.4317 152.728 16.5276 152.865 16.583C153.005 16.6384 153.167 16.6661 153.351 16.6661C153.478 16.6661 153.606 16.6554 153.734 16.6341C153.862 16.6085 153.96 16.5894 154.028 16.5766L154.456 18.6029C154.32 18.6455 154.128 18.6945 153.881 18.7499C153.634 18.8095 153.333 18.8458 152.98 18.8585C152.324 18.8841 151.748 18.7967 151.254 18.5965C150.764 18.3962 150.382 18.0851 150.11 17.6632C149.837 17.2413 149.703 16.7087 149.707 16.0652V6.55385ZM163.557 11.7058L161.064 11.8592C161.022 11.6462 160.93 11.4544 160.789 11.284C160.649 11.1092 160.463 10.9708 160.233 10.8685C160.007 10.7619 159.737 10.7087 159.422 10.7087C159 10.7087 158.644 10.7982 158.354 10.9771C158.064 11.1519 157.919 11.3862 157.919 11.6803C157.919 11.9146 158.013 12.1128 158.201 12.2747C158.388 12.4367 158.71 12.5666 159.166 12.6646L160.943 13.0226C161.897 13.2186 162.609 13.534 163.078 13.9686C163.547 14.4033 163.781 14.9743 163.781 15.6817C163.781 16.3252 163.591 16.8898 163.212 17.3756C162.837 17.8614 162.321 18.2406 161.665 18.5134C161.013 18.7818 160.261 18.9161 159.409 18.9161C158.109 18.9161 157.074 18.6455 156.302 18.1043C155.535 17.5588 155.086 16.8173 154.953 15.8798L157.632 15.7392C157.713 16.1355 157.909 16.4381 158.22 16.6469C158.531 16.8514 158.929 16.9537 159.415 16.9537C159.892 16.9537 160.276 16.8621 160.566 16.6788C160.86 16.4913 161.009 16.2506 161.013 15.9565C161.009 15.7094 160.904 15.507 160.7 15.3493C160.495 15.1874 160.18 15.0638 159.754 14.9786L158.054 14.6398C157.095 14.448 156.381 14.1156 155.912 13.6426C155.448 13.1696 155.216 12.5666 155.216 11.8337C155.216 11.203 155.386 10.6597 155.727 10.2037C156.072 9.74774 156.556 9.39618 157.178 9.14902C157.804 8.90186 158.537 8.77828 159.377 8.77828C160.617 8.77828 161.593 9.04036 162.304 9.5645C163.02 10.0887 163.438 10.8024 163.557 11.7058Z" fill="white"/>
<rect x="174" width="58.2246" height="23.4486" rx="5.65027" fill="#37373B"/>
<path d="M188.709 15.8102C187.985 15.8102 187.357 15.6509 186.826 15.3323C186.295 15.0136 185.883 14.5678 185.59 13.9949C185.3 13.422 185.156 12.7525 185.156 11.9864C185.156 11.2204 185.3 10.5493 185.59 9.9731C185.883 9.39695 186.295 8.94955 186.826 8.6309C187.357 8.31224 187.985 8.15292 188.709 8.15292C189.433 8.15292 190.061 8.31224 190.592 8.6309C191.123 8.94955 191.533 9.39695 191.823 9.9731C192.116 10.5493 192.262 11.2204 192.262 11.9864C192.262 12.7525 192.116 13.422 191.823 13.9949C191.533 14.5678 191.123 15.0136 190.592 15.3323C190.061 15.6509 189.433 15.8102 188.709 15.8102ZM188.719 14.4101C189.111 14.4101 189.44 14.3023 189.704 14.0866C189.968 13.8678 190.164 13.5748 190.293 13.2079C190.425 12.841 190.491 12.4322 190.491 11.9816C190.491 11.5277 190.425 11.1174 190.293 10.7504C190.164 10.3803 189.968 10.0858 189.704 9.86688C189.44 9.64801 189.111 9.53857 188.719 9.53857C188.316 9.53857 187.982 9.64801 187.714 9.86688C187.45 10.0858 187.253 10.3803 187.121 10.7504C186.992 11.1174 186.927 11.5277 186.927 11.9816C186.927 12.4322 186.992 12.841 187.121 13.2079C187.253 13.5748 187.45 13.8678 187.714 14.0866C187.982 14.3023 188.316 14.4101 188.719 14.4101ZM194.814 11.3201V15.6654H193.066V8.24948H194.737V9.50961H194.824C194.994 9.09439 195.266 8.76447 195.639 8.51985C196.016 8.27523 196.481 8.15292 197.035 8.15292C197.547 8.15292 197.992 8.26235 198.372 8.48122C198.755 8.7001 199.051 9.01714 199.261 9.43236C199.473 9.84757 199.578 10.3513 199.574 10.9435V15.6654H197.827V11.2139C197.827 10.7182 197.698 10.3304 197.44 10.0504C197.186 9.77032 196.834 9.63031 196.383 9.63031C196.077 9.63031 195.805 9.6979 195.567 9.83309C195.332 9.96505 195.147 10.1566 195.012 10.4076C194.88 10.6587 194.814 10.9629 194.814 11.3201ZM202.419 5.7775V15.6654H200.671V5.7775H202.419ZM203.537 15.6654V8.24948H205.284V15.6654H203.537ZM204.415 7.19696C204.138 7.19696 203.9 7.10522 203.701 6.92176C203.501 6.73507 203.401 6.51137 203.401 6.25065C203.401 5.98672 203.501 5.76302 203.701 5.57955C203.9 5.39286 204.138 5.29952 204.415 5.29952C204.695 5.29952 204.933 5.39286 205.13 5.57955C205.329 5.76302 205.429 5.98672 205.429 6.25065C205.429 6.51137 205.329 6.73507 205.13 6.92176C204.933 7.10522 204.695 7.19696 204.415 7.19696ZM208.15 11.3201V15.6654H206.402V8.24948H208.072V9.50961H208.159C208.33 9.09439 208.602 8.76447 208.975 8.51985C209.352 8.27523 209.817 8.15292 210.37 8.15292C210.882 8.15292 211.328 8.26235 211.708 8.48122C212.091 8.7001 212.387 9.01714 212.596 9.43236C212.809 9.84757 212.913 10.3513 212.91 10.9435V15.6654H211.162V11.2139C211.162 10.7182 211.033 10.3304 210.776 10.0504C210.522 9.77032 210.169 9.63031 209.719 9.63031C209.413 9.63031 209.141 9.6979 208.903 9.83309C208.668 9.96505 208.483 10.1566 208.347 10.4076C208.215 10.6587 208.15 10.9629 208.15 11.3201ZM217.29 15.8102C216.546 15.8102 215.904 15.6557 215.364 15.3468C214.826 15.0345 214.412 14.5936 214.123 14.0239C213.833 13.4509 213.688 12.7766 213.688 12.0009C213.688 11.2381 213.833 10.5686 214.123 9.99241C214.416 9.41304 214.824 8.96242 215.349 8.64055C215.874 8.31546 216.49 8.15292 217.198 8.15292C217.655 8.15292 218.087 8.22695 218.492 8.37501C218.901 8.51985 219.261 8.74516 219.574 9.05094C219.889 9.35672 220.137 9.74618 220.317 10.2193C220.497 10.6893 220.588 11.2493 220.588 11.8995V12.4354H214.509V11.2574H218.912C218.909 10.9226 218.837 10.6249 218.695 10.3642C218.553 10.1002 218.355 9.89263 218.101 9.74135C217.85 9.59007 217.557 9.51443 217.222 9.51443C216.865 9.51443 216.551 9.60134 216.281 9.77515C216.011 9.94574 215.8 10.1711 215.648 10.4511C215.5 10.7279 215.425 11.0321 215.422 11.3636V12.392C215.422 12.8233 215.5 13.1934 215.658 13.5024C215.816 13.8082 216.036 14.0432 216.32 14.2073C216.603 14.3683 216.934 14.4487 217.314 14.4487C217.568 14.4487 217.799 14.4133 218.005 14.3425C218.211 14.2685 218.389 14.1607 218.54 14.019C218.692 13.8774 218.806 13.702 218.883 13.4928L220.515 13.6762C220.412 14.1075 220.216 14.4841 219.926 14.806C219.64 15.1247 219.273 15.3725 218.825 15.5495C218.378 15.7233 217.866 15.8102 217.29 15.8102Z" fill="white"/>
</svg>
