<svg width="55" height="55" viewBox="0 0 55 55" fill="none" xmlns="http://www.w3.org/2000/svg">
<path d="M0 19.9048C0 12.9374 0 9.45378 1.35593 6.79262C2.54864 4.45179 4.45179 2.54864 6.79262 1.35593C9.45378 0 12.9374 0 19.9048 0H35.0952C42.0626 0 45.5462 0 48.2074 1.35593C50.5482 2.54864 52.4514 4.45179 53.6441 6.79262C55 9.45378 55 12.9374 55 19.9048V35.0952C55 42.0626 55 45.5462 53.6441 48.2074C52.4514 50.5482 50.5482 52.4514 48.2074 53.6441C45.5462 55 42.0626 55 35.0952 55H19.9048C12.9374 55 9.45378 55 6.79262 53.6441C4.45179 52.4514 2.54864 50.5482 1.35593 48.2074C0 45.5462 0 42.0626 0 35.0952V19.9048Z" fill="#330000"/>
<path d="M26.6519 34.5641H18.129L16.3949 40.089C16.3468 40.2943 16.1578 40.4397 15.9522 40.4296H11.6354C11.3892 40.4296 11.3031 40.2908 11.3771 40.0133L18.7562 18.2164C18.8301 17.9894 18.9039 17.7308 18.9777 17.4406C19.0742 16.9357 19.1236 16.4226 19.1252 15.9081C19.1041 15.7561 19.2377 15.6218 19.3835 15.6431H25.2499C25.4217 15.6431 25.5201 15.7062 25.545 15.8324L33.9205 40.0511C33.9942 40.3036 33.9204 40.4298 33.699 40.4296H28.9025C28.7343 40.4487 28.5737 40.3334 28.5336 40.1647L26.6519 34.5641ZM19.4573 29.796H25.2868C24.329 26.5232 23.2481 23.2933 22.3721 19.995C21.4269 23.2989 20.3956 26.5895 19.4573 29.796Z" fill="#FF9A00"/>
<path d="M38.9009 19.6543C38.5246 19.6698 38.1493 19.6037 37.7997 19.4602C37.45 19.3167 37.1338 19.0992 36.8717 18.8218C36.6103 18.5323 36.4073 18.1928 36.2743 17.8226C36.1413 17.4524 36.081 17.059 36.0968 16.6648C36.0834 16.2745 36.1504 15.8857 36.2934 15.5238C36.4365 15.1619 36.6524 14.8351 36.9269 14.5646C37.1989 14.2968 37.5199 14.0871 37.8714 13.9474C38.2229 13.8078 38.5979 13.741 38.9747 13.751C39.8602 13.751 40.5551 14.0222 41.0593 14.5646C41.3138 14.8464 41.5117 15.177 41.6414 15.5374C41.7712 15.8978 41.8304 16.2809 41.8156 16.6648C41.8311 17.0605 41.7688 17.4553 41.6325 17.8259C41.4963 18.1964 41.2888 18.5351 41.0224 18.8218C40.744 19.1033 40.4118 19.3225 40.0466 19.4658C39.6815 19.6091 39.2914 19.6733 38.9009 19.6543ZM36.355 40.051V21.9626C36.355 21.7356 36.4531 21.622 36.6502 21.622H41.1885C41.3851 21.622 41.4835 21.7356 41.4836 21.9626V40.051C41.4836 40.3035 41.3853 40.4297 41.1885 40.4295H36.6872C36.4658 40.4295 36.3551 40.3033 36.355 40.051Z" fill="#FF9A00"/>
</svg>
