<svg width="167" height="24" viewBox="0 0 167 24" fill="none" xmlns="http://www.w3.org/2000/svg">
<path d="M12.6882 10.2165H9.88849C9.83736 9.85428 9.73295 9.53254 9.57528 9.25129C9.41761 8.96578 9.2152 8.72288 8.96804 8.5226C8.72088 8.32231 8.43537 8.16891 8.11151 8.06237C7.7919 7.95584 7.4446 7.90257 7.0696 7.90257C6.39205 7.90257 5.80185 8.0709 5.29901 8.40754C4.79617 8.73993 4.40625 9.22572 4.12926 9.86493C3.85227 10.4999 3.71378 11.2712 3.71378 12.1788C3.71378 13.1121 3.85227 13.8962 4.12926 14.5311C4.41051 15.1661 4.80256 15.6455 5.3054 15.9693C5.80824 16.2932 6.38992 16.4551 7.05043 16.4551C7.42117 16.4551 7.7642 16.4061 8.07955 16.3081C8.39915 16.2101 8.68253 16.0673 8.92969 15.8798C9.17685 15.6881 9.38139 15.4558 9.54332 15.1831C9.70952 14.9104 9.82457 14.5993 9.88849 14.2499L12.6882 14.2627C12.6158 14.8635 12.4347 15.4431 12.1449 16.0013C11.8594 16.5553 11.4737 17.0517 10.9879 17.4906C10.5064 17.9253 9.93111 18.2705 9.26207 18.5262C8.5973 18.7776 7.84517 18.9033 7.00568 18.9033C5.83807 18.9033 4.79403 18.6391 3.87358 18.1107C2.95739 17.5823 2.23295 16.8173 1.70028 15.8159C1.17188 14.8145 0.90767 13.6021 0.90767 12.1788C0.90767 10.7513 1.17614 9.5368 1.71307 8.53538C2.25 7.53396 2.97869 6.77118 3.89915 6.24703C4.8196 5.71862 5.85511 5.45442 7.00568 5.45442C7.7642 5.45442 8.46733 5.56095 9.11506 5.77402C9.76705 5.98709 10.3445 6.29817 10.8473 6.70726C11.3501 7.11209 11.7592 7.60854 12.0746 8.1966C12.3942 8.78467 12.5987 9.45797 12.6882 10.2165ZM18.5179 18.9161C17.525 18.9161 16.6663 18.7051 15.9419 18.2833C15.2217 17.8571 14.6656 17.2648 14.2736 16.5063C13.8815 15.7435 13.6855 14.8592 13.6855 13.8536C13.6855 12.8394 13.8815 11.953 14.2736 11.1945C14.6656 10.4317 15.2217 9.83936 15.9419 9.41749C16.6663 8.99135 17.525 8.77828 18.5179 8.77828C19.5108 8.77828 20.3673 8.99135 21.0875 9.41749C21.8119 9.83936 22.3702 10.4317 22.7622 11.1945C23.1542 11.953 23.3503 12.8394 23.3503 13.8536C23.3503 14.8592 23.1542 15.7435 22.7622 16.5063C22.3702 17.2648 21.8119 17.8571 21.0875 18.2833C20.3673 18.7051 19.5108 18.9161 18.5179 18.9161ZM18.5307 16.8067C18.9824 16.8067 19.3595 16.6788 19.6621 16.4232C19.9646 16.1632 20.1926 15.8095 20.346 15.3621C20.5037 14.9146 20.5825 14.4054 20.5825 13.8344C20.5825 13.2634 20.5037 12.7541 20.346 12.3067C20.1926 11.8592 19.9646 11.5056 19.6621 11.2456C19.3595 10.9857 18.9824 10.8557 18.5307 10.8557C18.0747 10.8557 17.6912 10.9857 17.3801 11.2456C17.0733 11.5056 16.841 11.8592 16.6834 12.3067C16.53 12.7541 16.4533 13.2634 16.4533 13.8344C16.4533 14.4054 16.53 14.9146 16.6834 15.3621C16.841 15.8095 17.0733 16.1632 17.3801 16.4232C17.6912 16.6788 18.0747 16.8067 18.5307 16.8067ZM24.5809 18.7243V8.90612H27.2208V10.6192H27.3231C27.502 10.0098 27.8025 9.54959 28.2243 9.23851C28.6462 8.92317 29.132 8.7655 29.6817 8.7655C29.8181 8.7655 29.9651 8.77402 30.1228 8.79106C30.2804 8.80811 30.4189 8.83155 30.5383 8.86138V11.2776C30.4104 11.2392 30.2336 11.2051 30.0077 11.1753C29.7819 11.1455 29.5752 11.1306 29.3877 11.1306C28.9871 11.1306 28.6292 11.2179 28.3138 11.3926C28.0027 11.5631 27.7556 11.8017 27.5723 12.1085C27.3934 12.4154 27.3039 12.769 27.3039 13.1696V18.7243H24.5809ZM35.4235 18.9161C34.4136 18.9161 33.5442 18.7115 32.8155 18.3024C32.0911 17.8891 31.5329 17.3053 31.1408 16.551C30.7488 15.7925 30.5528 14.8955 30.5528 13.86C30.5528 12.85 30.7488 11.9637 31.1408 11.2009C31.5329 10.4381 32.0847 9.84362 32.7964 9.41749C33.5123 8.99135 34.3518 8.77828 35.3148 8.77828C35.9626 8.77828 36.5655 8.88268 37.1238 9.09149C37.6863 9.29604 38.1763 9.60499 38.594 10.0183C39.0158 10.4317 39.344 10.9516 39.5783 11.578C39.8127 12.2002 39.9299 12.9288 39.9299 13.7641V14.5119H31.6394V12.8244H37.3667C37.3667 12.4324 37.2815 12.0851 37.111 11.7825C36.9405 11.48 36.704 11.2435 36.4015 11.073C36.1032 10.8983 35.7559 10.811 35.3596 10.811C34.9462 10.811 34.5798 10.9068 34.2601 11.0986C33.9448 11.2861 33.6976 11.5396 33.5187 11.8592C33.3397 12.1746 33.2481 12.5262 33.2438 12.9139V14.5183C33.2438 15.0041 33.3333 15.4239 33.5123 15.7776C33.6955 16.1313 33.9533 16.404 34.2857 16.5958C34.6181 16.7875 35.0123 16.8834 35.4682 16.8834C35.7708 16.8834 36.0478 16.8408 36.2992 16.7556C36.5506 16.6703 36.7658 16.5425 36.9448 16.372C37.1238 16.2016 37.2601 15.9928 37.3539 15.7456L39.8724 15.9118C39.7445 16.5169 39.4824 17.0453 39.0861 17.497C38.6941 17.9445 38.187 18.2939 37.5648 18.5453C36.9469 18.7925 36.2332 18.9161 35.4235 18.9161ZM43.8899 5.63339V18.7243H41.1669V5.63339H43.8899ZM50.2229 18.7243H45.5823V5.63339H50.2613C51.5781 5.63339 52.7116 5.89547 53.6619 6.41962C54.6121 6.9395 55.343 7.68737 55.8543 8.66322C56.37 9.63908 56.6278 10.8067 56.6278 12.1661C56.6278 13.5297 56.37 14.7016 55.8543 15.6817C55.343 16.6618 54.6079 17.4139 53.6491 17.9381C52.6945 18.4622 51.5525 18.7243 50.2229 18.7243ZM48.3501 16.3529H50.1079C50.9261 16.3529 51.6143 16.208 52.1725 15.9182C52.735 15.6242 53.1569 15.1703 53.4381 14.5567C53.7236 13.9388 53.8664 13.1419 53.8664 12.1661C53.8664 11.1987 53.7236 10.4083 53.4381 9.79462C53.1569 9.18098 52.7371 8.72928 52.1789 8.4395C51.6207 8.14973 50.9325 8.00484 50.1143 8.00484H48.3501V16.3529ZM58.138 18.7243V5.63339H63.3028C64.2914 5.63339 65.1352 5.81024 65.834 6.16393C66.5372 6.51337 67.072 7.00982 67.4384 7.65328C67.8092 8.29249 67.9946 9.04462 67.9946 9.90967C67.9946 10.779 67.8071 11.5269 67.4321 12.1533C67.0571 12.7754 66.5137 13.2527 65.8021 13.5851C65.0947 13.9175 64.2382 14.0837 63.2325 14.0837H59.7744V11.8592H62.785C63.3134 11.8592 63.7524 11.7868 64.1018 11.6419C64.4512 11.497 64.7112 11.2797 64.8816 10.9899C65.0563 10.7002 65.1437 10.3401 65.1437 9.90967C65.1437 9.47501 65.0563 9.10854 64.8816 8.81024C64.7112 8.51195 64.4491 8.28609 64.0954 8.13268C63.746 7.97501 63.3049 7.89618 62.7722 7.89618H60.9058V18.7243H58.138ZM65.2076 12.7669L68.4612 18.7243H65.4058L62.2225 12.7669H65.2076ZM71.6669 18.7243H68.701L73.2202 5.63339H76.7869L81.2997 18.7243H78.3338L75.0547 8.62487H74.9524L71.6669 18.7243ZM71.4815 13.5787H78.4872V15.7392H71.4815V13.5787ZM83.9637 18.7243L80.218 5.63339H83.2414L85.4083 14.7293H85.517L87.9076 5.63339H90.4964L92.8806 14.7485H92.9957L95.1626 5.63339H98.186L94.4403 18.7243H91.7429L89.25 10.1654H89.1477L86.6612 18.7243H83.9637Z" fill="white"/>
<rect x="108" width="58.2246" height="23.4486" rx="5.65027" fill="#37373B"/>
<path d="M122.709 15.8102C121.985 15.8102 121.357 15.6509 120.826 15.3323C120.295 15.0136 119.883 14.5678 119.59 13.9949C119.3 13.422 119.156 12.7525 119.156 11.9864C119.156 11.2204 119.3 10.5493 119.59 9.9731C119.883 9.39695 120.295 8.94955 120.826 8.6309C121.357 8.31224 121.985 8.15292 122.709 8.15292C123.433 8.15292 124.061 8.31224 124.592 8.6309C125.123 8.94955 125.533 9.39695 125.823 9.9731C126.116 10.5493 126.262 11.2204 126.262 11.9864C126.262 12.7525 126.116 13.422 125.823 13.9949C125.533 14.5678 125.123 15.0136 124.592 15.3323C124.061 15.6509 123.433 15.8102 122.709 15.8102ZM122.719 14.4101C123.111 14.4101 123.44 14.3023 123.704 14.0866C123.968 13.8678 124.164 13.5748 124.293 13.2079C124.425 12.841 124.491 12.4322 124.491 11.9816C124.491 11.5277 124.425 11.1174 124.293 10.7504C124.164 10.3803 123.968 10.0858 123.704 9.86688C123.44 9.64801 123.111 9.53857 122.719 9.53857C122.316 9.53857 121.982 9.64801 121.714 9.86688C121.45 10.0858 121.253 10.3803 121.121 10.7504C120.992 11.1174 120.927 11.5277 120.927 11.9816C120.927 12.4322 120.992 12.841 121.121 13.2079C121.253 13.5748 121.45 13.8678 121.714 14.0866C121.982 14.3023 122.316 14.4101 122.719 14.4101ZM128.814 11.3201V15.6654H127.066V8.24948H128.737V9.50961H128.824C128.994 9.09439 129.266 8.76447 129.639 8.51985C130.016 8.27523 130.481 8.15292 131.035 8.15292C131.547 8.15292 131.992 8.26235 132.372 8.48122C132.755 8.7001 133.051 9.01714 133.261 9.43236C133.473 9.84757 133.578 10.3513 133.574 10.9435V15.6654H131.827V11.2139C131.827 10.7182 131.698 10.3304 131.44 10.0504C131.186 9.77032 130.834 9.63031 130.383 9.63031C130.077 9.63031 129.805 9.6979 129.567 9.83309C129.332 9.96505 129.147 10.1566 129.012 10.4076C128.88 10.6587 128.814 10.9629 128.814 11.3201ZM136.419 5.7775V15.6654H134.671V5.7775H136.419ZM137.537 15.6654V8.24948H139.284V15.6654H137.537ZM138.415 7.19696C138.138 7.19696 137.9 7.10522 137.701 6.92176C137.501 6.73507 137.401 6.51137 137.401 6.25065C137.401 5.98672 137.501 5.76302 137.701 5.57955C137.9 5.39286 138.138 5.29952 138.415 5.29952C138.695 5.29952 138.933 5.39286 139.13 5.57955C139.329 5.76302 139.429 5.98672 139.429 6.25065C139.429 6.51137 139.329 6.73507 139.13 6.92176C138.933 7.10522 138.695 7.19696 138.415 7.19696ZM142.15 11.3201V15.6654H140.402V8.24948H142.072V9.50961H142.159C142.33 9.09439 142.602 8.76447 142.975 8.51985C143.352 8.27523 143.817 8.15292 144.37 8.15292C144.882 8.15292 145.328 8.26235 145.708 8.48122C146.091 8.7001 146.387 9.01714 146.596 9.43236C146.809 9.84757 146.913 10.3513 146.91 10.9435V15.6654H145.162V11.2139C145.162 10.7182 145.033 10.3304 144.776 10.0504C144.522 9.77032 144.169 9.63031 143.719 9.63031C143.413 9.63031 143.141 9.6979 142.903 9.83309C142.668 9.96505 142.483 10.1566 142.347 10.4076C142.215 10.6587 142.15 10.9629 142.15 11.3201ZM151.29 15.8102C150.546 15.8102 149.904 15.6557 149.364 15.3468C148.826 15.0345 148.412 14.5936 148.123 14.0239C147.833 13.4509 147.688 12.7766 147.688 12.0009C147.688 11.2381 147.833 10.5686 148.123 9.99241C148.416 9.41304 148.824 8.96242 149.349 8.64055C149.874 8.31546 150.49 8.15292 151.198 8.15292C151.655 8.15292 152.087 8.22695 152.492 8.37501C152.901 8.51985 153.261 8.74516 153.574 9.05094C153.889 9.35672 154.137 9.74618 154.317 10.2193C154.497 10.6893 154.588 11.2493 154.588 11.8995V12.4354H148.509V11.2574H152.912C152.909 10.9226 152.837 10.6249 152.695 10.3642C152.553 10.1002 152.355 9.89263 152.101 9.74135C151.85 9.59007 151.557 9.51443 151.222 9.51443C150.865 9.51443 150.551 9.60134 150.281 9.77515C150.011 9.94574 149.8 10.1711 149.648 10.4511C149.5 10.7279 149.425 11.0321 149.422 11.3636V12.392C149.422 12.8233 149.5 13.1934 149.658 13.5024C149.816 13.8082 150.036 14.0432 150.32 14.2073C150.603 14.3683 150.934 14.4487 151.314 14.4487C151.568 14.4487 151.799 14.4133 152.005 14.3425C152.211 14.2685 152.389 14.1607 152.54 14.019C152.692 13.8774 152.806 13.702 152.883 13.4928L154.515 13.6762C154.412 14.1075 154.216 14.4841 153.926 14.806C153.64 15.1247 153.273 15.3725 152.825 15.5495C152.378 15.7233 151.866 15.8102 151.29 15.8102Z" fill="white"/>
</svg>
