<svg width="202" height="24" viewBox="0 0 202 24" fill="none" xmlns="http://www.w3.org/2000/svg">
<path d="M5.77841 18.7243H1.13778V5.63339H5.81676C7.13352 5.63339 8.26705 5.89547 9.21733 6.41962C10.1676 6.9395 10.8984 7.68737 11.4098 8.66322C11.9254 9.63908 12.1832 10.8067 12.1832 12.1661C12.1832 13.5297 11.9254 14.7016 11.4098 15.6817C10.8984 16.6618 10.1634 17.4139 9.20455 17.9381C8.25 18.4622 7.10795 18.7243 5.77841 18.7243ZM3.90554 16.3529H5.66335C6.48153 16.3529 7.16974 16.208 7.72798 15.9182C8.29048 15.6242 8.71236 15.1703 8.99361 14.5567C9.27912 13.9388 9.42188 13.1419 9.42188 12.1661C9.42188 11.1987 9.27912 10.4083 8.99361 9.79462C8.71236 9.18098 8.29261 8.72928 7.73438 8.4395C7.17614 8.14973 6.48793 8.00484 5.66974 8.00484H3.90554V16.3529ZM16.4421 18.9097C15.8156 18.9097 15.2574 18.801 14.7674 18.5837C14.2773 18.3621 13.8895 18.0361 13.604 17.6057C13.3227 17.171 13.1821 16.6298 13.1821 15.9821C13.1821 15.4367 13.2823 14.9786 13.4825 14.6078C13.6828 14.2371 13.9556 13.9388 14.3007 13.7129C14.6459 13.4871 15.0379 13.3166 15.4769 13.2016C15.92 13.0865 16.3845 13.0056 16.8703 12.9587C17.4414 12.899 17.9016 12.8436 18.251 12.7925C18.6004 12.7371 18.854 12.6561 19.0117 12.5496C19.1693 12.4431 19.2482 12.2854 19.2482 12.0766V12.0382C19.2482 11.6334 19.1203 11.3202 18.8647 11.0986C18.6132 10.877 18.2553 10.7662 17.7908 10.7662C17.3007 10.7662 16.9108 10.8749 16.621 11.0922C16.3313 11.3053 16.1395 11.5737 16.0458 11.8976L13.5273 11.6931C13.6551 11.0965 13.9066 10.5808 14.2816 10.1462C14.6566 9.70726 15.1402 9.37061 15.7325 9.13624C16.3291 8.8976 17.0195 8.77828 17.8036 8.77828C18.349 8.77828 18.871 8.8422 19.3696 8.97004C19.8725 9.09788 20.3178 9.29604 20.7056 9.5645C21.0976 9.83297 21.4066 10.1781 21.6324 10.6C21.8583 11.0176 21.9712 11.5183 21.9712 12.1021V18.7243H19.3888V17.3628H19.3121C19.1544 17.6696 18.9435 17.9402 18.6793 18.1746C18.4151 18.4047 18.0976 18.5858 17.7269 18.7179C17.3561 18.8458 16.9279 18.9097 16.4421 18.9097ZM17.2219 17.0304C17.6225 17.0304 17.9762 16.9516 18.283 16.7939C18.5898 16.632 18.8306 16.4146 19.0053 16.1419C19.18 15.8692 19.2674 15.5602 19.2674 15.2151V14.1732C19.1821 14.2286 19.0649 14.2797 18.9158 14.3266C18.7709 14.3692 18.6068 14.4097 18.4236 14.448C18.2404 14.4821 18.0571 14.5141 17.8739 14.5439C17.6906 14.5695 17.5245 14.5929 17.3753 14.6142C17.0557 14.6611 16.7766 14.7357 16.5379 14.8379C16.2993 14.9402 16.1139 15.0787 15.9818 15.2534C15.8497 15.4239 15.7837 15.6369 15.7837 15.8926C15.7837 16.2634 15.9179 16.5467 16.1864 16.7428C16.4591 16.9345 16.8043 17.0304 17.2219 17.0304ZM25.0459 5.63339L28.21 15.5794H28.3314L31.5019 5.63339H34.57L30.0573 18.7243H26.4905L21.9713 5.63339H25.0459ZM35.5545 18.7243V8.90612H38.2776V18.7243H35.5545ZM36.9224 7.6405C36.5176 7.6405 36.1703 7.50626 35.8805 7.2378C35.595 6.96507 35.4523 6.63908 35.4523 6.25981C35.4523 5.88481 35.595 5.56308 35.8805 5.29462C36.1703 5.02189 36.5176 4.88553 36.9224 4.88553C37.3273 4.88553 37.6724 5.02189 37.9579 5.29462C38.2477 5.56308 38.3926 5.88481 38.3926 6.25981C38.3926 6.63908 38.2477 6.96507 37.9579 7.2378C37.6724 7.50626 37.3273 7.6405 36.9224 7.6405ZM42.6418 13.0482V18.7243H39.9188V8.90612H42.514V10.6384H42.6291C42.8464 10.0673 43.2107 9.61564 43.7221 9.28325C44.2335 8.94661 44.8535 8.77828 45.5822 8.77828C46.264 8.77828 46.8585 8.92743 47.3656 9.22572C47.8727 9.52402 48.2668 9.95016 48.5481 10.5041C48.8293 11.0538 48.97 11.7101 48.97 12.4729V18.7243H46.247V12.9587C46.2512 12.3578 46.0978 11.8891 45.7867 11.5524C45.4757 11.2115 45.0474 11.0411 44.5019 11.0411C44.1355 11.0411 43.8116 11.1199 43.5303 11.2776C43.2534 11.4352 43.036 11.6654 42.8784 11.9679C42.7249 12.2662 42.6461 12.6263 42.6418 13.0482ZM55.0122 18.9161C54.0065 18.9161 53.1414 18.703 52.417 18.2769C51.6968 17.8465 51.1429 17.2499 50.7551 16.4871C50.3716 15.7243 50.1798 14.8465 50.1798 13.8536C50.1798 12.8479 50.3737 11.9658 50.7615 11.2073C51.1535 10.4445 51.7096 9.85001 52.4298 9.42388C53.15 8.99348 54.0065 8.77828 54.9994 8.77828C55.8559 8.77828 56.6059 8.93382 57.2494 9.2449C57.8929 9.55598 58.4021 9.99277 58.7771 10.5553C59.1521 11.1178 59.3588 11.7783 59.3971 12.5368H56.8275C56.7551 12.0467 56.5633 11.6526 56.2522 11.3543C55.9454 11.0517 55.5427 10.9004 55.0441 10.9004C54.6223 10.9004 54.2537 11.0155 53.9383 11.2456C53.6272 11.4715 53.3843 11.8017 53.2096 12.2364C53.0349 12.671 52.9475 13.1973 52.9475 13.8152C52.9475 14.4416 53.0328 14.9743 53.2032 15.4132C53.3779 15.8521 53.623 16.1867 53.9383 16.4168C54.2537 16.6469 54.6223 16.7619 55.0441 16.7619C55.3552 16.7619 55.6343 16.698 55.8815 16.5702C56.1329 16.4423 56.3396 16.257 56.5015 16.0141C56.6677 15.7669 56.7764 15.4708 56.8275 15.1256H59.3971C59.3545 15.8756 59.15 16.5361 58.7835 17.1071C58.4213 17.6739 57.9206 18.1171 57.2814 18.4367C56.6422 18.7563 55.8858 18.9161 55.0122 18.9161ZM60.6006 18.7243V8.90612H63.3236V18.7243H60.6006ZM61.9685 7.6405C61.5636 7.6405 61.2163 7.50626 60.9265 7.2378C60.641 6.96507 60.4983 6.63908 60.4983 6.25981C60.4983 5.88481 60.641 5.56308 60.9265 5.29462C61.2163 5.02189 61.5636 4.88553 61.9685 4.88553C62.3733 4.88553 62.7185 5.02189 63.004 5.29462C63.2937 5.56308 63.4386 5.88481 63.4386 6.25981C63.4386 6.63908 63.2937 6.96507 63.004 7.2378C62.7185 7.50626 62.3733 7.6405 61.9685 7.6405ZM68.642 18.7243V5.63339H73.8068C74.7954 5.63339 75.6392 5.81024 76.338 6.16393C77.0412 6.51337 77.576 7.00982 77.9424 7.65328C78.3132 8.29249 78.4985 9.04462 78.4985 9.90967C78.4985 10.779 78.311 11.5269 77.936 12.1533C77.561 12.7754 77.0177 13.2527 76.3061 13.5851C75.5987 13.9175 74.7421 14.0837 73.7365 14.0837H70.2784V11.8592H73.289C73.8174 11.8592 74.2563 11.7868 74.6058 11.6419C74.9552 11.497 75.2152 11.2797 75.3856 10.9899C75.5603 10.7002 75.6477 10.3401 75.6477 9.90967C75.6477 9.47501 75.5603 9.10854 75.3856 8.81024C75.2152 8.51195 74.9531 8.28609 74.5994 8.13268C74.25 7.97501 73.8089 7.89618 73.2762 7.89618H71.4098V18.7243H68.642ZM75.7116 12.7669L78.9652 18.7243H75.9098L72.7265 12.7669H75.7116ZM84.1796 18.9161C83.1697 18.9161 82.3003 18.7115 81.5716 18.3024C80.8472 17.8891 80.289 17.3053 79.8969 16.551C79.5049 15.7925 79.3089 14.8955 79.3089 13.86C79.3089 12.85 79.5049 11.9637 79.8969 11.2009C80.289 10.4381 80.8408 9.84362 81.5525 9.41749C82.2684 8.99135 83.1079 8.77828 84.0709 8.77828C84.7187 8.77828 85.3216 8.88268 85.8799 9.09149C86.4424 9.29604 86.9324 9.60499 87.35 10.0183C87.7719 10.4317 88.1 10.9516 88.3344 11.578C88.5688 12.2002 88.686 12.9288 88.686 13.7641V14.5119H80.3955V12.8244H86.1228C86.1228 12.4324 86.0375 12.0851 85.8671 11.7825C85.6966 11.48 85.4601 11.2435 85.1576 11.073C84.8593 10.8983 84.512 10.811 84.1157 10.811C83.7023 10.811 83.3358 10.9068 83.0162 11.0986C82.7009 11.2861 82.4537 11.5396 82.2748 11.8592C82.0958 12.1746 82.0042 12.5262 81.9999 12.9139V14.5183C81.9999 15.0041 82.0894 15.4239 82.2684 15.7776C82.4516 16.1313 82.7094 16.404 83.0418 16.5958C83.3742 16.7875 83.7684 16.8834 84.2243 16.8834C84.5269 16.8834 84.8039 16.8408 85.0553 16.7556C85.3067 16.6703 85.5219 16.5425 85.7009 16.372C85.8799 16.2016 86.0162 15.9928 86.11 15.7456L88.6285 15.9118C88.5006 16.5169 88.2385 17.0453 87.8422 17.497C87.4502 17.9445 86.9431 18.2939 86.3209 18.5453C85.703 18.7925 84.9893 18.9161 84.1796 18.9161ZM98.092 11.7058L95.5991 11.8592C95.5565 11.6462 95.4649 11.4544 95.3243 11.284C95.1836 11.1092 94.9983 10.9708 94.7681 10.8685C94.5423 10.7619 94.2717 10.7087 93.9564 10.7087C93.5345 10.7087 93.1787 10.7982 92.8889 10.9771C92.5991 11.1519 92.4542 11.3862 92.4542 11.6803C92.4542 11.9146 92.548 12.1128 92.7355 12.2747C92.923 12.4367 93.2447 12.5666 93.7007 12.6646L95.4777 13.0226C96.4322 13.2186 97.1439 13.534 97.6126 13.9686C98.0814 14.4033 98.3157 14.9743 98.3157 15.6817C98.3157 16.3252 98.1261 16.8898 97.7468 17.3756C97.3718 17.8614 96.8562 18.2406 96.2 18.5134C95.548 18.7818 94.7958 18.9161 93.9436 18.9161C92.6439 18.9161 91.6083 18.6455 90.837 18.1043C90.07 17.5588 89.6204 16.8173 89.4883 15.8798L92.1666 15.7392C92.2475 16.1355 92.4436 16.4381 92.7547 16.6469C93.0657 16.8514 93.4642 16.9537 93.95 16.9537C94.4272 16.9537 94.8108 16.8621 95.1005 16.6788C95.3946 16.4913 95.5437 16.2506 95.548 15.9565C95.5437 15.7094 95.4393 15.507 95.2348 15.3493C95.0302 15.1874 94.7149 15.0638 94.2887 14.9786L92.5885 14.6398C91.6297 14.448 90.9159 14.1156 90.4471 13.6426C89.9826 13.1696 89.7504 12.5666 89.7504 11.8337C89.7504 11.203 89.9208 10.6597 90.2618 10.2037C90.6069 9.74774 91.0906 9.39618 91.7127 9.14902C92.3392 8.90186 93.0721 8.77828 93.9116 8.77828C95.1517 8.77828 96.1275 9.04036 96.8392 9.5645C97.5551 10.0887 97.9727 10.8024 98.092 11.7058ZM103.926 18.9161C102.934 18.9161 102.075 18.7051 101.35 18.2833C100.63 17.8571 100.074 17.2648 99.6822 16.5063C99.2901 15.7435 99.0941 14.8592 99.0941 13.8536C99.0941 12.8394 99.2901 11.953 99.6822 11.1945C100.074 10.4317 100.63 9.83936 101.35 9.41749C102.075 8.99135 102.934 8.77828 103.926 8.77828C104.919 8.77828 105.776 8.99135 106.496 9.41749C107.221 9.83936 107.779 10.4317 108.171 11.1945C108.563 11.953 108.759 12.8394 108.759 13.8536C108.759 14.8592 108.563 15.7435 108.171 16.5063C107.779 17.2648 107.221 17.8571 106.496 18.2833C105.776 18.7051 104.919 18.9161 103.926 18.9161ZM103.939 16.8067C104.391 16.8067 104.768 16.6788 105.071 16.4232C105.373 16.1632 105.601 15.8095 105.755 15.3621C105.912 14.9146 105.991 14.4054 105.991 13.8344C105.991 13.2634 105.912 12.7541 105.755 12.3067C105.601 11.8592 105.373 11.5056 105.071 11.2456C104.768 10.9857 104.391 10.8557 103.939 10.8557C103.483 10.8557 103.1 10.9857 102.789 11.2456C102.482 11.5056 102.25 11.8592 102.092 12.3067C101.939 12.7541 101.862 13.2634 101.862 13.8344C101.862 14.4054 101.939 14.9146 102.092 15.3621C102.25 15.8095 102.482 16.1632 102.789 16.4232C103.1 16.6788 103.483 16.8067 103.939 16.8067ZM112.712 5.63339V18.7243H109.989V5.63339H112.712ZM123.507 8.90612L120.075 18.7243H117.006L113.574 8.90612H116.45L118.489 15.931H118.592L120.624 8.90612H123.507ZM128.519 18.9161C127.509 18.9161 126.639 18.7115 125.911 18.3024C125.186 17.8891 124.628 17.3053 124.236 16.551C123.844 15.7925 123.648 14.8955 123.648 13.86C123.648 12.85 123.844 11.9637 124.236 11.2009C124.628 10.4381 125.18 9.84362 125.892 9.41749C126.607 8.99135 127.447 8.77828 128.41 8.77828C129.058 8.77828 129.661 8.88268 130.219 9.09149C130.781 9.29604 131.272 9.60499 131.689 10.0183C132.111 10.4317 132.439 10.9516 132.673 11.578C132.908 12.2002 133.025 12.9288 133.025 13.7641V14.5119H124.735V12.8244H130.462C130.462 12.4324 130.377 12.0851 130.206 11.7825C130.036 11.48 129.799 11.2435 129.497 11.073C129.198 10.8983 128.851 10.811 128.455 10.811C128.041 10.811 127.675 10.9068 127.355 11.0986C127.04 11.2861 126.793 11.5396 126.614 11.8592C126.435 12.1746 126.343 12.5262 126.339 12.9139V14.5183C126.339 15.0041 126.428 15.4239 126.607 15.7776C126.791 16.1313 127.048 16.404 127.381 16.5958C127.713 16.7875 128.107 16.8834 128.563 16.8834C128.866 16.8834 129.143 16.8408 129.394 16.7556C129.646 16.6703 129.861 16.5425 130.04 16.372C130.219 16.2016 130.355 15.9928 130.449 15.7456L132.968 15.9118C132.84 16.5169 132.578 17.0453 132.181 17.497C131.789 17.9445 131.282 18.2939 130.66 18.5453C130.042 18.7925 129.328 18.9161 128.519 18.9161Z" fill="white"/>
<rect x="143" width="58.2246" height="23.4486" rx="5.65027" fill="#37373B"/>
<path d="M157.709 15.8102C156.985 15.8102 156.357 15.6509 155.826 15.3323C155.295 15.0136 154.883 14.5678 154.59 13.9949C154.3 13.422 154.156 12.7525 154.156 11.9864C154.156 11.2204 154.3 10.5493 154.59 9.9731C154.883 9.39695 155.295 8.94955 155.826 8.6309C156.357 8.31224 156.985 8.15292 157.709 8.15292C158.433 8.15292 159.061 8.31224 159.592 8.6309C160.123 8.94955 160.533 9.39695 160.823 9.9731C161.116 10.5493 161.262 11.2204 161.262 11.9864C161.262 12.7525 161.116 13.422 160.823 13.9949C160.533 14.5678 160.123 15.0136 159.592 15.3323C159.061 15.6509 158.433 15.8102 157.709 15.8102ZM157.719 14.4101C158.111 14.4101 158.44 14.3023 158.704 14.0866C158.968 13.8678 159.164 13.5748 159.293 13.2079C159.425 12.841 159.491 12.4322 159.491 11.9816C159.491 11.5277 159.425 11.1174 159.293 10.7504C159.164 10.3803 158.968 10.0858 158.704 9.86688C158.44 9.64801 158.111 9.53857 157.719 9.53857C157.316 9.53857 156.982 9.64801 156.714 9.86688C156.45 10.0858 156.253 10.3803 156.121 10.7504C155.992 11.1174 155.927 11.5277 155.927 11.9816C155.927 12.4322 155.992 12.841 156.121 13.2079C156.253 13.5748 156.45 13.8678 156.714 14.0866C156.982 14.3023 157.316 14.4101 157.719 14.4101ZM163.814 11.3201V15.6654H162.066V8.24948H163.737V9.50961H163.824C163.994 9.09439 164.266 8.76447 164.639 8.51985C165.016 8.27523 165.481 8.15292 166.035 8.15292C166.547 8.15292 166.992 8.26235 167.372 8.48122C167.755 8.7001 168.051 9.01714 168.261 9.43236C168.473 9.84757 168.578 10.3513 168.574 10.9435V15.6654H166.827V11.2139C166.827 10.7182 166.698 10.3304 166.44 10.0504C166.186 9.77032 165.834 9.63031 165.383 9.63031C165.077 9.63031 164.805 9.6979 164.567 9.83309C164.332 9.96505 164.147 10.1566 164.012 10.4076C163.88 10.6587 163.814 10.9629 163.814 11.3201ZM171.419 5.7775V15.6654H169.671V5.7775H171.419ZM172.537 15.6654V8.24948H174.284V15.6654H172.537ZM173.415 7.19696C173.138 7.19696 172.9 7.10522 172.701 6.92176C172.501 6.73507 172.401 6.51137 172.401 6.25065C172.401 5.98672 172.501 5.76302 172.701 5.57955C172.9 5.39286 173.138 5.29952 173.415 5.29952C173.695 5.29952 173.933 5.39286 174.13 5.57955C174.329 5.76302 174.429 5.98672 174.429 6.25065C174.429 6.51137 174.329 6.73507 174.13 6.92176C173.933 7.10522 173.695 7.19696 173.415 7.19696ZM177.15 11.3201V15.6654H175.402V8.24948H177.072V9.50961H177.159C177.33 9.09439 177.602 8.76447 177.975 8.51985C178.352 8.27523 178.817 8.15292 179.37 8.15292C179.882 8.15292 180.328 8.26235 180.708 8.48122C181.091 8.7001 181.387 9.01714 181.596 9.43236C181.809 9.84757 181.913 10.3513 181.91 10.9435V15.6654H180.162V11.2139C180.162 10.7182 180.033 10.3304 179.776 10.0504C179.522 9.77032 179.169 9.63031 178.719 9.63031C178.413 9.63031 178.141 9.6979 177.903 9.83309C177.668 9.96505 177.483 10.1566 177.347 10.4076C177.215 10.6587 177.15 10.9629 177.15 11.3201ZM186.29 15.8102C185.546 15.8102 184.904 15.6557 184.364 15.3468C183.826 15.0345 183.412 14.5936 183.123 14.0239C182.833 13.4509 182.688 12.7766 182.688 12.0009C182.688 11.2381 182.833 10.5686 183.123 9.99241C183.416 9.41304 183.824 8.96242 184.349 8.64055C184.874 8.31546 185.49 8.15292 186.198 8.15292C186.655 8.15292 187.087 8.22695 187.492 8.37501C187.901 8.51985 188.261 8.74516 188.574 9.05094C188.889 9.35672 189.137 9.74618 189.317 10.2193C189.497 10.6893 189.588 11.2493 189.588 11.8995V12.4354H183.509V11.2574H187.912C187.909 10.9226 187.837 10.6249 187.695 10.3642C187.553 10.1002 187.355 9.89263 187.101 9.74135C186.85 9.59007 186.557 9.51443 186.222 9.51443C185.865 9.51443 185.551 9.60134 185.281 9.77515C185.011 9.94574 184.8 10.1711 184.648 10.4511C184.5 10.7279 184.425 11.0321 184.422 11.3636V12.392C184.422 12.8233 184.5 13.1934 184.658 13.5024C184.816 13.8082 185.036 14.0432 185.32 14.2073C185.603 14.3683 185.934 14.4487 186.314 14.4487C186.568 14.4487 186.799 14.4133 187.005 14.3425C187.211 14.2685 187.389 14.1607 187.54 14.019C187.692 13.8774 187.806 13.702 187.883 13.4928L189.515 13.6762C189.412 14.1075 189.216 14.4841 188.926 14.806C188.64 15.1247 188.273 15.3725 187.825 15.5495C187.378 15.7233 186.866 15.8102 186.29 15.8102Z" fill="white"/>
</svg>
