<svg width="28" height="20" viewBox="0 0 28 20" fill="none" xmlns="http://www.w3.org/2000/svg">
<path d="M6.48 19.8C5.04 19.8 3.82 19.46 2.82 18.78C1.86 18.1 1.14 17.2 0.66 16.08C0.22 14.96 0 13.76 0 12.48C0 10.64 0.38 8.9 1.14 7.26C1.94 5.62 2.96 4.18 4.2 2.94C5.48 1.66 6.86 0.680001 8.34 0L12.48 3.06C11.4 3.54 10.38 4.12 9.42 4.8C8.46 5.44 7.62 6.16 6.9 6.96C6.22 7.76 5.7 8.58 5.34 9.42L5.64 9.6C5.88 9.44 6.14 9.32 6.42 9.24C6.74 9.16 7.16 9.12 7.68 9.12C8.4 9.12 9.12 9.3 9.84 9.66C10.6 10.02 11.22 10.56 11.7 11.28C12.22 12 12.48 12.92 12.48 14.04C12.48 15.28 12.2 16.34 11.64 17.22C11.08 18.06 10.34 18.7 9.42 19.14C8.5 19.58 7.52 19.8 6.48 19.8ZM21.18 19.8C19.74 19.8 18.52 19.46 17.52 18.78C16.56 18.1 15.84 17.2 15.36 16.08C14.92 14.96 14.7 13.76 14.7 12.48C14.7 10.64 15.08 8.9 15.84 7.26C16.64 5.62 17.66 4.18 18.9 2.94C20.18 1.66 21.56 0.680001 23.04 0L27.18 3.06C26.1 3.54 25.08 4.12 24.12 4.8C23.16 5.44 22.32 6.16 21.6 6.96C20.92 7.76 20.4 8.58 20.04 9.42L20.34 9.6C20.58 9.44 20.84 9.32 21.12 9.24C21.44 9.16 21.86 9.12 22.38 9.12C23.1 9.12 23.82 9.3 24.54 9.66C25.3 10.02 25.92 10.56 26.4 11.28C26.92 12 27.18 12.92 27.18 14.04C27.18 15.28 26.9 16.34 26.34 17.22C25.78 18.06 25.04 18.7 24.12 19.14C23.2 19.58 22.22 19.8 21.18 19.8Z" fill="#606060"/>
</svg>
