<svg width="55" height="55" viewBox="0 0 55 55" fill="none" xmlns="http://www.w3.org/2000/svg">
<path d="M0 19.9048C0 12.9374 0 9.45378 1.35593 6.79262C2.54864 4.45179 4.45179 2.54864 6.79262 1.35593C9.45378 0 12.9374 0 19.9048 0H35.0952C42.0626 0 45.5462 0 48.2074 1.35593C50.5482 2.54864 52.4514 4.45179 53.6441 6.79262C55 9.45378 55 12.9374 55 19.9048V35.0952C55 42.0626 55 45.5462 53.6441 48.2074C52.4514 50.5482 50.5482 52.4514 48.2074 53.6441C45.5462 55 42.0626 55 35.0952 55H19.9048C12.9374 55 9.45378 55 6.79262 53.6441C4.45179 52.4514 2.54864 50.5482 1.35593 48.2074C0 45.5462 0 42.0626 0 35.0952V19.9048Z" fill="#1A1A1A"/>
<path d="M16.7138 22.2707C16.321 22.0922 15.9809 21.9537 15.704 21.8495C15.6454 21.4128 15.6034 20.9753 15.5763 20.5365C15.5552 20.1752 15.5682 19.8184 15.6115 19.4676C15.8472 19.5064 16.1814 19.565 16.5976 19.6458C16.5567 20.1423 16.5529 20.6654 16.5976 21.2182C16.6258 21.5711 16.6643 21.9223 16.7138 22.2707ZM20.5958 24.5644C19.6028 23.8356 18.6705 23.2702 17.8604 22.8373C17.6963 21.8271 17.6258 20.8263 17.6879 19.8735C18.4373 20.0391 19.3224 20.2525 20.2969 20.5237C20.2321 21.7977 20.3518 23.1681 20.5958 24.5644ZM30.7916 25.096C30.7822 25.2061 30.7693 25.3175 30.7574 25.4291C29.4009 26.1379 28.0514 27.0929 26.8379 28.3813C26.4451 28.7978 26.0875 29.2154 25.7604 29.6319C25.3936 29.1674 25.0016 28.6968 24.5857 28.224C24.3993 28.0126 24.2128 27.8075 24.0242 27.608C23.7124 25.5181 23.5138 23.4557 23.4775 21.5231C25.8917 22.381 28.4982 23.5449 30.7916 25.096Z" fill="#2AC64B"/>
<path d="M17.0099 17.615C16.807 18.231 16.6593 18.9079 16.5974 19.6459C16.1812 19.5651 15.8471 19.5064 15.6113 19.4677C15.638 19.2472 15.677 19.0288 15.7273 18.8142C16.0227 18.496 16.4508 18.0749 17.0099 17.615Z" fill="#008A5A"/>
<path d="M21.7338 14.9516C21.0197 16.2622 20.4474 18.0279 20.3032 20.3851C20.3008 20.4309 20.2986 20.4778 20.2962 20.5235C19.3217 20.2524 18.4366 20.0392 17.6875 19.8736C17.6886 19.8418 17.691 19.8114 17.6931 19.7796C17.786 18.5441 18.1506 17.4109 18.7016 16.4041C19.554 15.8773 20.5634 15.3657 21.7338 14.9516Z" fill="#009550"/>
<path d="M30.791 25.096C28.4976 23.5449 25.891 22.381 23.4768 21.5232C23.4303 19.2212 23.6096 17.1047 24.0855 15.3516C24.0984 15.3035 24.1113 15.2555 24.1256 15.2084C26.0401 16.3408 28.535 17.6033 30.9035 18.1582C31.1099 20.2478 31.0477 22.6225 30.791 25.096Z" fill="#00983E"/>
<path d="M38.9214 20.5365C38.8627 21.5091 38.7245 22.4713 38.5087 23.4333C38.2353 23.4438 37.9211 23.4616 37.5718 23.492C37.7254 22.7505 37.8382 21.9916 37.9001 21.2183C38.1078 18.6171 37.2681 16.6352 36.2963 15.2519C36.5812 15.3329 36.8508 15.4126 37.1029 15.4901C38.1944 16.8746 39.0363 18.6532 38.9214 20.5365ZM36.4944 23.6176C35.7335 23.7266 34.875 23.8967 33.9689 24.156C34.1766 22.8502 34.2667 21.5748 34.1938 20.385C34.0286 17.6714 33.2946 15.7422 32.4307 14.3871C33.243 14.5209 34.0133 14.6793 34.7238 14.8459C35.8578 16.1859 36.6596 17.8577 36.8038 19.7798C36.8953 21.0046 36.764 22.3106 36.4944 23.6176Z" fill="#009A37"/>
<path d="M30.9038 18.1582C28.5354 17.6033 26.0405 16.3408 24.126 15.2084C24.2269 14.8578 24.3401 14.5385 24.4644 14.2488C24.8153 14.189 25.1763 14.1398 25.5481 14.1021C27.0441 13.9497 28.5378 13.9637 29.96 14.0808C30.1277 14.4518 30.2813 14.8729 30.4115 15.3516C30.6434 16.207 30.8054 17.1491 30.9038 18.1582Z" fill="#00863F"/>
<path d="M20.6786 12.8172C20.6 12.8654 18.0559 14.433 17.0098 17.6149C16.4507 18.0747 16.0227 18.496 15.7275 18.8141C16.419 15.8125 19.1803 13.3605 20.6786 12.8172ZM22.2884 14.0551C22.0974 14.3273 21.911 14.6254 21.7339 14.9517C20.5638 15.3658 19.5543 15.8773 18.702 16.4043C19.3539 15.2072 20.2695 14.1878 21.3024 13.3793C21.5475 13.5541 21.8827 13.7864 22.2884 14.0551Z" fill="#06CBF6"/>
<path d="M37.1023 15.4901C36.8501 15.4126 36.5805 15.3328 36.2956 15.2519C35.1476 13.6165 33.8158 12.816 33.8158 12.816C34.6997 13.1353 36.0233 14.121 37.1023 15.4901ZM34.7231 14.8459C34.0125 14.6792 33.2422 14.5209 32.43 14.3871C30.9725 12.0969 29.1422 11.4468 29.0531 11.4163C31.0158 11.8094 33.1779 13.0202 34.7231 14.8459ZM29.9596 14.081C28.5373 13.9635 27.0436 13.9495 25.5476 14.1022C25.1758 14.1396 24.8147 14.1889 24.4639 14.2489C25.5145 11.7697 27.2241 11.4152 27.2241 11.4152H27.2722C27.2722 11.4152 28.9043 11.753 29.9596 14.081ZM25.4432 11.4164C25.3587 11.4457 23.703 12.0335 22.2878 14.0552C21.8824 13.7865 21.5471 13.5542 21.3018 13.3794C22.5926 12.3703 24.0668 11.692 25.4432 11.4164Z" fill="url(#paint0_linear_10007_366)"/>
<path d="M27.2485 43.5849H29.0054L29.6554 40.7466H24.8418L25.4918 43.5849H27.2485Z" fill="#666565"/>
<path fill-rule="evenodd" clip-rule="evenodd" d="M20.6123 30.8792C20.9502 31.5786 21.2726 32.2028 21.5502 32.7238C22.0264 33.6155 22.479 34.3731 22.9458 35.0632C23.0806 34.5904 23.249 34.0918 23.4591 33.5753C23.0967 32.7437 22.7332 31.8506 22.3877 30.9201C21.6361 28.8987 20.9688 26.7 20.5951 24.5644C19.602 23.8359 18.6698 23.2704 17.8594 22.8375C18.3238 25.7122 19.5442 28.6722 20.6123 30.8792Z" fill="url(#paint1_linear_10007_366)"/>
<path fill-rule="evenodd" clip-rule="evenodd" d="M19.0258 30.8428C19.2171 31.1772 19.4161 31.5138 19.6225 31.853C20.5873 33.4359 21.7014 34.8979 22.6932 36.0852C22.7225 35.9409 22.7567 35.7928 22.7943 35.6418C22.3929 35.0901 22.0015 34.5292 21.6648 34.0094C21.1819 33.2657 20.4832 32.1874 19.7551 30.8603C18.5076 28.5841 17.1758 25.576 16.7138 22.2708C16.321 22.0922 15.9809 21.9541 15.7041 21.8496C16.1028 24.8134 17.2352 27.7218 19.0258 30.8428Z" fill="url(#paint2_linear_10007_366)"/>
<path fill-rule="evenodd" clip-rule="evenodd" d="M24.198 28.711C24.3234 29.4595 24.4701 30.2198 24.6282 30.9708C24.6436 31.0423 24.6587 31.1137 24.674 31.1853C24.9903 30.6726 25.3506 30.1527 25.7596 29.6321C25.3805 29.1524 24.9888 28.6829 24.5849 28.2239C24.3988 28.0128 24.212 27.8077 24.0234 27.6082C24.0783 27.9754 24.1356 28.3427 24.198 28.711Z" fill="url(#paint3_linear_10007_366)"/>
<path fill-rule="evenodd" clip-rule="evenodd" d="M37.5715 23.4921C37.1246 25.6638 36.3373 27.6754 35.5003 29.3954C35.6693 29.5656 35.8347 29.7352 35.9945 29.903C37.1875 27.6838 38.0354 25.5606 38.5084 23.4333C38.235 23.4441 37.9207 23.4613 37.5715 23.4921ZM33.9687 24.1563C33.805 25.1932 33.5684 26.249 33.2832 27.2958C33.7763 27.741 34.316 28.2396 34.8461 28.7514C35.5093 27.1665 36.1292 25.3904 36.4942 23.6174C35.7331 23.7268 34.8748 23.8969 33.9687 24.1563Z" fill="#97CC1A"/>
<path fill-rule="evenodd" clip-rule="evenodd" d="M26.8373 28.3811C26.4446 28.7977 26.0869 29.2155 25.7598 29.6321C27.1866 31.4365 28.2479 33.1518 29.0159 34.5867C29.2951 33.5075 29.5846 32.3129 29.8434 31.0892C30.0113 30.2995 30.166 29.4993 30.2984 28.711C30.4838 27.6103 30.6385 26.511 30.7569 25.4292C29.4003 26.1378 28.051 27.0931 26.8373 28.3811ZM35.5001 29.3954C35.4681 29.4613 35.4359 29.5267 35.4038 29.5916C34.457 31.5041 33.4613 33.0398 32.8323 34.0094C32.1064 35.1278 31.1287 36.4385 30.3536 37.4414C30.3818 37.5154 30.4087 37.5846 30.4345 37.6503C31.6348 36.3421 33.4242 34.2337 34.8746 31.853C35.2384 31.2555 35.5792 30.6665 35.8963 30.0844C35.9293 30.0238 35.9619 29.9634 35.9944 29.9029C35.8345 29.7352 35.6692 29.5655 35.5001 29.3954ZM33.283 27.2958L33.2454 27.4323C32.3258 30.7557 30.925 33.9756 29.8165 36.1943C29.9373 36.4581 30.0463 36.7037 30.1426 36.9288C31.1663 35.7096 32.0101 34.4751 32.9461 32.7237C33.4603 31.7594 34.1268 30.4452 34.7622 28.9498L34.8459 28.7513C34.3158 28.2396 33.7762 27.7409 33.283 27.2958Z" fill="url(#paint4_linear_10007_366)"/>
<path fill-rule="evenodd" clip-rule="evenodd" d="M28.1719 39.0864C28.9201 38.3107 29.5605 37.622 30.1419 36.9287C30.0456 36.7037 29.9366 36.4581 29.8158 36.1942C29.0305 37.7666 28.3901 38.8363 28.1719 39.0864Z" fill="url(#paint5_linear_10007_366)"/>
<path fill-rule="evenodd" clip-rule="evenodd" d="M29.0908 39.0407C29.1306 39.0019 29.6607 38.4917 30.4344 37.6503C30.4086 37.5846 30.3817 37.5154 30.3535 37.4414C29.6607 38.3393 29.1317 38.9914 29.0908 39.0407Z" fill="url(#paint6_linear_10007_366)"/>
<path fill-rule="evenodd" clip-rule="evenodd" d="M24.6748 31.1853C25.5589 35.3235 26.771 39.1193 26.771 39.1193H27.7269C27.7269 39.1193 28.3422 37.1915 29.0165 34.5866C28.2486 33.1518 27.1872 31.4365 25.7604 29.6321C25.3514 30.1527 24.9912 30.6726 24.6748 31.1853Z" fill="url(#paint7_linear_10007_366)"/>
<path fill-rule="evenodd" clip-rule="evenodd" d="M22.9463 35.0632C23.9124 36.4993 24.931 37.6411 26.3242 39.0864C25.9995 38.7147 24.7424 36.5287 23.4596 33.5753C23.2495 34.0918 23.0811 34.5904 22.9463 35.0632Z" fill="url(#paint8_linear_10007_366)"/>
<path fill-rule="evenodd" clip-rule="evenodd" d="M22.6934 36.0852C24.1519 37.8321 25.3467 38.982 25.4075 39.0407C25.3432 38.961 24.0267 37.3417 22.7945 35.6418C22.7568 35.7928 22.7226 35.9409 22.6934 36.0852Z" fill="url(#paint9_linear_10007_366)"/>
<defs>
<linearGradient id="paint0_linear_10007_366" x1="22.0045" y1="13.2467" x2="36.168" y2="13.6756" gradientUnits="userSpaceOnUse">
<stop stop-color="#0288F7"/>
<stop offset="1" stop-color="#2EE2BD"/>
</linearGradient>
<linearGradient id="paint1_linear_10007_366" x1="23.0921" y1="34.0095" x2="19.6038" y2="25.3896" gradientUnits="userSpaceOnUse">
<stop stop-color="#CB1918"/>
<stop offset="0.388" stop-color="#A2183D"/>
<stop offset="0.749" stop-color="#902869"/>
<stop offset="1" stop-color="#73358A"/>
</linearGradient>
<linearGradient id="paint2_linear_10007_366" x1="21.3325" y1="34.722" x2="17.8442" y2="26.1019" gradientUnits="userSpaceOnUse">
<stop stop-color="#CB1918"/>
<stop offset="0.388" stop-color="#A2183D"/>
<stop offset="0.749" stop-color="#902869"/>
<stop offset="1" stop-color="#73358A"/>
</linearGradient>
<linearGradient id="paint3_linear_10007_366" x1="26.1688" y1="32.7645" x2="22.6805" y2="24.1445" gradientUnits="userSpaceOnUse">
<stop stop-color="#CB1918"/>
<stop offset="0.388" stop-color="#A2183D"/>
<stop offset="0.749" stop-color="#902869"/>
<stop offset="1" stop-color="#73358A"/>
</linearGradient>
<linearGradient id="paint4_linear_10007_366" x1="33.0969" y1="27.6717" x2="28.037" y2="33.1946" gradientUnits="userSpaceOnUse">
<stop stop-color="#ADD816"/>
<stop offset="1" stop-color="#DBD704"/>
</linearGradient>
<linearGradient id="paint5_linear_10007_366" x1="29.505" y1="38.5026" x2="25.1966" y2="31.2422" gradientUnits="userSpaceOnUse">
<stop stop-color="#E1282B"/>
<stop offset="0.388" stop-color="#E3402A"/>
<stop offset="0.702" stop-color="#E76226"/>
<stop offset="1" stop-color="#F19A0A"/>
</linearGradient>
<linearGradient id="paint6_linear_10007_366" x1="29.7805" y1="38.3395" x2="25.4721" y2="31.0791" gradientUnits="userSpaceOnUse">
<stop stop-color="#E1282B"/>
<stop offset="0.388" stop-color="#E3402A"/>
<stop offset="0.702" stop-color="#E76226"/>
<stop offset="1" stop-color="#F19A0A"/>
</linearGradient>
<linearGradient id="paint7_linear_10007_366" x1="29.0495" y1="38.7737" x2="24.7411" y2="31.5133" gradientUnits="userSpaceOnUse">
<stop stop-color="#E1282B"/>
<stop offset="0.388" stop-color="#E3402A"/>
<stop offset="0.702" stop-color="#E76226"/>
<stop offset="1" stop-color="#F19A0A"/>
</linearGradient>
<linearGradient id="paint8_linear_10007_366" x1="26.6767" y1="40.1815" x2="22.3683" y2="32.9211" gradientUnits="userSpaceOnUse">
<stop stop-color="#E1282B"/>
<stop offset="0.388" stop-color="#E3402A"/>
<stop offset="0.702" stop-color="#E76226"/>
<stop offset="1" stop-color="#F19A0A"/>
</linearGradient>
<linearGradient id="paint9_linear_10007_366" x1="25.8819" y1="40.6535" x2="21.5735" y2="33.393" gradientUnits="userSpaceOnUse">
<stop stop-color="#E1282B"/>
<stop offset="0.388" stop-color="#E3402A"/>
<stop offset="0.702" stop-color="#E76226"/>
<stop offset="1" stop-color="#F19A0A"/>
</linearGradient>
</defs>
</svg>
