<svg width="51" height="54" viewBox="0 0 51 54" fill="none" xmlns="http://www.w3.org/2000/svg">
<path d="M0 53.14V2.69558H9.30593V53.14H0ZM41.3118 0H49.8326V42.8866L50.1091 53.14H42.4904L42.1453 47.3768H42.0059C39.9962 51.4184 35.9122 53.9636 30.9932 53.9636C22.9616 53.9636 16.5898 46.5538 16.5898 35.3265C16.5197 23.1275 23.5831 15.8671 31.6873 15.8671C36.3281 15.8671 39.6518 17.963 41.1756 20.6577H41.3118V0ZM25.2446 35.0276C25.2446 41.6885 28.2926 46.5538 33.6969 46.5538C37.1593 46.5538 40.2041 44.0095 41.036 40.0425C41.2441 39.2188 41.3118 38.321 41.3118 37.3478V31.8843L41.107 29.4893C40.3437 25.8969 37.6438 22.978 33.7646 22.978C28.2926 22.978 25.2446 28.2164 25.2446 35.0276Z" fill="#FF3366"/>
</svg>
