<svg width="55" height="55" viewBox="0 0 55 55" fill="none" xmlns="http://www.w3.org/2000/svg">
<path d="M0 19.9048C0 12.9374 0 9.45378 1.35593 6.79262C2.54864 4.45179 4.45179 2.54864 6.79262 1.35593C9.45378 0 12.9374 0 19.9048 0H35.0952C42.0626 0 45.5462 0 48.2074 1.35593C50.5482 2.54864 52.4514 4.45179 53.6441 6.79262C55 9.45378 55 12.9374 55 19.9048V35.0952C55 42.0626 55 45.5462 53.6441 48.2074C52.4514 50.5482 50.5482 52.4514 48.2074 53.6441C45.5462 55 42.0626 55 35.0952 55H19.9048C12.9374 55 9.45378 55 6.79262 53.6441C4.45179 52.4514 2.54864 50.5482 1.35593 48.2074C0 45.5462 0 42.0626 0 35.0952V19.9048Z" fill="#49021F"/>
<path d="M15 40.5726V14.3987H19.8285V40.5726H15ZM36.4354 13H40.8565V35.2525L41 40.5726H37.0469L36.8679 37.5823H36.7955C35.7527 39.6794 33.6337 41 31.0814 41C26.914 41 23.6079 37.1553 23.6079 31.3298C23.5715 25.0001 27.2365 21.2329 31.4415 21.2329C33.8495 21.2329 35.574 22.3204 36.3647 23.7186H36.4354V13ZM28.0986 31.1747C28.0986 34.6308 29.6801 37.1553 32.4843 37.1553C34.2808 37.1553 35.8606 35.8351 36.2923 33.7768C36.4003 33.3494 36.4354 32.8835 36.4354 32.3786V29.5438L36.3291 28.3011C35.933 26.4371 34.5321 24.9226 32.5194 24.9226C29.6801 24.9226 28.0986 27.6406 28.0986 31.1747Z" fill="#FF3366"/>
</svg>
