<svg width="213" height="24" viewBox="0 0 213 24" fill="none" xmlns="http://www.w3.org/2000/svg">
<path d="M3.39418 18.7243H0.428267L4.94744 5.63339H8.5142L13.027 18.7243H10.0611L6.78196 8.62487H6.67969L3.39418 18.7243ZM3.20881 13.5787H10.2145V15.7392H3.20881V13.5787ZM17.1724 18.8841C16.4266 18.8841 15.7512 18.6923 15.1461 18.3088C14.5452 17.921 14.068 17.3521 13.7143 16.6021C13.3648 15.8479 13.1901 14.9232 13.1901 13.828C13.1901 12.703 13.3712 11.7676 13.7334 11.0219C14.0957 10.2719 14.5772 9.71152 15.178 9.34078C15.7832 8.96578 16.4458 8.77828 17.166 8.77828C17.7157 8.77828 18.1738 8.87203 18.5403 9.05953C18.911 9.24277 19.2093 9.47288 19.4351 9.74987C19.6653 10.0226 19.84 10.2911 19.9593 10.5553H20.0424V5.63339H22.759V18.7243H20.0743V17.1519H19.9593C19.8314 17.4246 19.6503 17.6952 19.416 17.9637C19.1859 18.2279 18.8854 18.4473 18.5147 18.622C18.1482 18.7967 17.7008 18.8841 17.1724 18.8841ZM18.0353 16.7172C18.4742 16.7172 18.8449 16.5979 19.1475 16.3592C19.4543 16.1163 19.6887 15.7776 19.8506 15.3429C20.0168 14.9083 20.0999 14.399 20.0999 13.8152C20.0999 13.2314 20.0189 12.7243 19.857 12.2939C19.6951 11.8635 19.4607 11.5311 19.1539 11.2967C18.8471 11.0624 18.4742 10.9452 18.0353 10.9452C17.5878 10.9452 17.2107 11.0666 16.9039 11.3095C16.5971 11.5524 16.3648 11.8891 16.2072 12.3195C16.0495 12.7499 15.9707 13.2485 15.9707 13.8152C15.9707 14.3862 16.0495 14.8912 16.2072 15.3301C16.3691 15.7648 16.6013 16.1057 16.9039 16.3529C17.2107 16.5958 17.5878 16.7172 18.0353 16.7172ZM28.8939 18.9161C27.901 18.9161 27.0423 18.7051 26.3179 18.2833C25.5977 17.8571 25.0416 17.2648 24.6496 16.5063C24.2575 15.7435 24.0615 14.8592 24.0615 13.8536C24.0615 12.8394 24.2575 11.953 24.6496 11.1945C25.0416 10.4317 25.5977 9.83936 26.3179 9.41749C27.0423 8.99135 27.901 8.77828 28.8939 8.77828C29.8868 8.77828 30.7433 8.99135 31.4635 9.41749C32.1879 9.83936 32.7462 10.4317 33.1382 11.1945C33.5303 11.953 33.7263 12.8394 33.7263 13.8536C33.7263 14.8592 33.5303 15.7435 33.1382 16.5063C32.7462 17.2648 32.1879 17.8571 31.4635 18.2833C30.7433 18.7051 29.8868 18.9161 28.8939 18.9161ZM28.9067 16.8067C29.3584 16.8067 29.7355 16.6788 30.0381 16.4232C30.3406 16.1632 30.5686 15.8095 30.722 15.3621C30.8797 14.9146 30.9585 14.4054 30.9585 13.8344C30.9585 13.2634 30.8797 12.7541 30.722 12.3067C30.5686 11.8592 30.3406 11.5056 30.0381 11.2456C29.7355 10.9857 29.3584 10.8557 28.9067 10.8557C28.4507 10.8557 28.0672 10.9857 27.7561 11.2456C27.4493 11.5056 27.2171 11.8592 27.0594 12.3067C26.906 12.7541 26.8293 13.2634 26.8293 13.8344C26.8293 14.4054 26.906 14.9146 27.0594 15.3621C27.2171 15.8095 27.4493 16.1632 27.7561 16.4232C28.0672 16.6788 28.4507 16.8067 28.9067 16.8067ZM35.008 18.7243V5.63339H37.731V10.5553H37.8141C37.9334 10.2911 38.106 10.0226 38.3319 9.74987C38.562 9.47288 38.8603 9.24277 39.2268 9.05953C39.5975 8.87203 40.0577 8.77828 40.6075 8.77828C41.3234 8.77828 41.9839 8.96578 42.589 9.34078C43.1941 9.71152 43.6778 10.2719 44.04 11.0219C44.4022 11.7676 44.5833 12.703 44.5833 13.828C44.5833 14.9232 44.4065 15.8479 44.0528 16.6021C43.7033 17.3521 43.2261 17.921 42.6209 18.3088C42.0201 18.6923 41.3468 18.8841 40.6011 18.8841C40.0727 18.8841 39.6231 18.7967 39.2523 18.622C38.8859 18.4473 38.5854 18.2279 38.3511 17.9637C38.1167 17.6952 37.9377 17.4246 37.8141 17.1519H37.6927V18.7243H35.008ZM37.6735 13.8152C37.6735 14.399 37.7545 14.9083 37.9164 15.3429C38.0783 15.7776 38.3127 16.1163 38.6195 16.3592C38.9263 16.5979 39.2992 16.7172 39.7381 16.7172C40.1813 16.7172 40.5563 16.5958 40.8631 16.3529C41.17 16.1057 41.4022 15.7648 41.5599 15.3301C41.7218 14.8912 41.8028 14.3862 41.8028 13.8152C41.8028 13.2485 41.7239 12.7499 41.5663 12.3195C41.4086 11.8891 41.1763 11.5524 40.8695 11.3095C40.5627 11.0666 40.1856 10.9452 39.7381 10.9452C39.295 10.9452 38.92 11.0624 38.6131 11.2967C38.3106 11.5311 38.0783 11.8635 37.9164 12.2939C37.7545 12.7243 37.6735 13.2314 37.6735 13.8152ZM50.3347 18.9161C49.3247 18.9161 48.4554 18.7115 47.7267 18.3024C47.0023 17.8891 46.444 17.3053 46.052 16.551C45.66 15.7925 45.4639 14.8955 45.4639 13.86C45.4639 12.85 45.66 11.9637 46.052 11.2009C46.444 10.4381 46.9959 9.84362 47.7075 9.41749C48.4235 8.99135 49.2629 8.77828 50.226 8.77828C50.8737 8.77828 51.4767 8.88268 52.035 9.09149C52.5975 9.29604 53.0875 9.60499 53.5051 10.0183C53.927 10.4317 54.2551 10.9516 54.4895 11.578C54.7239 12.2002 54.8411 12.9288 54.8411 13.7641V14.5119H46.5506V12.8244H52.2779C52.2779 12.4324 52.1926 12.0851 52.0222 11.7825C51.8517 11.48 51.6152 11.2435 51.3127 11.073C51.0144 10.8983 50.6671 10.811 50.2708 10.811C49.8574 10.811 49.4909 10.9068 49.1713 11.0986C48.856 11.2861 48.6088 11.5396 48.4298 11.8592C48.2509 12.1746 48.1592 12.5262 48.155 12.9139V14.5183C48.155 15.0041 48.2445 15.4239 48.4235 15.7776C48.6067 16.1313 48.8645 16.404 49.1969 16.5958C49.5293 16.7875 49.9235 16.8834 50.3794 16.8834C50.682 16.8834 50.959 16.8408 51.2104 16.7556C51.4618 16.6703 51.677 16.5425 51.856 16.372C52.035 16.2016 52.1713 15.9928 52.2651 15.7456L54.7835 15.9118C54.6557 16.5169 54.3936 17.0453 53.9973 17.497C53.6053 17.9445 53.0982 18.2939 52.476 18.5453C51.8581 18.7925 51.1443 18.9161 50.3347 18.9161ZM59.7552 18.7243V5.63339H62.523V16.4423H68.1352V18.7243H59.7552ZM69.377 18.7243V8.90612H72.1V18.7243H69.377ZM70.7449 7.6405C70.34 7.6405 69.9927 7.50626 69.703 7.2378C69.4174 6.96507 69.2747 6.63908 69.2747 6.25981C69.2747 5.88481 69.4174 5.56308 69.703 5.29462C69.9927 5.02189 70.34 4.88553 70.7449 4.88553C71.1497 4.88553 71.4949 5.02189 71.7804 5.29462C72.0701 5.56308 72.215 5.88481 72.215 6.25981C72.215 6.63908 72.0701 6.96507 71.7804 7.2378C71.4949 7.50626 71.1497 7.6405 70.7449 7.6405ZM78.1646 22.6107C77.2825 22.6107 76.5261 22.4892 75.8954 22.2463C75.269 22.0077 74.7704 21.6817 74.3996 21.2683C74.0289 20.855 73.7881 20.3905 73.6773 19.8749L76.1958 19.5361C76.2725 19.7321 76.394 19.9154 76.5601 20.0858C76.7263 20.2563 76.9458 20.3926 77.2185 20.4949C77.4955 20.6014 77.8322 20.6547 78.2285 20.6547C78.8208 20.6547 79.3087 20.5098 79.6923 20.22C80.08 19.9345 80.2739 19.4551 80.2739 18.7818V16.9857H80.1589C80.0396 17.2584 79.8606 17.5162 79.6219 17.7591C79.3833 18.002 79.0765 18.2002 78.7015 18.3536C78.3265 18.507 77.879 18.5837 77.3592 18.5837C76.6219 18.5837 75.9508 18.4132 75.3457 18.0723C74.7448 17.7271 74.2654 17.2009 73.9075 16.4935C73.5538 15.7818 73.3769 14.8827 73.3769 13.796C73.3769 12.6838 73.558 11.7548 73.9202 11.0091C74.2825 10.2634 74.764 9.70513 75.3648 9.33439C75.97 8.96365 76.6326 8.77828 77.3528 8.77828C77.9025 8.77828 78.3627 8.87203 78.7334 9.05953C79.1042 9.24277 79.4025 9.47288 79.6283 9.74987C79.8584 10.0226 80.0353 10.2911 80.1589 10.5553H80.2611V8.90612H82.965V18.8202C82.965 19.6554 82.7604 20.3543 82.3513 20.9168C81.9423 21.4793 81.3755 21.9012 80.6511 22.1824C79.9309 22.4679 79.1021 22.6107 78.1646 22.6107ZM78.2221 16.5382C78.661 16.5382 79.0317 16.4296 79.3343 16.2122C79.6411 15.9906 79.8755 15.6753 80.0374 15.2662C80.2036 14.8529 80.2867 14.3585 80.2867 13.7833C80.2867 13.208 80.2057 12.7094 80.0438 12.2875C79.8819 11.8614 79.6475 11.5311 79.3407 11.2967C79.0339 11.0624 78.661 10.9452 78.2221 10.9452C77.7746 10.9452 77.3975 11.0666 77.0907 11.3095C76.7839 11.5482 76.5516 11.8806 76.394 12.3067C76.2363 12.7328 76.1575 13.225 76.1575 13.7833C76.1575 14.35 76.2363 14.8401 76.394 15.2534C76.5559 15.6625 76.7881 15.98 77.0907 16.2058C77.3975 16.4274 77.7746 16.5382 78.2221 16.5382ZM87.3149 13.0482V18.7243H84.5919V5.63339H87.2382V10.6384H87.3532C87.5748 10.0588 87.9328 9.60499 88.4271 9.27686C88.9214 8.94447 89.5415 8.77828 90.2872 8.77828C90.969 8.77828 91.5635 8.92743 92.0706 9.22572C92.5819 9.51976 92.9782 9.94376 93.2595 10.4977C93.545 11.0475 93.6856 11.7058 93.6814 12.4729V18.7243H90.9584V12.9587C90.9626 12.3536 90.8092 11.8827 90.4981 11.546C90.1913 11.2094 89.7609 11.0411 89.2069 11.0411C88.8362 11.0411 88.5081 11.1199 88.2226 11.2776C87.9413 11.4352 87.7197 11.6654 87.5578 11.9679C87.4001 12.2662 87.3192 12.6263 87.3149 13.0482ZM100.507 8.90612V10.9516H94.594V8.90612H100.507ZM95.9363 6.55385H98.6593V15.7073C98.6593 15.9587 98.6977 16.1547 98.7744 16.2953C98.8511 16.4317 98.9576 16.5276 99.094 16.583C99.2346 16.6384 99.3965 16.6661 99.5798 16.6661C99.7076 16.6661 99.8354 16.6554 99.9633 16.6341C100.091 16.6085 100.189 16.5894 100.257 16.5766L100.686 18.6029C100.549 18.6455 100.357 18.6945 100.11 18.7499C99.8631 18.8095 99.5627 18.8458 99.209 18.8585C98.5528 18.8841 97.9775 18.7967 97.4832 18.5965C96.9931 18.3962 96.6117 18.0851 96.339 17.6632C96.0663 17.2413 95.932 16.7087 95.9363 16.0652V6.55385ZM101.74 18.7243V8.90612H104.38V10.6192H104.483C104.662 10.0098 104.962 9.54959 105.384 9.23851C105.806 8.92317 106.292 8.7655 106.841 8.7655C106.978 8.7655 107.125 8.77402 107.282 8.79106C107.44 8.80811 107.578 8.83155 107.698 8.86138V11.2776C107.57 11.2392 107.393 11.2051 107.167 11.1753C106.941 11.1455 106.735 11.1306 106.547 11.1306C106.147 11.1306 105.789 11.2179 105.473 11.3926C105.162 11.5631 104.915 11.8017 104.732 12.1085C104.553 12.4154 104.463 12.769 104.463 13.1696V18.7243H101.74ZM112.545 18.9161C111.552 18.9161 110.693 18.7051 109.969 18.2833C109.249 17.8571 108.692 17.2648 108.3 16.5063C107.908 15.7435 107.712 14.8592 107.712 13.8536C107.712 12.8394 107.908 11.953 108.3 11.1945C108.692 10.4317 109.249 9.83936 109.969 9.41749C110.693 8.99135 111.552 8.77828 112.545 8.77828C113.538 8.77828 114.394 8.99135 115.114 9.41749C115.839 9.83936 116.397 10.4317 116.789 11.1945C117.181 11.953 117.377 12.8394 117.377 13.8536C117.377 14.8592 117.181 15.7435 116.789 16.5063C116.397 17.2648 115.839 17.8571 115.114 18.2833C114.394 18.7051 113.538 18.9161 112.545 18.9161ZM112.557 16.8067C113.009 16.8067 113.386 16.6788 113.689 16.4232C113.991 16.1632 114.219 15.8095 114.373 15.3621C114.53 14.9146 114.609 14.4054 114.609 13.8344C114.609 13.2634 114.53 12.7541 114.373 12.3067C114.219 11.8592 113.991 11.5056 113.689 11.2456C113.386 10.9857 113.009 10.8557 112.557 10.8557C112.101 10.8557 111.718 10.9857 111.407 11.2456C111.1 11.5056 110.868 11.8592 110.71 12.3067C110.557 12.7541 110.48 13.2634 110.48 13.8344C110.48 14.4054 110.557 14.9146 110.71 15.3621C110.868 15.8095 111.1 16.1632 111.407 16.4232C111.718 16.6788 112.101 16.8067 112.557 16.8067ZM123.044 18.9161C122.051 18.9161 121.192 18.7051 120.468 18.2833C119.748 17.8571 119.191 17.2648 118.799 16.5063C118.407 15.7435 118.211 14.8592 118.211 13.8536C118.211 12.8394 118.407 11.953 118.799 11.1945C119.191 10.4317 119.748 9.83936 120.468 9.41749C121.192 8.99135 122.051 8.77828 123.044 8.77828C124.037 8.77828 124.893 8.99135 125.613 9.41749C126.338 9.83936 126.896 10.4317 127.288 11.1945C127.68 11.953 127.876 12.8394 127.876 13.8536C127.876 14.8592 127.68 15.7435 127.288 16.5063C126.896 17.2648 126.338 17.8571 125.613 18.2833C124.893 18.7051 124.037 18.9161 123.044 18.9161ZM123.057 16.8067C123.508 16.8067 123.885 16.6788 124.188 16.4232C124.49 16.1632 124.718 15.8095 124.872 15.3621C125.03 14.9146 125.108 14.4054 125.108 13.8344C125.108 13.2634 125.03 12.7541 124.872 12.3067C124.718 11.8592 124.49 11.5056 124.188 11.2456C123.885 10.9857 123.508 10.8557 123.057 10.8557C122.601 10.8557 122.217 10.9857 121.906 11.2456C121.599 11.5056 121.367 11.8592 121.209 12.3067C121.056 12.7541 120.979 13.2634 120.979 13.8344C120.979 14.4054 121.056 14.9146 121.209 15.3621C121.367 15.8095 121.599 16.1632 121.906 16.4232C122.217 16.6788 122.601 16.8067 123.057 16.8067ZM129.107 18.7243V8.90612H131.702V10.6384H131.817C132.022 10.0631 132.362 9.60925 132.84 9.27686C133.317 8.94447 133.888 8.77828 134.553 8.77828C135.226 8.77828 135.799 8.94661 136.272 9.28325C136.745 9.61564 137.061 10.0673 137.218 10.6384H137.321C137.521 10.0759 137.883 9.62629 138.407 9.28964C138.936 8.94874 139.56 8.77828 140.28 8.77828C141.196 8.77828 141.94 9.07018 142.511 9.65399C143.086 10.2335 143.374 11.056 143.374 12.1213V18.7243H140.657V12.6583C140.657 12.1128 140.512 11.7037 140.222 11.431C139.933 11.1583 139.571 11.0219 139.136 11.0219C138.642 11.0219 138.256 11.1796 137.979 11.4949C137.702 11.806 137.563 12.2172 137.563 12.7286V18.7243H134.923V12.6007C134.923 12.1192 134.785 11.7357 134.508 11.4502C134.235 11.1646 133.875 11.0219 133.428 11.0219C133.125 11.0219 132.852 11.0986 132.61 11.252C132.371 11.4012 132.181 11.6121 132.041 11.8848C131.9 12.1533 131.83 12.4686 131.83 12.8308V18.7243H129.107Z" fill="white"/>
<rect x="154" width="58.2246" height="23.4486" rx="5.65027" fill="#37373B"/>
<path d="M168.709 15.8102C167.985 15.8102 167.357 15.6509 166.826 15.3323C166.295 15.0136 165.883 14.5678 165.59 13.9949C165.3 13.422 165.156 12.7525 165.156 11.9864C165.156 11.2204 165.3 10.5493 165.59 9.9731C165.883 9.39695 166.295 8.94955 166.826 8.6309C167.357 8.31224 167.985 8.15292 168.709 8.15292C169.433 8.15292 170.061 8.31224 170.592 8.6309C171.123 8.94955 171.533 9.39695 171.823 9.9731C172.116 10.5493 172.262 11.2204 172.262 11.9864C172.262 12.7525 172.116 13.422 171.823 13.9949C171.533 14.5678 171.123 15.0136 170.592 15.3323C170.061 15.6509 169.433 15.8102 168.709 15.8102ZM168.719 14.4101C169.111 14.4101 169.44 14.3023 169.704 14.0866C169.968 13.8678 170.164 13.5748 170.293 13.2079C170.425 12.841 170.491 12.4322 170.491 11.9816C170.491 11.5277 170.425 11.1174 170.293 10.7504C170.164 10.3803 169.968 10.0858 169.704 9.86688C169.44 9.64801 169.111 9.53857 168.719 9.53857C168.316 9.53857 167.982 9.64801 167.714 9.86688C167.45 10.0858 167.253 10.3803 167.121 10.7504C166.992 11.1174 166.927 11.5277 166.927 11.9816C166.927 12.4322 166.992 12.841 167.121 13.2079C167.253 13.5748 167.45 13.8678 167.714 14.0866C167.982 14.3023 168.316 14.4101 168.719 14.4101ZM174.814 11.3201V15.6654H173.066V8.24948H174.737V9.50961H174.824C174.994 9.09439 175.266 8.76447 175.639 8.51985C176.016 8.27523 176.481 8.15292 177.035 8.15292C177.547 8.15292 177.992 8.26235 178.372 8.48122C178.755 8.7001 179.051 9.01714 179.261 9.43236C179.473 9.84757 179.578 10.3513 179.574 10.9435V15.6654H177.827V11.2139C177.827 10.7182 177.698 10.3304 177.44 10.0504C177.186 9.77032 176.834 9.63031 176.383 9.63031C176.077 9.63031 175.805 9.6979 175.567 9.83309C175.332 9.96505 175.147 10.1566 175.012 10.4076C174.88 10.6587 174.814 10.9629 174.814 11.3201ZM182.419 5.7775V15.6654H180.671V5.7775H182.419ZM183.537 15.6654V8.24948H185.284V15.6654H183.537ZM184.415 7.19696C184.138 7.19696 183.9 7.10522 183.701 6.92176C183.501 6.73507 183.401 6.51137 183.401 6.25065C183.401 5.98672 183.501 5.76302 183.701 5.57955C183.9 5.39286 184.138 5.29952 184.415 5.29952C184.695 5.29952 184.933 5.39286 185.13 5.57955C185.329 5.76302 185.429 5.98672 185.429 6.25065C185.429 6.51137 185.329 6.73507 185.13 6.92176C184.933 7.10522 184.695 7.19696 184.415 7.19696ZM188.15 11.3201V15.6654H186.402V8.24948H188.072V9.50961H188.159C188.33 9.09439 188.602 8.76447 188.975 8.51985C189.352 8.27523 189.817 8.15292 190.37 8.15292C190.882 8.15292 191.328 8.26235 191.708 8.48122C192.091 8.7001 192.387 9.01714 192.596 9.43236C192.809 9.84757 192.913 10.3513 192.91 10.9435V15.6654H191.162V11.2139C191.162 10.7182 191.033 10.3304 190.776 10.0504C190.522 9.77032 190.169 9.63031 189.719 9.63031C189.413 9.63031 189.141 9.6979 188.903 9.83309C188.668 9.96505 188.483 10.1566 188.347 10.4076C188.215 10.6587 188.15 10.9629 188.15 11.3201ZM197.29 15.8102C196.546 15.8102 195.904 15.6557 195.364 15.3468C194.826 15.0345 194.412 14.5936 194.123 14.0239C193.833 13.4509 193.688 12.7766 193.688 12.0009C193.688 11.2381 193.833 10.5686 194.123 9.99241C194.416 9.41304 194.824 8.96242 195.349 8.64055C195.874 8.31546 196.49 8.15292 197.198 8.15292C197.655 8.15292 198.087 8.22695 198.492 8.37501C198.901 8.51985 199.261 8.74516 199.574 9.05094C199.889 9.35672 200.137 9.74618 200.317 10.2193C200.497 10.6893 200.588 11.2493 200.588 11.8995V12.4354H194.509V11.2574H198.912C198.909 10.9226 198.837 10.6249 198.695 10.3642C198.553 10.1002 198.355 9.89263 198.101 9.74135C197.85 9.59007 197.557 9.51443 197.222 9.51443C196.865 9.51443 196.551 9.60134 196.281 9.77515C196.011 9.94574 195.8 10.1711 195.648 10.4511C195.5 10.7279 195.425 11.0321 195.422 11.3636V12.392C195.422 12.8233 195.5 13.1934 195.658 13.5024C195.816 13.8082 196.036 14.0432 196.32 14.2073C196.603 14.3683 196.934 14.4487 197.314 14.4487C197.568 14.4487 197.799 14.4133 198.005 14.3425C198.211 14.2685 198.389 14.1607 198.54 14.019C198.692 13.8774 198.806 13.702 198.883 13.4928L200.515 13.6762C200.412 14.1075 200.216 14.4841 199.926 14.806C199.64 15.1247 199.273 15.3725 198.825 15.5495C198.378 15.7233 197.866 15.8102 197.29 15.8102Z" fill="white"/>
</svg>
