<svg width="208" height="24" viewBox="0 0 208 24" fill="none" xmlns="http://www.w3.org/2000/svg">
<path d="M3.39418 18.7243H0.428267L4.94744 5.63339H8.5142L13.027 18.7243H10.0611L6.78196 8.62487H6.67969L3.39418 18.7243ZM3.20881 13.5787H10.2145V15.7392H3.20881V13.5787ZM17.1724 18.8841C16.4266 18.8841 15.7512 18.6923 15.1461 18.3088C14.5452 17.921 14.068 17.3521 13.7143 16.6021C13.3648 15.8479 13.1901 14.9232 13.1901 13.828C13.1901 12.703 13.3712 11.7676 13.7334 11.0219C14.0957 10.2719 14.5772 9.71152 15.178 9.34078C15.7832 8.96578 16.4458 8.77828 17.166 8.77828C17.7157 8.77828 18.1738 8.87203 18.5403 9.05953C18.911 9.24277 19.2093 9.47288 19.4351 9.74987C19.6653 10.0226 19.84 10.2911 19.9593 10.5553H20.0424V5.63339H22.759V18.7243H20.0743V17.1519H19.9593C19.8314 17.4246 19.6503 17.6952 19.416 17.9637C19.1859 18.2279 18.8854 18.4473 18.5147 18.622C18.1482 18.7967 17.7008 18.8841 17.1724 18.8841ZM18.0353 16.7172C18.4742 16.7172 18.8449 16.5979 19.1475 16.3592C19.4543 16.1163 19.6887 15.7776 19.8506 15.3429C20.0168 14.9083 20.0999 14.399 20.0999 13.8152C20.0999 13.2314 20.0189 12.7243 19.857 12.2939C19.6951 11.8635 19.4607 11.5311 19.1539 11.2967C18.8471 11.0624 18.4742 10.9452 18.0353 10.9452C17.5878 10.9452 17.2107 11.0666 16.9039 11.3095C16.5971 11.5524 16.3648 11.8891 16.2072 12.3195C16.0495 12.7499 15.9707 13.2485 15.9707 13.8152C15.9707 14.3862 16.0495 14.8912 16.2072 15.3301C16.3691 15.7648 16.6013 16.1057 16.9039 16.3529C17.2107 16.5958 17.5878 16.7172 18.0353 16.7172ZM28.8939 18.9161C27.901 18.9161 27.0423 18.7051 26.3179 18.2833C25.5977 17.8571 25.0416 17.2648 24.6496 16.5063C24.2575 15.7435 24.0615 14.8592 24.0615 13.8536C24.0615 12.8394 24.2575 11.953 24.6496 11.1945C25.0416 10.4317 25.5977 9.83936 26.3179 9.41749C27.0423 8.99135 27.901 8.77828 28.8939 8.77828C29.8868 8.77828 30.7433 8.99135 31.4635 9.41749C32.1879 9.83936 32.7462 10.4317 33.1382 11.1945C33.5303 11.953 33.7263 12.8394 33.7263 13.8536C33.7263 14.8592 33.5303 15.7435 33.1382 16.5063C32.7462 17.2648 32.1879 17.8571 31.4635 18.2833C30.7433 18.7051 29.8868 18.9161 28.8939 18.9161ZM28.9067 16.8067C29.3584 16.8067 29.7355 16.6788 30.0381 16.4232C30.3406 16.1632 30.5686 15.8095 30.722 15.3621C30.8797 14.9146 30.9585 14.4054 30.9585 13.8344C30.9585 13.2634 30.8797 12.7541 30.722 12.3067C30.5686 11.8592 30.3406 11.5056 30.0381 11.2456C29.7355 10.9857 29.3584 10.8557 28.9067 10.8557C28.4507 10.8557 28.0672 10.9857 27.7561 11.2456C27.4493 11.5056 27.2171 11.8592 27.0594 12.3067C26.906 12.7541 26.8293 13.2634 26.8293 13.8344C26.8293 14.4054 26.906 14.9146 27.0594 15.3621C27.2171 15.8095 27.4493 16.1632 27.7561 16.4232C28.0672 16.6788 28.4507 16.8067 28.9067 16.8067ZM35.008 18.7243V5.63339H37.731V10.5553H37.8141C37.9334 10.2911 38.106 10.0226 38.3319 9.74987C38.562 9.47288 38.8603 9.24277 39.2268 9.05953C39.5975 8.87203 40.0577 8.77828 40.6075 8.77828C41.3234 8.77828 41.9839 8.96578 42.589 9.34078C43.1941 9.71152 43.6778 10.2719 44.04 11.0219C44.4022 11.7676 44.5833 12.703 44.5833 13.828C44.5833 14.9232 44.4065 15.8479 44.0528 16.6021C43.7033 17.3521 43.2261 17.921 42.6209 18.3088C42.0201 18.6923 41.3468 18.8841 40.6011 18.8841C40.0727 18.8841 39.6231 18.7967 39.2523 18.622C38.8859 18.4473 38.5854 18.2279 38.3511 17.9637C38.1167 17.6952 37.9377 17.4246 37.8141 17.1519H37.6927V18.7243H35.008ZM37.6735 13.8152C37.6735 14.399 37.7545 14.9083 37.9164 15.3429C38.0783 15.7776 38.3127 16.1163 38.6195 16.3592C38.9263 16.5979 39.2992 16.7172 39.7381 16.7172C40.1813 16.7172 40.5563 16.5958 40.8631 16.3529C41.17 16.1057 41.4022 15.7648 41.5599 15.3301C41.7218 14.8912 41.8028 14.3862 41.8028 13.8152C41.8028 13.2485 41.7239 12.7499 41.5663 12.3195C41.4086 11.8891 41.1763 11.5524 40.8695 11.3095C40.5627 11.0666 40.1856 10.9452 39.7381 10.9452C39.295 10.9452 38.92 11.0624 38.6131 11.2967C38.3106 11.5311 38.0783 11.8635 37.9164 12.2939C37.7545 12.7243 37.6735 13.2314 37.6735 13.8152ZM50.3347 18.9161C49.3247 18.9161 48.4554 18.7115 47.7267 18.3024C47.0023 17.8891 46.444 17.3053 46.052 16.551C45.66 15.7925 45.4639 14.8955 45.4639 13.86C45.4639 12.85 45.66 11.9637 46.052 11.2009C46.444 10.4381 46.9959 9.84362 47.7075 9.41749C48.4235 8.99135 49.2629 8.77828 50.226 8.77828C50.8737 8.77828 51.4767 8.88268 52.035 9.09149C52.5975 9.29604 53.0875 9.60499 53.5051 10.0183C53.927 10.4317 54.2551 10.9516 54.4895 11.578C54.7239 12.2002 54.8411 12.9288 54.8411 13.7641V14.5119H46.5506V12.8244H52.2779C52.2779 12.4324 52.1926 12.0851 52.0222 11.7825C51.8517 11.48 51.6152 11.2435 51.3127 11.073C51.0144 10.8983 50.6671 10.811 50.2708 10.811C49.8574 10.811 49.4909 10.9068 49.1713 11.0986C48.856 11.2861 48.6088 11.5396 48.4298 11.8592C48.2509 12.1746 48.1592 12.5262 48.155 12.9139V14.5183C48.155 15.0041 48.2445 15.4239 48.4235 15.7776C48.6067 16.1313 48.8645 16.404 49.1969 16.5958C49.5293 16.7875 49.9235 16.8834 50.3794 16.8834C50.682 16.8834 50.959 16.8408 51.2104 16.7556C51.4618 16.6703 51.677 16.5425 51.856 16.372C52.035 16.2016 52.1713 15.9928 52.2651 15.7456L54.7835 15.9118C54.6557 16.5169 54.3936 17.0453 53.9973 17.497C53.6053 17.9445 53.0982 18.2939 52.476 18.5453C51.8581 18.7925 51.1443 18.9161 50.3347 18.9161ZM62.523 5.63339V18.7243H59.7552V5.63339H62.523ZM66.932 5.63339V18.7243H64.209V5.63339H66.932ZM71.2963 5.63339V18.7243H68.5733V5.63339H71.2963ZM79.2337 14.5439V8.90612H81.9568V18.7243H79.3424V16.9409H79.2401C79.0186 17.5162 78.6499 17.9786 78.1343 18.328C77.623 18.6774 76.9987 18.8521 76.2614 18.8521C75.6052 18.8521 75.0278 18.703 74.5292 18.4047C74.0306 18.1064 73.6407 17.6824 73.3595 17.1327C73.0825 16.583 72.9418 15.9246 72.9376 15.1575V8.90612H75.6606V14.6717C75.6649 15.2513 75.8204 15.7094 76.1272 16.046C76.434 16.3827 76.8453 16.551 77.3609 16.551C77.689 16.551 77.9958 16.4764 78.2813 16.3273C78.5668 16.1739 78.797 15.948 78.9717 15.6497C79.1507 15.3514 79.238 14.9828 79.2337 14.5439ZM91.7639 11.7058L89.271 11.8592C89.2284 11.6462 89.1368 11.4544 88.9961 11.284C88.8555 11.1092 88.6701 10.9708 88.44 10.8685C88.2142 10.7619 87.9436 10.7087 87.6282 10.7087C87.2064 10.7087 86.8505 10.7982 86.5608 10.9771C86.271 11.1519 86.1261 11.3862 86.1261 11.6803C86.1261 11.9146 86.2198 12.1128 86.4073 12.2747C86.5948 12.4367 86.9166 12.5666 87.3725 12.6646L89.1495 13.0226C90.1041 13.2186 90.8157 13.534 91.2845 13.9686C91.7532 14.4033 91.9876 14.9743 91.9876 15.6817C91.9876 16.3252 91.798 16.8898 91.4187 17.3756C91.0437 17.8614 90.5281 18.2406 89.8718 18.5134C89.2198 18.7818 88.4677 18.9161 87.6154 18.9161C86.3157 18.9161 85.2802 18.6455 84.5089 18.1043C83.7419 17.5588 83.2923 16.8173 83.1602 15.8798L85.8385 15.7392C85.9194 16.1355 86.1154 16.4381 86.4265 16.6469C86.7376 16.8514 87.136 16.9537 87.6218 16.9537C88.0991 16.9537 88.4826 16.8621 88.7724 16.6788C89.0664 16.4913 89.2156 16.2506 89.2198 15.9565C89.2156 15.7094 89.1112 15.507 88.9066 15.3493C88.7021 15.1874 88.3868 15.0638 87.9606 14.9786L86.2603 14.6398C85.3015 14.448 84.5877 14.1156 84.119 13.6426C83.6545 13.1696 83.4223 12.5666 83.4223 11.8337C83.4223 11.203 83.5927 10.6597 83.9336 10.2037C84.2788 9.74774 84.7625 9.39618 85.3846 9.14902C86.011 8.90186 86.744 8.77828 87.5835 8.77828C88.8235 8.77828 89.7994 9.04036 90.511 9.5645C91.227 10.0887 91.6446 10.8024 91.7639 11.7058ZM98.3846 8.90612V10.9516H92.4719V8.90612H98.3846ZM93.8143 6.55385H96.5373V15.7073C96.5373 15.9587 96.5756 16.1547 96.6523 16.2953C96.729 16.4317 96.8356 16.5276 96.9719 16.583C97.1126 16.6384 97.2745 16.6661 97.4577 16.6661C97.5856 16.6661 97.7134 16.6554 97.8412 16.6341C97.9691 16.6085 98.0671 16.5894 98.1353 16.5766L98.5635 18.6029C98.4272 18.6455 98.2354 18.6945 97.9883 18.7499C97.7411 18.8095 97.4407 18.8458 97.087 18.8585C96.4307 18.8841 95.8555 18.7967 95.3611 18.5965C94.8711 18.3962 94.4897 18.0851 94.217 17.6632C93.9442 17.2413 93.81 16.7087 93.8143 16.0652V6.55385ZM99.6184 18.7243V8.90612H102.258V10.6192H102.361C102.54 10.0098 102.84 9.54959 103.262 9.23851C103.684 8.92317 104.169 8.7655 104.719 8.7655C104.856 8.7655 105.003 8.77402 105.16 8.79106C105.318 8.80811 105.456 8.83155 105.576 8.86138V11.2776C105.448 11.2392 105.271 11.2051 105.045 11.1753C104.819 11.1455 104.613 11.1306 104.425 11.1306C104.025 11.1306 103.667 11.2179 103.351 11.3926C103.04 11.5631 102.793 11.8017 102.61 12.1085C102.431 12.4154 102.341 12.769 102.341 13.1696V18.7243H99.6184ZM108.962 18.9097C108.336 18.9097 107.777 18.801 107.287 18.5837C106.797 18.3621 106.41 18.0361 106.124 17.6057C105.843 17.171 105.702 16.6298 105.702 15.9821C105.702 15.4367 105.802 14.9786 106.003 14.6078C106.203 14.2371 106.476 13.9388 106.821 13.7129C107.166 13.4871 107.558 13.3166 107.997 13.2016C108.44 13.0865 108.905 13.0056 109.39 12.9587C109.961 12.899 110.422 12.8436 110.771 12.7925C111.12 12.7371 111.374 12.6561 111.532 12.5496C111.689 12.4431 111.768 12.2854 111.768 12.0766V12.0382C111.768 11.6334 111.64 11.3202 111.385 11.0986C111.133 10.877 110.775 10.7662 110.311 10.7662C109.821 10.7662 109.431 10.8749 109.141 11.0922C108.851 11.3053 108.66 11.5737 108.566 11.8976L106.047 11.6931C106.175 11.0965 106.427 10.5808 106.802 10.1462C107.177 9.70726 107.66 9.37061 108.253 9.13624C108.849 8.8976 109.539 8.77828 110.324 8.77828C110.869 8.77828 111.391 8.8422 111.89 8.97004C112.392 9.09788 112.838 9.29604 113.226 9.5645C113.618 9.83297 113.927 10.1781 114.152 10.6C114.378 11.0176 114.491 11.5183 114.491 12.1021V18.7243H111.909V17.3628H111.832C111.674 17.6696 111.463 17.9402 111.199 18.1746C110.935 18.4047 110.618 18.5858 110.247 18.7179C109.876 18.8458 109.448 18.9097 108.962 18.9097ZM109.742 17.0304C110.142 17.0304 110.496 16.9516 110.803 16.7939C111.11 16.632 111.351 16.4146 111.525 16.1419C111.7 15.8692 111.787 15.5602 111.787 15.2151V14.1732C111.702 14.2286 111.585 14.2797 111.436 14.3266C111.291 14.3692 111.127 14.4097 110.944 14.448C110.76 14.4821 110.577 14.5141 110.394 14.5439C110.211 14.5695 110.044 14.5929 109.895 14.6142C109.576 14.6611 109.297 14.7357 109.058 14.8379C108.819 14.9402 108.634 15.0787 108.502 15.2534C108.37 15.4239 108.304 15.6369 108.304 15.8926C108.304 16.2634 108.438 16.5467 108.706 16.7428C108.979 16.9345 109.324 17.0304 109.742 17.0304ZM121.286 8.90612V10.9516H115.373V8.90612H121.286ZM116.716 6.55385H119.439V15.7073C119.439 15.9587 119.477 16.1547 119.554 16.2953C119.631 16.4317 119.737 16.5276 119.873 16.583C120.014 16.6384 120.176 16.6661 120.359 16.6661C120.487 16.6661 120.615 16.6554 120.743 16.6341C120.871 16.6085 120.969 16.5894 121.037 16.5766L121.465 18.6029C121.329 18.6455 121.137 18.6945 120.89 18.7499C120.643 18.8095 120.342 18.8458 119.988 18.8585C119.332 18.8841 118.757 18.7967 118.263 18.5965C117.773 18.3962 117.391 18.0851 117.118 17.6632C116.846 17.2413 116.711 16.7087 116.716 16.0652V6.55385ZM126.85 18.9161C125.858 18.9161 124.999 18.7051 124.274 18.2833C123.554 17.8571 122.998 17.2648 122.606 16.5063C122.214 15.7435 122.018 14.8592 122.018 13.8536C122.018 12.8394 122.214 11.953 122.606 11.1945C122.998 10.4317 123.554 9.83936 124.274 9.41749C124.999 8.99135 125.858 8.77828 126.85 8.77828C127.843 8.77828 128.7 8.99135 129.42 9.41749C130.144 9.83936 130.703 10.4317 131.095 11.1945C131.487 11.953 131.683 12.8394 131.683 13.8536C131.683 14.8592 131.487 15.7435 131.095 16.5063C130.703 17.2648 130.144 17.8571 129.42 18.2833C128.7 18.7051 127.843 18.9161 126.85 18.9161ZM126.863 16.8067C127.315 16.8067 127.692 16.6788 127.995 16.4232C128.297 16.1632 128.525 15.8095 128.679 15.3621C128.836 14.9146 128.915 14.4054 128.915 13.8344C128.915 13.2634 128.836 12.7541 128.679 12.3067C128.525 11.8592 128.297 11.5056 127.995 11.2456C127.692 10.9857 127.315 10.8557 126.863 10.8557C126.407 10.8557 126.024 10.9857 125.713 11.2456C125.406 11.5056 125.174 11.8592 125.016 12.3067C124.863 12.7541 124.786 13.2634 124.786 13.8344C124.786 14.4054 124.863 14.9146 125.016 15.3621C125.174 15.8095 125.406 16.1632 125.713 16.4232C126.024 16.6788 126.407 16.8067 126.863 16.8067ZM132.913 18.7243V8.90612H135.553V10.6192H135.656C135.835 10.0098 136.135 9.54959 136.557 9.23851C136.979 8.92317 137.465 8.7655 138.014 8.7655C138.151 8.7655 138.298 8.77402 138.455 8.79106C138.613 8.80811 138.752 8.83155 138.871 8.86138V11.2776C138.743 11.2392 138.566 11.2051 138.34 11.1753C138.114 11.1455 137.908 11.1306 137.72 11.1306C137.32 11.1306 136.962 11.2179 136.646 11.3926C136.335 11.5631 136.088 11.8017 135.905 12.1085C135.726 12.4154 135.636 12.769 135.636 13.1696V18.7243H132.913Z" fill="white"/>
<rect x="149" width="58.2246" height="23.4486" rx="5.65027" fill="#37373B"/>
<path d="M163.709 15.8102C162.985 15.8102 162.357 15.6509 161.826 15.3323C161.295 15.0136 160.883 14.5678 160.59 13.9949C160.3 13.422 160.156 12.7525 160.156 11.9864C160.156 11.2204 160.3 10.5493 160.59 9.9731C160.883 9.39695 161.295 8.94955 161.826 8.6309C162.357 8.31224 162.985 8.15292 163.709 8.15292C164.433 8.15292 165.061 8.31224 165.592 8.6309C166.123 8.94955 166.533 9.39695 166.823 9.9731C167.116 10.5493 167.262 11.2204 167.262 11.9864C167.262 12.7525 167.116 13.422 166.823 13.9949C166.533 14.5678 166.123 15.0136 165.592 15.3323C165.061 15.6509 164.433 15.8102 163.709 15.8102ZM163.719 14.4101C164.111 14.4101 164.44 14.3023 164.704 14.0866C164.968 13.8678 165.164 13.5748 165.293 13.2079C165.425 12.841 165.491 12.4322 165.491 11.9816C165.491 11.5277 165.425 11.1174 165.293 10.7504C165.164 10.3803 164.968 10.0858 164.704 9.86688C164.44 9.64801 164.111 9.53857 163.719 9.53857C163.316 9.53857 162.982 9.64801 162.714 9.86688C162.45 10.0858 162.253 10.3803 162.121 10.7504C161.992 11.1174 161.927 11.5277 161.927 11.9816C161.927 12.4322 161.992 12.841 162.121 13.2079C162.253 13.5748 162.45 13.8678 162.714 14.0866C162.982 14.3023 163.316 14.4101 163.719 14.4101ZM169.814 11.3201V15.6654H168.066V8.24948H169.737V9.50961H169.824C169.994 9.09439 170.266 8.76447 170.639 8.51985C171.016 8.27523 171.481 8.15292 172.035 8.15292C172.547 8.15292 172.992 8.26235 173.372 8.48122C173.755 8.7001 174.051 9.01714 174.261 9.43236C174.473 9.84757 174.578 10.3513 174.574 10.9435V15.6654H172.827V11.2139C172.827 10.7182 172.698 10.3304 172.44 10.0504C172.186 9.77032 171.834 9.63031 171.383 9.63031C171.077 9.63031 170.805 9.6979 170.567 9.83309C170.332 9.96505 170.147 10.1566 170.012 10.4076C169.88 10.6587 169.814 10.9629 169.814 11.3201ZM177.419 5.7775V15.6654H175.671V5.7775H177.419ZM178.537 15.6654V8.24948H180.284V15.6654H178.537ZM179.415 7.19696C179.138 7.19696 178.9 7.10522 178.701 6.92176C178.501 6.73507 178.401 6.51137 178.401 6.25065C178.401 5.98672 178.501 5.76302 178.701 5.57955C178.9 5.39286 179.138 5.29952 179.415 5.29952C179.695 5.29952 179.933 5.39286 180.13 5.57955C180.329 5.76302 180.429 5.98672 180.429 6.25065C180.429 6.51137 180.329 6.73507 180.13 6.92176C179.933 7.10522 179.695 7.19696 179.415 7.19696ZM183.15 11.3201V15.6654H181.402V8.24948H183.072V9.50961H183.159C183.33 9.09439 183.602 8.76447 183.975 8.51985C184.352 8.27523 184.817 8.15292 185.37 8.15292C185.882 8.15292 186.328 8.26235 186.708 8.48122C187.091 8.7001 187.387 9.01714 187.596 9.43236C187.809 9.84757 187.913 10.3513 187.91 10.9435V15.6654H186.162V11.2139C186.162 10.7182 186.033 10.3304 185.776 10.0504C185.522 9.77032 185.169 9.63031 184.719 9.63031C184.413 9.63031 184.141 9.6979 183.903 9.83309C183.668 9.96505 183.483 10.1566 183.347 10.4076C183.215 10.6587 183.15 10.9629 183.15 11.3201ZM192.29 15.8102C191.546 15.8102 190.904 15.6557 190.364 15.3468C189.826 15.0345 189.412 14.5936 189.123 14.0239C188.833 13.4509 188.688 12.7766 188.688 12.0009C188.688 11.2381 188.833 10.5686 189.123 9.99241C189.416 9.41304 189.824 8.96242 190.349 8.64055C190.874 8.31546 191.49 8.15292 192.198 8.15292C192.655 8.15292 193.087 8.22695 193.492 8.37501C193.901 8.51985 194.261 8.74516 194.574 9.05094C194.889 9.35672 195.137 9.74618 195.317 10.2193C195.497 10.6893 195.588 11.2493 195.588 11.8995V12.4354H189.509V11.2574H193.912C193.909 10.9226 193.837 10.6249 193.695 10.3642C193.553 10.1002 193.355 9.89263 193.101 9.74135C192.85 9.59007 192.557 9.51443 192.222 9.51443C191.865 9.51443 191.551 9.60134 191.281 9.77515C191.011 9.94574 190.8 10.1711 190.648 10.4511C190.5 10.7279 190.425 11.0321 190.422 11.3636V12.392C190.422 12.8233 190.5 13.1934 190.658 13.5024C190.816 13.8082 191.036 14.0432 191.32 14.2073C191.603 14.3683 191.934 14.4487 192.314 14.4487C192.568 14.4487 192.799 14.4133 193.005 14.3425C193.211 14.2685 193.389 14.1607 193.54 14.019C193.692 13.8774 193.806 13.702 193.883 13.4928L195.515 13.6762C195.412 14.1075 195.216 14.4841 194.926 14.806C194.64 15.1247 194.273 15.3725 193.825 15.5495C193.378 15.7233 192.866 15.8102 192.29 15.8102Z" fill="white"/>
</svg>
