<svg width="152" height="24" viewBox="0 0 152 24" fill="none" xmlns="http://www.w3.org/2000/svg">
<path d="M3.39418 18.7243H0.428267L4.94744 5.63339H8.5142L13.027 18.7243H10.0611L6.78196 8.62487H6.67969L3.39418 18.7243ZM3.20881 13.5787H10.2145V15.7392H3.20881V13.5787ZM14.0115 18.7243V8.90612H16.6514V10.6192H16.7537C16.9327 10.0098 17.2331 9.54959 17.655 9.23851C18.0768 8.92317 18.5626 8.7655 19.1123 8.7655C19.2487 8.7655 19.3957 8.77402 19.5534 8.79106C19.7111 8.80811 19.8496 8.83155 19.9689 8.86138V11.2776C19.841 11.2392 19.6642 11.2051 19.4383 11.1753C19.2125 11.1455 19.0058 11.1306 18.8183 11.1306C18.4177 11.1306 18.0598 11.2179 17.7444 11.3926C17.4334 11.5631 17.1862 11.8017 17.003 12.1085C16.824 12.4154 16.7345 12.769 16.7345 13.1696V18.7243H14.0115ZM24.8158 18.9161C23.8101 18.9161 22.945 18.703 22.2206 18.2769C21.5004 17.8465 20.9465 17.2499 20.5587 16.4871C20.1751 15.7243 19.9834 14.8465 19.9834 13.8536C19.9834 12.8479 20.1773 11.9658 20.5651 11.2073C20.9571 10.4445 21.5132 9.85001 22.2334 9.42388C22.9536 8.99348 23.8101 8.77828 24.803 8.77828C25.6595 8.77828 26.4095 8.93382 27.053 9.2449C27.6965 9.55598 28.2057 9.99277 28.5807 10.5553C28.9557 11.1178 29.1624 11.7783 29.2007 12.5368H26.6311C26.5587 12.0467 26.3669 11.6526 26.0558 11.3543C25.749 11.0517 25.3463 10.9004 24.8477 10.9004C24.4259 10.9004 24.0573 11.0155 23.7419 11.2456C23.4308 11.4715 23.1879 11.8017 23.0132 12.2364C22.8385 12.671 22.7511 13.1973 22.7511 13.8152C22.7511 14.4416 22.8364 14.9743 23.0068 15.4132C23.1815 15.8521 23.4266 16.1867 23.7419 16.4168C24.0573 16.6469 24.4259 16.7619 24.8477 16.7619C25.1588 16.7619 25.4379 16.698 25.6851 16.5702C25.9365 16.4423 26.1432 16.257 26.3051 16.0141C26.4713 15.7669 26.58 15.4708 26.6311 15.1256H29.2007C29.1581 15.8756 28.9536 16.5361 28.5871 17.1071C28.2249 17.6739 27.7242 18.1171 27.085 18.4367C26.4457 18.7563 25.6894 18.9161 24.8158 18.9161ZM33.1272 13.0482V18.7243H30.4041V5.63339H33.0505V10.6384H33.1655C33.3871 10.0588 33.7451 9.60499 34.2394 9.27686C34.7337 8.94447 35.3537 8.77828 36.0995 8.77828C36.7813 8.77828 37.3757 8.92743 37.8828 9.22572C38.3942 9.51976 38.7905 9.94376 39.0718 10.4977C39.3573 11.0475 39.4979 11.7058 39.4936 12.4729V18.7243H36.7706V12.9587C36.7749 12.3536 36.6215 11.8827 36.3104 11.546C36.0036 11.2094 35.5732 11.0411 35.0192 11.0411C34.6485 11.0411 34.3203 11.1199 34.0348 11.2776C33.7536 11.4352 33.532 11.6654 33.3701 11.9679C33.2124 12.2662 33.1314 12.6263 33.1272 13.0482ZM41.0966 18.7243V8.90612H43.8196V18.7243H41.0966ZM42.4645 7.6405C42.0596 7.6405 41.7123 7.50626 41.4226 7.2378C41.1371 6.96507 40.9943 6.63908 40.9943 6.25981C40.9943 5.88481 41.1371 5.56308 41.4226 5.29462C41.7123 5.02189 42.0596 4.88553 42.4645 4.88553C42.8693 4.88553 43.2145 5.02189 43.5 5.29462C43.7898 5.56308 43.9346 5.88481 43.9346 6.25981C43.9346 6.63908 43.7898 6.96507 43.5 7.2378C43.2145 7.50626 42.8693 7.6405 42.4645 7.6405ZM57.0624 10.2165H54.2627C54.2116 9.85428 54.1072 9.53254 53.9495 9.25129C53.7918 8.96578 53.5894 8.72288 53.3423 8.5226C53.0951 8.32231 52.8096 8.16891 52.4857 8.06237C52.1661 7.95584 51.8188 7.90257 51.4438 7.90257C50.7663 7.90257 50.1761 8.0709 49.6732 8.40754C49.1704 8.73993 48.7805 9.22572 48.5035 9.86493C48.2265 10.4999 48.088 11.2712 48.088 12.1788C48.088 13.1121 48.2265 13.8962 48.5035 14.5311C48.7847 15.1661 49.1768 15.6455 49.6796 15.9693C50.1825 16.2932 50.7641 16.4551 51.4246 16.4551C51.7954 16.4551 52.1384 16.4061 52.4538 16.3081C52.7734 16.2101 53.0567 16.0673 53.3039 15.8798C53.5511 15.6881 53.7556 15.4558 53.9175 15.1831C54.0837 14.9104 54.1988 14.5993 54.2627 14.2499L57.0624 14.2627C56.99 14.8635 56.8089 15.4431 56.5191 16.0013C56.2336 16.5553 55.8479 17.0517 55.3621 17.4906C54.8806 17.9253 54.3053 18.2705 53.6363 18.5262C52.9715 18.7776 52.2194 18.9033 51.3799 18.9033C50.2123 18.9033 49.1683 18.6391 48.2478 18.1107C47.3316 17.5823 46.6072 16.8173 46.0745 15.8159C45.5461 14.8145 45.2819 13.6021 45.2819 12.1788C45.2819 10.7513 45.5504 9.5368 46.0873 8.53538C46.6242 7.53396 47.3529 6.77118 48.2734 6.24703C49.1938 5.71862 50.2293 5.45442 51.3799 5.45442C52.1384 5.45442 52.8415 5.56095 53.4893 5.77402C54.1413 5.98709 54.7187 6.29817 55.2215 6.70726C55.7244 7.11209 56.1335 7.60854 56.4488 8.1966C56.7684 8.78467 56.9729 9.45797 57.0624 10.2165ZM60.5175 18.7243H57.5515L62.0707 5.63339H65.6375L70.1503 18.7243H67.1844L63.9052 8.62487H63.803L60.5175 18.7243ZM60.3321 13.5787H67.3378V15.7392H60.3321V13.5787ZM75.8265 18.7243H71.1859V5.63339H75.8649C77.1816 5.63339 78.3152 5.89547 79.2655 6.41962C80.2157 6.9395 80.9466 7.68737 81.4579 8.66322C81.9736 9.63908 82.2314 10.8067 82.2314 12.1661C82.2314 13.5297 81.9736 14.7016 81.4579 15.6817C80.9466 16.6618 80.2115 17.4139 79.2527 17.9381C78.2981 18.4622 77.1561 18.7243 75.8265 18.7243ZM73.9537 16.3529H75.7115C76.5297 16.3529 77.2179 16.208 77.7761 15.9182C78.3386 15.6242 78.7605 15.1703 79.0417 14.5567C79.3272 13.9388 79.47 13.1419 79.47 12.1661C79.47 11.1987 79.3272 10.4083 79.0417 9.79462C78.7605 9.18098 78.3407 8.72928 77.7825 8.4395C77.2243 8.14973 76.5361 8.00484 75.7179 8.00484H73.9537V16.3529Z" fill="white"/>
<rect x="93" width="58.2246" height="23.4486" rx="5.65027" fill="#37373B"/>
<path d="M107.709 15.8102C106.985 15.8102 106.357 15.6509 105.826 15.3323C105.295 15.0136 104.883 14.5678 104.59 13.9949C104.3 13.422 104.156 12.7525 104.156 11.9864C104.156 11.2204 104.3 10.5493 104.59 9.9731C104.883 9.39695 105.295 8.94955 105.826 8.6309C106.357 8.31224 106.985 8.15292 107.709 8.15292C108.433 8.15292 109.061 8.31224 109.592 8.6309C110.123 8.94955 110.533 9.39695 110.823 9.9731C111.116 10.5493 111.262 11.2204 111.262 11.9864C111.262 12.7525 111.116 13.422 110.823 13.9949C110.533 14.5678 110.123 15.0136 109.592 15.3323C109.061 15.6509 108.433 15.8102 107.709 15.8102ZM107.719 14.4101C108.111 14.4101 108.44 14.3023 108.704 14.0866C108.968 13.8678 109.164 13.5748 109.293 13.2079C109.425 12.841 109.491 12.4322 109.491 11.9816C109.491 11.5277 109.425 11.1174 109.293 10.7504C109.164 10.3803 108.968 10.0858 108.704 9.86688C108.44 9.64801 108.111 9.53857 107.719 9.53857C107.316 9.53857 106.982 9.64801 106.714 9.86688C106.45 10.0858 106.253 10.3803 106.121 10.7504C105.992 11.1174 105.927 11.5277 105.927 11.9816C105.927 12.4322 105.992 12.841 106.121 13.2079C106.253 13.5748 106.45 13.8678 106.714 14.0866C106.982 14.3023 107.316 14.4101 107.719 14.4101ZM113.814 11.3201V15.6654H112.066V8.24948H113.737V9.50961H113.824C113.994 9.09439 114.266 8.76447 114.639 8.51985C115.016 8.27523 115.481 8.15292 116.035 8.15292C116.547 8.15292 116.992 8.26235 117.372 8.48122C117.755 8.7001 118.051 9.01714 118.261 9.43236C118.473 9.84757 118.578 10.3513 118.574 10.9435V15.6654H116.827V11.2139C116.827 10.7182 116.698 10.3304 116.44 10.0504C116.186 9.77032 115.834 9.63031 115.383 9.63031C115.077 9.63031 114.805 9.6979 114.567 9.83309C114.332 9.96505 114.147 10.1566 114.012 10.4076C113.88 10.6587 113.814 10.9629 113.814 11.3201ZM121.419 5.7775V15.6654H119.671V5.7775H121.419ZM122.537 15.6654V8.24948H124.284V15.6654H122.537ZM123.415 7.19696C123.138 7.19696 122.9 7.10522 122.701 6.92176C122.501 6.73507 122.401 6.51137 122.401 6.25065C122.401 5.98672 122.501 5.76302 122.701 5.57955C122.9 5.39286 123.138 5.29952 123.415 5.29952C123.695 5.29952 123.933 5.39286 124.13 5.57955C124.329 5.76302 124.429 5.98672 124.429 6.25065C124.429 6.51137 124.329 6.73507 124.13 6.92176C123.933 7.10522 123.695 7.19696 123.415 7.19696ZM127.15 11.3201V15.6654H125.402V8.24948H127.072V9.50961H127.159C127.33 9.09439 127.602 8.76447 127.975 8.51985C128.352 8.27523 128.817 8.15292 129.37 8.15292C129.882 8.15292 130.328 8.26235 130.708 8.48122C131.091 8.7001 131.387 9.01714 131.596 9.43236C131.809 9.84757 131.913 10.3513 131.91 10.9435V15.6654H130.162V11.2139C130.162 10.7182 130.033 10.3304 129.776 10.0504C129.522 9.77032 129.169 9.63031 128.719 9.63031C128.413 9.63031 128.141 9.6979 127.903 9.83309C127.668 9.96505 127.483 10.1566 127.347 10.4076C127.215 10.6587 127.15 10.9629 127.15 11.3201ZM136.29 15.8102C135.546 15.8102 134.904 15.6557 134.364 15.3468C133.826 15.0345 133.412 14.5936 133.123 14.0239C132.833 13.4509 132.688 12.7766 132.688 12.0009C132.688 11.2381 132.833 10.5686 133.123 9.99241C133.416 9.41304 133.824 8.96242 134.349 8.64055C134.874 8.31546 135.49 8.15292 136.198 8.15292C136.655 8.15292 137.087 8.22695 137.492 8.37501C137.901 8.51985 138.261 8.74516 138.574 9.05094C138.889 9.35672 139.137 9.74618 139.317 10.2193C139.497 10.6893 139.588 11.2493 139.588 11.8995V12.4354H133.509V11.2574H137.912C137.909 10.9226 137.837 10.6249 137.695 10.3642C137.553 10.1002 137.355 9.89263 137.101 9.74135C136.85 9.59007 136.557 9.51443 136.222 9.51443C135.865 9.51443 135.551 9.60134 135.281 9.77515C135.011 9.94574 134.8 10.1711 134.648 10.4511C134.5 10.7279 134.425 11.0321 134.422 11.3636V12.392C134.422 12.8233 134.5 13.1934 134.658 13.5024C134.816 13.8082 135.036 14.0432 135.32 14.2073C135.603 14.3683 135.934 14.4487 136.314 14.4487C136.568 14.4487 136.799 14.4133 137.005 14.3425C137.211 14.2685 137.389 14.1607 137.54 14.019C137.692 13.8774 137.806 13.702 137.883 13.4928L139.515 13.6762C139.412 14.1075 139.216 14.4841 138.926 14.806C138.64 15.1247 138.273 15.3725 137.825 15.5495C137.378 15.7233 136.866 15.8102 136.29 15.8102Z" fill="white"/>
</svg>
