<svg width="148" height="24" viewBox="0 0 148 24" fill="none" xmlns="http://www.w3.org/2000/svg">
<path d="M3.39418 18.7243H0.428267L4.94744 5.63339H8.5142L13.027 18.7243H10.0611L6.78196 8.62487H6.67969L3.39418 18.7243ZM3.20881 13.5787H10.2145V15.7392H3.20881V13.5787ZM20.3077 14.5439V8.90612H23.0307V18.7243H20.4163V16.9409H20.314C20.0925 17.5162 19.7238 17.9786 19.2082 18.328C18.6969 18.6774 18.0726 18.8521 17.3354 18.8521C16.6791 18.8521 16.1017 18.703 15.6031 18.4047C15.1045 18.1064 14.7146 17.6824 14.4334 17.1327C14.1564 16.583 14.0158 15.9246 14.0115 15.1575V8.90612H16.7345V14.6717C16.7388 15.2513 16.8943 15.7094 17.2011 16.046C17.5079 16.3827 17.9192 16.551 18.4348 16.551C18.7629 16.551 19.0697 16.4764 19.3552 16.3273C19.6408 16.1739 19.8709 15.948 20.0456 15.6497C20.2246 15.3514 20.3119 14.9828 20.3077 14.5439ZM29.8911 8.90612V10.9516H23.9784V8.90612H29.8911ZM25.3207 6.55385H28.0438V15.7073C28.0438 15.9587 28.0821 16.1547 28.1588 16.2953C28.2355 16.4317 28.3421 16.5276 28.4784 16.583C28.619 16.6384 28.781 16.6661 28.9642 16.6661C29.0921 16.6661 29.2199 16.6554 29.3477 16.6341C29.4756 16.6085 29.5736 16.5894 29.6418 16.5766L30.07 18.6029C29.9337 18.6455 29.7419 18.6945 29.4948 18.7499C29.2476 18.8095 28.9472 18.8458 28.5935 18.8585C27.9372 18.8841 27.3619 18.7967 26.8676 18.5965C26.3776 18.3962 25.9962 18.0851 25.7234 17.6632C25.4507 17.2413 25.3165 16.7087 25.3207 16.0652V6.55385ZM35.4555 18.9161C34.4626 18.9161 33.6039 18.7051 32.8795 18.2833C32.1593 17.8571 31.6032 17.2648 31.2111 16.5063C30.8191 15.7435 30.6231 14.8592 30.6231 13.8536C30.6231 12.8394 30.8191 11.953 31.2111 11.1945C31.6032 10.4317 32.1593 9.83936 32.8795 9.41749C33.6039 8.99135 34.4626 8.77828 35.4555 8.77828C36.4484 8.77828 37.3049 8.99135 38.0251 9.41749C38.7495 9.83936 39.3077 10.4317 39.6998 11.1945C40.0918 11.953 40.2878 12.8394 40.2878 13.8536C40.2878 14.8592 40.0918 15.7435 39.6998 16.5063C39.3077 17.2648 38.7495 17.8571 38.0251 18.2833C37.3049 18.7051 36.4484 18.9161 35.4555 18.9161ZM35.4682 16.8067C35.9199 16.8067 36.2971 16.6788 36.5996 16.4232C36.9022 16.1632 37.1302 15.8095 37.2836 15.3621C37.4413 14.9146 37.5201 14.4054 37.5201 13.8344C37.5201 13.2634 37.4413 12.7541 37.2836 12.3067C37.1302 11.8592 36.9022 11.5056 36.5996 11.2456C36.2971 10.9857 35.9199 10.8557 35.4682 10.8557C35.0123 10.8557 34.6288 10.9857 34.3177 11.2456C34.0109 11.5056 33.7786 11.8592 33.6209 12.3067C33.4675 12.7541 33.3908 13.2634 33.3908 13.8344C33.3908 14.4054 33.4675 14.9146 33.6209 15.3621C33.7786 15.8095 34.0109 16.1632 34.3177 16.4232C34.6288 16.6788 35.0123 16.8067 35.4682 16.8067ZM53.12 10.2165H50.3203C50.2692 9.85428 50.1648 9.53254 50.0071 9.25129C49.8494 8.96578 49.647 8.72288 49.3998 8.5226C49.1527 8.32231 48.8672 8.16891 48.5433 8.06237C48.2237 7.95584 47.8764 7.90257 47.5014 7.90257C46.8238 7.90257 46.2336 8.0709 45.7308 8.40754C45.228 8.73993 44.838 9.22572 44.5611 9.86493C44.2841 10.4999 44.1456 11.2712 44.1456 12.1788C44.1456 13.1121 44.2841 13.8962 44.5611 14.5311C44.8423 15.1661 45.2344 15.6455 45.7372 15.9693C46.24 16.2932 46.8217 16.4551 47.4822 16.4551C47.853 16.4551 48.196 16.4061 48.5113 16.3081C48.8309 16.2101 49.1143 16.0673 49.3615 15.8798C49.6086 15.6881 49.8132 15.4558 49.9751 15.1831C50.1413 14.9104 50.2564 14.5993 50.3203 14.2499L53.12 14.2627C53.0476 14.8635 52.8665 15.4431 52.5767 16.0013C52.2912 16.5553 51.9055 17.0517 51.4197 17.4906C50.9382 17.9253 50.3629 18.2705 49.6939 18.5262C49.0291 18.7776 48.277 18.9033 47.4375 18.9033C46.2699 18.9033 45.2258 18.6391 44.3054 18.1107C43.3892 17.5823 42.6648 16.8173 42.1321 15.8159C41.6037 14.8145 41.3395 13.6021 41.3395 12.1788C41.3395 10.7513 41.6079 9.5368 42.1449 8.53538C42.6818 7.53396 43.4105 6.77118 44.3309 6.24703C45.2514 5.71862 46.2869 5.45442 47.4375 5.45442C48.196 5.45442 48.8991 5.56095 49.5469 5.77402C50.1988 5.98709 50.7763 6.29817 51.2791 6.70726C51.7819 7.11209 52.191 7.60854 52.5064 8.1966C52.826 8.78467 53.0305 9.45797 53.12 10.2165ZM56.575 18.7243H53.6091L58.1283 5.63339H61.6951L66.2078 18.7243H63.2419L59.9628 8.62487H59.8605L56.575 18.7243ZM56.3897 13.5787H63.3953V15.7392H56.3897V13.5787ZM71.8841 18.7243H67.2435V5.63339H71.9225C73.2392 5.63339 74.3728 5.89547 75.323 6.41962C76.2733 6.9395 77.0041 7.68737 77.5155 8.66322C78.0311 9.63908 78.2889 10.8067 78.2889 12.1661C78.2889 13.5297 78.0311 14.7016 77.5155 15.6817C77.0041 16.6618 76.2691 17.4139 75.3103 17.9381C74.3557 18.4622 73.2137 18.7243 71.8841 18.7243ZM70.0112 16.3529H71.7691C72.5872 16.3529 73.2754 16.208 73.8337 15.9182C74.3962 15.6242 74.8181 15.1703 75.0993 14.5567C75.3848 13.9388 75.5276 13.1419 75.5276 12.1661C75.5276 11.1987 75.3848 10.4083 75.0993 9.79462C74.8181 9.18098 74.3983 8.72928 73.8401 8.4395C73.2818 8.14973 72.5936 8.00484 71.7754 8.00484H70.0112V16.3529Z" fill="white"/>
<rect x="89" width="58.2246" height="23.4486" rx="5.65027" fill="#37373B"/>
<path d="M103.709 15.8102C102.985 15.8102 102.357 15.6509 101.826 15.3323C101.295 15.0136 100.883 14.5678 100.59 13.9949C100.3 13.422 100.156 12.7525 100.156 11.9864C100.156 11.2204 100.3 10.5493 100.59 9.9731C100.883 9.39695 101.295 8.94955 101.826 8.6309C102.357 8.31224 102.985 8.15292 103.709 8.15292C104.433 8.15292 105.061 8.31224 105.592 8.6309C106.123 8.94955 106.533 9.39695 106.823 9.9731C107.116 10.5493 107.262 11.2204 107.262 11.9864C107.262 12.7525 107.116 13.422 106.823 13.9949C106.533 14.5678 106.123 15.0136 105.592 15.3323C105.061 15.6509 104.433 15.8102 103.709 15.8102ZM103.719 14.4101C104.111 14.4101 104.44 14.3023 104.704 14.0866C104.968 13.8678 105.164 13.5748 105.293 13.2079C105.425 12.841 105.491 12.4322 105.491 11.9816C105.491 11.5277 105.425 11.1174 105.293 10.7504C105.164 10.3803 104.968 10.0858 104.704 9.86688C104.44 9.64801 104.111 9.53857 103.719 9.53857C103.316 9.53857 102.982 9.64801 102.714 9.86688C102.45 10.0858 102.253 10.3803 102.121 10.7504C101.992 11.1174 101.927 11.5277 101.927 11.9816C101.927 12.4322 101.992 12.841 102.121 13.2079C102.253 13.5748 102.45 13.8678 102.714 14.0866C102.982 14.3023 103.316 14.4101 103.719 14.4101ZM109.814 11.3201V15.6654H108.066V8.24948H109.737V9.50961H109.824C109.994 9.09439 110.266 8.76447 110.639 8.51985C111.016 8.27523 111.481 8.15292 112.035 8.15292C112.547 8.15292 112.992 8.26235 113.372 8.48122C113.755 8.7001 114.051 9.01714 114.261 9.43236C114.473 9.84757 114.578 10.3513 114.574 10.9435V15.6654H112.827V11.2139C112.827 10.7182 112.698 10.3304 112.44 10.0504C112.186 9.77032 111.834 9.63031 111.383 9.63031C111.077 9.63031 110.805 9.6979 110.567 9.83309C110.332 9.96505 110.147 10.1566 110.012 10.4076C109.88 10.6587 109.814 10.9629 109.814 11.3201ZM117.419 5.7775V15.6654H115.671V5.7775H117.419ZM118.537 15.6654V8.24948H120.284V15.6654H118.537ZM119.415 7.19696C119.138 7.19696 118.9 7.10522 118.701 6.92176C118.501 6.73507 118.401 6.51137 118.401 6.25065C118.401 5.98672 118.501 5.76302 118.701 5.57955C118.9 5.39286 119.138 5.29952 119.415 5.29952C119.695 5.29952 119.933 5.39286 120.13 5.57955C120.329 5.76302 120.429 5.98672 120.429 6.25065C120.429 6.51137 120.329 6.73507 120.13 6.92176C119.933 7.10522 119.695 7.19696 119.415 7.19696ZM123.15 11.3201V15.6654H121.402V8.24948H123.072V9.50961H123.159C123.33 9.09439 123.602 8.76447 123.975 8.51985C124.352 8.27523 124.817 8.15292 125.37 8.15292C125.882 8.15292 126.328 8.26235 126.708 8.48122C127.091 8.7001 127.387 9.01714 127.596 9.43236C127.809 9.84757 127.913 10.3513 127.91 10.9435V15.6654H126.162V11.2139C126.162 10.7182 126.033 10.3304 125.776 10.0504C125.522 9.77032 125.169 9.63031 124.719 9.63031C124.413 9.63031 124.141 9.6979 123.903 9.83309C123.668 9.96505 123.483 10.1566 123.347 10.4076C123.215 10.6587 123.15 10.9629 123.15 11.3201ZM132.29 15.8102C131.546 15.8102 130.904 15.6557 130.364 15.3468C129.826 15.0345 129.412 14.5936 129.123 14.0239C128.833 13.4509 128.688 12.7766 128.688 12.0009C128.688 11.2381 128.833 10.5686 129.123 9.99241C129.416 9.41304 129.824 8.96242 130.349 8.64055C130.874 8.31546 131.49 8.15292 132.198 8.15292C132.655 8.15292 133.087 8.22695 133.492 8.37501C133.901 8.51985 134.261 8.74516 134.574 9.05094C134.889 9.35672 135.137 9.74618 135.317 10.2193C135.497 10.6893 135.588 11.2493 135.588 11.8995V12.4354H129.509V11.2574H133.912C133.909 10.9226 133.837 10.6249 133.695 10.3642C133.553 10.1002 133.355 9.89263 133.101 9.74135C132.85 9.59007 132.557 9.51443 132.222 9.51443C131.865 9.51443 131.551 9.60134 131.281 9.77515C131.011 9.94574 130.8 10.1711 130.648 10.4511C130.5 10.7279 130.425 11.0321 130.422 11.3636V12.392C130.422 12.8233 130.5 13.1934 130.658 13.5024C130.816 13.8082 131.036 14.0432 131.32 14.2073C131.603 14.3683 131.934 14.4487 132.314 14.4487C132.568 14.4487 132.799 14.4133 133.005 14.3425C133.211 14.2685 133.389 14.1607 133.54 14.019C133.692 13.8774 133.806 13.702 133.883 13.4928L135.515 13.6762C135.412 14.1075 135.216 14.4841 134.926 14.806C134.64 15.1247 134.273 15.3725 133.825 15.5495C133.378 15.7233 132.866 15.8102 132.29 15.8102Z" fill="white"/>
</svg>
