<svg width="111" height="24" viewBox="0 0 111 24" fill="none" xmlns="http://www.w3.org/2000/svg">
<path d="M1.13778 18.7243V5.63339H6.30256C7.29119 5.63339 8.13494 5.81024 8.83381 6.16393C9.53693 6.51337 10.0717 7.00982 10.4382 7.65328C10.8089 8.29249 10.9943 9.04462 10.9943 9.90967C10.9943 10.779 10.8068 11.5269 10.4318 12.1533C10.0568 12.7754 9.51349 13.2527 8.80185 13.5851C8.09446 13.9175 7.23793 14.0837 6.23224 14.0837H2.77415V11.8592H5.7848C6.31321 11.8592 6.75213 11.7868 7.10156 11.6419C7.45099 11.497 7.71094 11.2797 7.88139 10.9899C8.05611 10.7002 8.14347 10.3401 8.14347 9.90967C8.14347 9.47501 8.05611 9.10854 7.88139 8.81024C7.71094 8.51195 7.44886 8.28609 7.09517 8.13268C6.74574 7.97501 6.30469 7.89618 5.77202 7.89618H3.90554V18.7243H1.13778ZM8.20739 12.7669L11.4609 18.7243H8.40554L5.2223 12.7669H8.20739ZM16.6754 18.9161C15.6654 18.9161 14.7961 18.7115 14.0674 18.3024C13.343 17.8891 12.7848 17.3053 12.3927 16.551C12.0007 15.7925 11.8046 14.8955 11.8046 13.86C11.8046 12.85 12.0007 11.9637 12.3927 11.2009C12.7848 10.4381 13.3366 9.84362 14.0482 9.41749C14.7642 8.99135 15.6036 8.77828 16.5667 8.77828C17.2144 8.77828 17.8174 8.88268 18.3757 9.09149C18.9382 9.29604 19.4282 9.60499 19.8458 10.0183C20.2677 10.4317 20.5958 10.9516 20.8302 11.578C21.0646 12.2002 21.1818 12.9288 21.1818 13.7641V14.5119H12.8913V12.8244H18.6186C18.6186 12.4324 18.5333 12.0851 18.3629 11.7825C18.1924 11.48 17.9559 11.2435 17.6534 11.073C17.3551 10.8983 17.0078 10.811 16.6115 10.811C16.1981 10.811 15.8316 10.9068 15.512 11.0986C15.1967 11.2861 14.9495 11.5396 14.7705 11.8592C14.5916 12.1746 14.5 12.5262 14.4957 12.9139V14.5183C14.4957 15.0041 14.5852 15.4239 14.7642 15.7776C14.9474 16.1313 15.2052 16.404 15.5376 16.5958C15.87 16.7875 16.2642 16.8834 16.7201 16.8834C17.0227 16.8834 17.2997 16.8408 17.5511 16.7556C17.8025 16.6703 18.0177 16.5425 18.1967 16.372C18.3757 16.2016 18.512 15.9928 18.6058 15.7456L21.1242 15.9118C20.9964 16.5169 20.7343 17.0453 20.338 17.497C19.946 17.9445 19.4389 18.2939 18.8167 18.5453C18.1988 18.7925 17.485 18.9161 16.6754 18.9161ZM31.3085 8.90612L27.876 18.7243H24.8078L21.3753 8.90612H24.2517L26.2907 15.931H26.393L28.4257 8.90612H31.3085ZM32.162 18.7243V8.90612H34.885V18.7243H32.162ZM33.5299 7.6405C33.125 7.6405 32.7777 7.50626 32.488 7.2378C32.2024 6.96507 32.0597 6.63908 32.0597 6.25981C32.0597 5.88481 32.2024 5.56308 32.488 5.29462C32.7777 5.02189 33.125 4.88553 33.5299 4.88553C33.9347 4.88553 34.2799 5.02189 34.5654 5.29462C34.8551 5.56308 35 5.88481 35 6.25981C35 6.63908 34.8551 6.96507 34.5654 7.2378C34.2799 7.50626 33.9347 7.6405 33.5299 7.6405ZM41.7486 8.90612V10.9516H35.8359V8.90612H41.7486ZM37.1782 6.55385H39.9013V15.7073C39.9013 15.9587 39.9396 16.1547 40.0163 16.2953C40.093 16.4317 40.1996 16.5276 40.3359 16.583C40.4765 16.6384 40.6385 16.6661 40.8217 16.6661C40.9496 16.6661 41.0774 16.6554 41.2052 16.6341C41.3331 16.6085 41.4311 16.5894 41.4993 16.5766L41.9275 18.6029C41.7912 18.6455 41.5994 18.6945 41.3523 18.7499C41.1051 18.8095 40.8047 18.8458 40.451 18.8585C39.7947 18.8841 39.2194 18.7967 38.7251 18.5965C38.2351 18.3962 37.8537 18.0851 37.5809 17.6632C37.3082 17.2413 37.174 16.7087 37.1782 16.0652V6.55385Z" fill="white"/>
<rect x="52" width="58.2246" height="23.4486" rx="5.65027" fill="#37373B"/>
<path d="M66.709 15.8102C65.9848 15.8102 65.3571 15.6509 64.8261 15.3323C64.295 15.0136 63.883 14.5678 63.5901 13.9949C63.3004 13.422 63.1555 12.7525 63.1555 11.9864C63.1555 11.2204 63.3004 10.5493 63.5901 9.9731C63.883 9.39695 64.295 8.94955 64.8261 8.6309C65.3571 8.31224 65.9848 8.15292 66.709 8.15292C67.4332 8.15292 68.0609 8.31224 68.592 8.6309C69.123 8.94955 69.5334 9.39695 69.8231 9.9731C70.116 10.5493 70.2625 11.2204 70.2625 11.9864C70.2625 12.7525 70.116 13.422 69.8231 13.9949C69.5334 14.5678 69.123 15.0136 68.592 15.3323C68.0609 15.6509 67.4332 15.8102 66.709 15.8102ZM66.7187 14.4101C67.1113 14.4101 67.4397 14.3023 67.7036 14.0866C67.9675 13.8678 68.1639 13.5748 68.2926 13.2079C68.4246 12.841 68.4906 12.4322 68.4906 11.9816C68.4906 11.5277 68.4246 11.1174 68.2926 10.7504C68.1639 10.3803 67.9675 10.0858 67.7036 9.86688C67.4397 9.64801 67.1113 9.53857 66.7187 9.53857C66.3163 9.53857 65.9816 9.64801 65.7144 9.86688C65.4505 10.0858 65.2525 10.3803 65.1206 10.7504C64.9918 11.1174 64.9274 11.5277 64.9274 11.9816C64.9274 12.4322 64.9918 12.841 65.1206 13.2079C65.2525 13.5748 65.4505 13.8678 65.7144 14.0866C65.9816 14.3023 66.3163 14.4101 66.7187 14.4101ZM72.8139 11.3201V15.6654H71.0661V8.24948H72.7366V9.50961H72.8235C72.9941 9.09439 73.2661 8.76447 73.6395 8.51985C74.0161 8.27523 74.4812 8.15292 75.0348 8.15292C75.5466 8.15292 75.9924 8.26235 76.3722 8.48122C76.7552 8.7001 77.0513 9.01714 77.2605 9.43236C77.473 9.84757 77.5776 10.3513 77.5744 10.9435V15.6654H75.8266V11.2139C75.8266 10.7182 75.6978 10.3304 75.4403 10.0504C75.1861 9.77032 74.8336 9.63031 74.383 9.63031C74.0772 9.63031 73.8052 9.6979 73.567 9.83309C73.3321 9.96505 73.147 10.1566 73.0118 10.4076C72.8799 10.6587 72.8139 10.9629 72.8139 11.3201ZM80.4191 5.7775V15.6654H78.6713V5.7775H80.4191ZM81.5365 15.6654V8.24948H83.2843V15.6654H81.5365ZM82.4152 7.19696C82.1384 7.19696 81.9002 7.10522 81.7007 6.92176C81.5011 6.73507 81.4013 6.51137 81.4013 6.25065C81.4013 5.98672 81.5011 5.76302 81.7007 5.57955C81.9002 5.39286 82.1384 5.29952 82.4152 5.29952C82.6953 5.29952 82.9334 5.39286 83.1298 5.57955C83.3293 5.76302 83.4291 5.98672 83.4291 6.25065C83.4291 6.51137 83.3293 6.73507 83.1298 6.92176C82.9334 7.10522 82.6953 7.19696 82.4152 7.19696ZM86.1495 11.3201V15.6654H84.4017V8.24948H86.0723V9.50961H86.1592C86.3298 9.09439 86.6017 8.76447 86.9751 8.51985C87.3517 8.27523 87.8168 8.15292 88.3704 8.15292C88.8822 8.15292 89.328 8.26235 89.7078 8.48122C90.0908 8.7001 90.3869 9.01714 90.5962 9.43236C90.8086 9.84757 90.9132 10.3513 90.91 10.9435V15.6654H89.1622V11.2139C89.1622 10.7182 89.0335 10.3304 88.776 10.0504C88.5217 9.77032 88.1692 9.63031 87.7186 9.63031C87.4128 9.63031 87.1409 9.6979 86.9027 9.83309C86.6677 9.96505 86.4826 10.1566 86.3475 10.4076C86.2155 10.6587 86.1495 10.9629 86.1495 11.3201ZM95.29 15.8102C94.5465 15.8102 93.9044 15.6557 93.3636 15.3468C92.8261 15.0345 92.4125 14.5936 92.1228 14.0239C91.8331 13.4509 91.6883 12.7766 91.6883 12.0009C91.6883 11.2381 91.8331 10.5686 92.1228 9.99241C92.4157 9.41304 92.8245 8.96242 93.3491 8.64055C93.8738 8.31546 94.4902 8.15292 95.1983 8.15292C95.6553 8.15292 96.0867 8.22695 96.4922 8.37501C96.901 8.51985 97.2615 8.74516 97.5737 9.05094C97.8891 9.35672 98.137 9.74618 98.3172 10.2193C98.4975 10.6893 98.5876 11.2493 98.5876 11.8995V12.4354H92.509V11.2574H96.9123C96.909 10.9226 96.8366 10.6249 96.695 10.3642C96.5534 10.1002 96.3554 9.89263 96.1011 9.74135C95.8501 9.59007 95.5572 9.51443 95.2224 9.51443C94.8651 9.51443 94.5513 9.60134 94.281 9.77515C94.0106 9.94574 93.7998 10.1711 93.6485 10.4511C93.5004 10.7279 93.4248 11.0321 93.4216 11.3636V12.392C93.4216 12.8233 93.5004 13.1934 93.6581 13.5024C93.8158 13.8082 94.0363 14.0432 94.3196 14.2073C94.6028 14.3683 94.9344 14.4487 95.3142 14.4487C95.5684 14.4487 95.7986 14.4133 96.0046 14.3425C96.2106 14.2685 96.3892 14.1607 96.5405 14.019C96.6918 13.8774 96.806 13.702 96.8833 13.4928L98.5152 13.6762C98.4122 14.1075 98.2158 14.4841 97.9262 14.806C97.6397 15.1247 97.2727 15.3725 96.8253 15.5495C96.3779 15.7233 95.8662 15.8102 95.29 15.8102Z" fill="white"/>
</svg>
