<svg width="201" height="24" viewBox="0 0 201 24" fill="none" xmlns="http://www.w3.org/2000/svg">
<path d="M3.39418 18.7243H0.428267L4.94744 5.63339H8.5142L13.027 18.7243H10.0611L6.78196 8.62487H6.67969L3.39418 18.7243ZM3.20881 13.5787H10.2145V15.7392H3.20881V13.5787ZM17.1724 18.8841C16.4266 18.8841 15.7512 18.6923 15.1461 18.3088C14.5452 17.921 14.068 17.3521 13.7143 16.6021C13.3648 15.8479 13.1901 14.9232 13.1901 13.828C13.1901 12.703 13.3712 11.7676 13.7334 11.0219C14.0957 10.2719 14.5772 9.71152 15.178 9.34078C15.7832 8.96578 16.4458 8.77828 17.166 8.77828C17.7157 8.77828 18.1738 8.87203 18.5403 9.05953C18.911 9.24277 19.2093 9.47288 19.4351 9.74987C19.6653 10.0226 19.84 10.2911 19.9593 10.5553H20.0424V5.63339H22.759V18.7243H20.0743V17.1519H19.9593C19.8314 17.4246 19.6503 17.6952 19.416 17.9637C19.1859 18.2279 18.8854 18.4473 18.5147 18.622C18.1482 18.7967 17.7008 18.8841 17.1724 18.8841ZM18.0353 16.7172C18.4742 16.7172 18.8449 16.5979 19.1475 16.3592C19.4543 16.1163 19.6887 15.7776 19.8506 15.3429C20.0168 14.9083 20.0999 14.399 20.0999 13.8152C20.0999 13.2314 20.0189 12.7243 19.857 12.2939C19.6951 11.8635 19.4607 11.5311 19.1539 11.2967C18.8471 11.0624 18.4742 10.9452 18.0353 10.9452C17.5878 10.9452 17.2107 11.0666 16.9039 11.3095C16.5971 11.5524 16.3648 11.8891 16.2072 12.3195C16.0495 12.7499 15.9707 13.2485 15.9707 13.8152C15.9707 14.3862 16.0495 14.8912 16.2072 15.3301C16.3691 15.7648 16.6013 16.1057 16.9039 16.3529C17.2107 16.5958 17.5878 16.7172 18.0353 16.7172ZM28.8939 18.9161C27.901 18.9161 27.0423 18.7051 26.3179 18.2833C25.5977 17.8571 25.0416 17.2648 24.6496 16.5063C24.2575 15.7435 24.0615 14.8592 24.0615 13.8536C24.0615 12.8394 24.2575 11.953 24.6496 11.1945C25.0416 10.4317 25.5977 9.83936 26.3179 9.41749C27.0423 8.99135 27.901 8.77828 28.8939 8.77828C29.8868 8.77828 30.7433 8.99135 31.4635 9.41749C32.1879 9.83936 32.7462 10.4317 33.1382 11.1945C33.5303 11.953 33.7263 12.8394 33.7263 13.8536C33.7263 14.8592 33.5303 15.7435 33.1382 16.5063C32.7462 17.2648 32.1879 17.8571 31.4635 18.2833C30.7433 18.7051 29.8868 18.9161 28.8939 18.9161ZM28.9067 16.8067C29.3584 16.8067 29.7355 16.6788 30.0381 16.4232C30.3406 16.1632 30.5686 15.8095 30.722 15.3621C30.8797 14.9146 30.9585 14.4054 30.9585 13.8344C30.9585 13.2634 30.8797 12.7541 30.722 12.3067C30.5686 11.8592 30.3406 11.5056 30.0381 11.2456C29.7355 10.9857 29.3584 10.8557 28.9067 10.8557C28.4507 10.8557 28.0672 10.9857 27.7561 11.2456C27.4493 11.5056 27.2171 11.8592 27.0594 12.3067C26.906 12.7541 26.8293 13.2634 26.8293 13.8344C26.8293 14.4054 26.906 14.9146 27.0594 15.3621C27.2171 15.8095 27.4493 16.1632 27.7561 16.4232C28.0672 16.6788 28.4507 16.8067 28.9067 16.8067ZM35.008 18.7243V5.63339H37.731V10.5553H37.8141C37.9334 10.2911 38.106 10.0226 38.3319 9.74987C38.562 9.47288 38.8603 9.24277 39.2268 9.05953C39.5975 8.87203 40.0577 8.77828 40.6075 8.77828C41.3234 8.77828 41.9839 8.96578 42.589 9.34078C43.1941 9.71152 43.6778 10.2719 44.04 11.0219C44.4022 11.7676 44.5833 12.703 44.5833 13.828C44.5833 14.9232 44.4065 15.8479 44.0528 16.6021C43.7033 17.3521 43.2261 17.921 42.6209 18.3088C42.0201 18.6923 41.3468 18.8841 40.6011 18.8841C40.0727 18.8841 39.6231 18.7967 39.2523 18.622C38.8859 18.4473 38.5854 18.2279 38.3511 17.9637C38.1167 17.6952 37.9377 17.4246 37.8141 17.1519H37.6927V18.7243H35.008ZM37.6735 13.8152C37.6735 14.399 37.7545 14.9083 37.9164 15.3429C38.0783 15.7776 38.3127 16.1163 38.6195 16.3592C38.9263 16.5979 39.2992 16.7172 39.7381 16.7172C40.1813 16.7172 40.5563 16.5958 40.8631 16.3529C41.17 16.1057 41.4022 15.7648 41.5599 15.3301C41.7218 14.8912 41.8028 14.3862 41.8028 13.8152C41.8028 13.2485 41.7239 12.7499 41.5663 12.3195C41.4086 11.8891 41.1763 11.5524 40.8695 11.3095C40.5627 11.0666 40.1856 10.9452 39.7381 10.9452C39.295 10.9452 38.92 11.0624 38.6131 11.2967C38.3106 11.5311 38.0783 11.8635 37.9164 12.2939C37.7545 12.7243 37.6735 13.2314 37.6735 13.8152ZM50.3347 18.9161C49.3247 18.9161 48.4554 18.7115 47.7267 18.3024C47.0023 17.8891 46.444 17.3053 46.052 16.551C45.66 15.7925 45.4639 14.8955 45.4639 13.86C45.4639 12.85 45.66 11.9637 46.052 11.2009C46.444 10.4381 46.9959 9.84362 47.7075 9.41749C48.4235 8.99135 49.2629 8.77828 50.226 8.77828C50.8737 8.77828 51.4767 8.88268 52.035 9.09149C52.5975 9.29604 53.0875 9.60499 53.5051 10.0183C53.927 10.4317 54.2551 10.9516 54.4895 11.578C54.7239 12.2002 54.8411 12.9288 54.8411 13.7641V14.5119H46.5506V12.8244H52.2779C52.2779 12.4324 52.1926 12.0851 52.0222 11.7825C51.8517 11.48 51.6152 11.2435 51.3127 11.073C51.0144 10.8983 50.6671 10.811 50.2708 10.811C49.8574 10.811 49.4909 10.9068 49.1713 11.0986C48.856 11.2861 48.6088 11.5396 48.4298 11.8592C48.2509 12.1746 48.1592 12.5262 48.155 12.9139V14.5183C48.155 15.0041 48.2445 15.4239 48.4235 15.7776C48.6067 16.1313 48.8645 16.404 49.1969 16.5958C49.5293 16.7875 49.9235 16.8834 50.3794 16.8834C50.682 16.8834 50.959 16.8408 51.2104 16.7556C51.4618 16.6703 51.677 16.5425 51.856 16.372C52.035 16.2016 52.1713 15.9928 52.2651 15.7456L54.7835 15.9118C54.6557 16.5169 54.3936 17.0453 53.9973 17.497C53.6053 17.9445 53.0982 18.2939 52.476 18.5453C51.8581 18.7925 51.1443 18.9161 50.3347 18.9161ZM62.523 5.63339V18.7243H59.7552V5.63339H62.523ZM66.932 13.0482V18.7243H64.209V8.90612H66.8042V10.6384H66.9192C67.1365 10.0673 67.5009 9.61564 68.0123 9.28325C68.5236 8.94661 69.1437 8.77828 69.8723 8.77828C70.5542 8.77828 71.1486 8.92743 71.6557 9.22572C72.1628 9.52402 72.557 9.95016 72.8383 10.5041C73.1195 11.0538 73.2601 11.7101 73.2601 12.4729V18.7243H70.5371V12.9587C70.5414 12.3578 70.388 11.8891 70.0769 11.5524C69.7658 11.2115 69.3375 11.0411 68.7921 11.0411C68.4256 11.0411 68.1017 11.1199 67.8205 11.2776C67.5435 11.4352 67.3262 11.6654 67.1685 11.9679C67.0151 12.2662 66.9363 12.6263 66.932 13.0482ZM79.558 18.7243H74.9174V5.63339H79.5964C80.9131 5.63339 82.0467 5.89547 82.9969 6.41962C83.9472 6.9395 84.678 7.68737 85.1894 8.66322C85.705 9.63908 85.9628 10.8067 85.9628 12.1661C85.9628 13.5297 85.705 14.7016 85.1894 15.6817C84.678 16.6618 83.943 17.4139 82.9842 17.9381C82.0296 18.4622 80.8876 18.7243 79.558 18.7243ZM77.6851 16.3529H79.443C80.2611 16.3529 80.9494 16.208 81.5076 15.9182C82.0701 15.6242 82.492 15.1703 82.7732 14.5567C83.0587 13.9388 83.2015 13.1419 83.2015 12.1661C83.2015 11.1987 83.0587 10.4083 82.7732 9.79462C82.492 9.18098 82.0722 8.72928 81.514 8.4395C80.9557 8.14973 80.2675 8.00484 79.4494 8.00484H77.6851V16.3529ZM91.8964 18.9161C90.8864 18.9161 90.0171 18.7115 89.2884 18.3024C88.564 17.8891 88.0058 17.3053 87.6137 16.551C87.2217 15.7925 87.0257 14.8955 87.0257 13.86C87.0257 12.85 87.2217 11.9637 87.6137 11.2009C88.0058 10.4381 88.5576 9.84362 89.2693 9.41749C89.9852 8.99135 90.8247 8.77828 91.7877 8.77828C92.4355 8.77828 93.0384 8.88268 93.5967 9.09149C94.1592 9.29604 94.6492 9.60499 95.0668 10.0183C95.4887 10.4317 95.8168 10.9516 96.0512 11.578C96.2856 12.2002 96.4028 12.9288 96.4028 13.7641V14.5119H88.1123V12.8244H93.8396C93.8396 12.4324 93.7543 12.0851 93.5839 11.7825C93.4134 11.48 93.1769 11.2435 92.8744 11.073C92.5761 10.8983 92.2288 10.811 91.8325 10.811C91.4191 10.811 91.0526 10.9068 90.733 11.0986C90.4177 11.2861 90.1705 11.5396 89.9916 11.8592C89.8126 12.1746 89.721 12.5262 89.7167 12.9139V14.5183C89.7167 15.0041 89.8062 15.4239 89.9852 15.7776C90.1684 16.1313 90.4262 16.404 90.7586 16.5958C91.091 16.7875 91.4852 16.8834 91.9411 16.8834C92.2437 16.8834 92.5207 16.8408 92.7721 16.7556C93.0235 16.6703 93.2387 16.5425 93.4177 16.372C93.5967 16.2016 93.733 15.9928 93.8268 15.7456L96.3453 15.9118C96.2174 16.5169 95.9553 17.0453 95.559 17.497C95.167 17.9445 94.6599 18.2939 94.0377 18.5453C93.4198 18.7925 92.7061 18.9161 91.8964 18.9161ZM105.809 11.7058L103.316 11.8592C103.273 11.6462 103.182 11.4544 103.041 11.284C102.9 11.1092 102.715 10.9708 102.485 10.8685C102.259 10.7619 101.988 10.7087 101.673 10.7087C101.251 10.7087 100.895 10.7982 100.606 10.9771C100.316 11.1519 100.171 11.3862 100.171 11.6803C100.171 11.9146 100.265 12.1128 100.452 12.2747C100.64 12.4367 100.962 12.5666 101.417 12.6646L103.194 13.0226C104.149 13.2186 104.861 13.534 105.329 13.9686C105.798 14.4033 106.033 14.9743 106.033 15.6817C106.033 16.3252 105.843 16.8898 105.464 17.3756C105.089 17.8614 104.573 18.2406 103.917 18.5134C103.265 18.7818 102.513 18.9161 101.66 18.9161C100.361 18.9161 99.3251 18.6455 98.5538 18.1043C97.7868 17.5588 97.3372 16.8173 97.2051 15.8798L99.8834 15.7392C99.9643 16.1355 100.16 16.4381 100.471 16.6469C100.783 16.8514 101.181 16.9537 101.667 16.9537C102.144 16.9537 102.528 16.8621 102.817 16.6788C103.111 16.4913 103.261 16.2506 103.265 15.9565C103.261 15.7094 103.156 15.507 102.952 15.3493C102.747 15.1874 102.432 15.0638 102.006 14.9786L100.305 14.6398C99.3464 14.448 98.6327 14.1156 98.1639 13.6426C97.6994 13.1696 97.4672 12.5666 97.4672 11.8337C97.4672 11.203 97.6376 10.6597 97.9785 10.2037C98.3237 9.74774 98.8074 9.39618 99.4295 9.14902C100.056 8.90186 100.789 8.77828 101.628 8.77828C102.868 8.77828 103.844 9.04036 104.556 9.5645C105.272 10.0887 105.689 10.8024 105.809 11.7058ZM107.207 18.7243V8.90612H109.93V18.7243H107.207ZM108.575 7.6405C108.17 7.6405 107.823 7.50626 107.533 7.2378C107.248 6.96507 107.105 6.63908 107.105 6.25981C107.105 5.88481 107.248 5.56308 107.533 5.29462C107.823 5.02189 108.17 4.88553 108.575 4.88553C108.98 4.88553 109.325 5.02189 109.611 5.29462C109.9 5.56308 110.045 5.88481 110.045 6.25981C110.045 6.63908 109.9 6.96507 109.611 7.2378C109.325 7.50626 108.98 7.6405 108.575 7.6405ZM115.995 22.6107C115.113 22.6107 114.356 22.4892 113.726 22.2463C113.099 22.0077 112.601 21.6817 112.23 21.2683C111.859 20.855 111.618 20.3905 111.508 19.8749L114.026 19.5361C114.103 19.7321 114.224 19.9154 114.39 20.0858C114.557 20.2563 114.776 20.3926 115.049 20.4949C115.326 20.6014 115.662 20.6547 116.059 20.6547C116.651 20.6547 117.139 20.5098 117.522 20.22C117.91 19.9345 118.104 19.4551 118.104 18.7818V16.9857H117.989C117.87 17.2584 117.691 17.5162 117.452 17.7591C117.214 18.002 116.907 18.2002 116.532 18.3536C116.157 18.507 115.709 18.5837 115.189 18.5837C114.452 18.5837 113.781 18.4132 113.176 18.0723C112.575 17.7271 112.096 17.2009 111.738 16.4935C111.384 15.7818 111.207 14.8827 111.207 13.796C111.207 12.6838 111.388 11.7548 111.75 11.0091C112.113 10.2634 112.594 9.70513 113.195 9.33439C113.8 8.96365 114.463 8.77828 115.183 8.77828C115.733 8.77828 116.193 8.87203 116.564 9.05953C116.934 9.24277 117.233 9.47288 117.459 9.74987C117.689 10.0226 117.866 10.2911 117.989 10.5553H118.091V8.90612H120.795V18.8202C120.795 19.6554 120.591 20.3543 120.182 20.9168C119.772 21.4793 119.206 21.9012 118.481 22.1824C117.761 22.4679 116.932 22.6107 115.995 22.6107ZM116.052 16.5382C116.491 16.5382 116.862 16.4296 117.165 16.2122C117.471 15.9906 117.706 15.6753 117.868 15.2662C118.034 14.8529 118.117 14.3585 118.117 13.7833C118.117 13.208 118.036 12.7094 117.874 12.2875C117.712 11.8614 117.478 11.5311 117.171 11.2967C116.864 11.0624 116.491 10.9452 116.052 10.9452C115.605 10.9452 115.228 11.0666 114.921 11.3095C114.614 11.5482 114.382 11.8806 114.224 12.3067C114.067 12.7328 113.988 13.225 113.988 13.7833C113.988 14.35 114.067 14.8401 114.224 15.2534C114.386 15.6625 114.618 15.98 114.921 16.2058C115.228 16.4274 115.605 16.5382 116.052 16.5382ZM125.145 13.0482V18.7243H122.422V8.90612H125.017V10.6384H125.132C125.35 10.0673 125.714 9.61564 126.225 9.28325C126.737 8.94661 127.357 8.77828 128.085 8.77828C128.767 8.77828 129.362 8.92743 129.869 9.22572C130.376 9.52402 130.77 9.95016 131.051 10.5041C131.333 11.0538 131.473 11.7101 131.473 12.4729V18.7243H128.75V12.9587C128.755 12.3578 128.601 11.8891 128.29 11.5524C127.979 11.2115 127.551 11.0411 127.005 11.0411C126.639 11.0411 126.315 11.1199 126.034 11.2776C125.757 11.4352 125.539 11.6654 125.382 11.9679C125.228 12.2662 125.149 12.6263 125.145 13.0482Z" fill="white"/>
<rect x="142" width="58.2246" height="23.4486" rx="5.65027" fill="#37373B"/>
<path d="M156.709 15.8102C155.985 15.8102 155.357 15.6509 154.826 15.3323C154.295 15.0136 153.883 14.5678 153.59 13.9949C153.3 13.422 153.156 12.7525 153.156 11.9864C153.156 11.2204 153.3 10.5493 153.59 9.9731C153.883 9.39695 154.295 8.94955 154.826 8.6309C155.357 8.31224 155.985 8.15292 156.709 8.15292C157.433 8.15292 158.061 8.31224 158.592 8.6309C159.123 8.94955 159.533 9.39695 159.823 9.9731C160.116 10.5493 160.262 11.2204 160.262 11.9864C160.262 12.7525 160.116 13.422 159.823 13.9949C159.533 14.5678 159.123 15.0136 158.592 15.3323C158.061 15.6509 157.433 15.8102 156.709 15.8102ZM156.719 14.4101C157.111 14.4101 157.44 14.3023 157.704 14.0866C157.968 13.8678 158.164 13.5748 158.293 13.2079C158.425 12.841 158.491 12.4322 158.491 11.9816C158.491 11.5277 158.425 11.1174 158.293 10.7504C158.164 10.3803 157.968 10.0858 157.704 9.86688C157.44 9.64801 157.111 9.53857 156.719 9.53857C156.316 9.53857 155.982 9.64801 155.714 9.86688C155.45 10.0858 155.253 10.3803 155.121 10.7504C154.992 11.1174 154.927 11.5277 154.927 11.9816C154.927 12.4322 154.992 12.841 155.121 13.2079C155.253 13.5748 155.45 13.8678 155.714 14.0866C155.982 14.3023 156.316 14.4101 156.719 14.4101ZM162.814 11.3201V15.6654H161.066V8.24948H162.737V9.50961H162.824C162.994 9.09439 163.266 8.76447 163.639 8.51985C164.016 8.27523 164.481 8.15292 165.035 8.15292C165.547 8.15292 165.992 8.26235 166.372 8.48122C166.755 8.7001 167.051 9.01714 167.261 9.43236C167.473 9.84757 167.578 10.3513 167.574 10.9435V15.6654H165.827V11.2139C165.827 10.7182 165.698 10.3304 165.44 10.0504C165.186 9.77032 164.834 9.63031 164.383 9.63031C164.077 9.63031 163.805 9.6979 163.567 9.83309C163.332 9.96505 163.147 10.1566 163.012 10.4076C162.88 10.6587 162.814 10.9629 162.814 11.3201ZM170.419 5.7775V15.6654H168.671V5.7775H170.419ZM171.537 15.6654V8.24948H173.284V15.6654H171.537ZM172.415 7.19696C172.138 7.19696 171.9 7.10522 171.701 6.92176C171.501 6.73507 171.401 6.51137 171.401 6.25065C171.401 5.98672 171.501 5.76302 171.701 5.57955C171.9 5.39286 172.138 5.29952 172.415 5.29952C172.695 5.29952 172.933 5.39286 173.13 5.57955C173.329 5.76302 173.429 5.98672 173.429 6.25065C173.429 6.51137 173.329 6.73507 173.13 6.92176C172.933 7.10522 172.695 7.19696 172.415 7.19696ZM176.15 11.3201V15.6654H174.402V8.24948H176.072V9.50961H176.159C176.33 9.09439 176.602 8.76447 176.975 8.51985C177.352 8.27523 177.817 8.15292 178.37 8.15292C178.882 8.15292 179.328 8.26235 179.708 8.48122C180.091 8.7001 180.387 9.01714 180.596 9.43236C180.809 9.84757 180.913 10.3513 180.91 10.9435V15.6654H179.162V11.2139C179.162 10.7182 179.033 10.3304 178.776 10.0504C178.522 9.77032 178.169 9.63031 177.719 9.63031C177.413 9.63031 177.141 9.6979 176.903 9.83309C176.668 9.96505 176.483 10.1566 176.347 10.4076C176.215 10.6587 176.15 10.9629 176.15 11.3201ZM185.29 15.8102C184.546 15.8102 183.904 15.6557 183.364 15.3468C182.826 15.0345 182.412 14.5936 182.123 14.0239C181.833 13.4509 181.688 12.7766 181.688 12.0009C181.688 11.2381 181.833 10.5686 182.123 9.99241C182.416 9.41304 182.824 8.96242 183.349 8.64055C183.874 8.31546 184.49 8.15292 185.198 8.15292C185.655 8.15292 186.087 8.22695 186.492 8.37501C186.901 8.51985 187.261 8.74516 187.574 9.05094C187.889 9.35672 188.137 9.74618 188.317 10.2193C188.497 10.6893 188.588 11.2493 188.588 11.8995V12.4354H182.509V11.2574H186.912C186.909 10.9226 186.837 10.6249 186.695 10.3642C186.553 10.1002 186.355 9.89263 186.101 9.74135C185.85 9.59007 185.557 9.51443 185.222 9.51443C184.865 9.51443 184.551 9.60134 184.281 9.77515C184.011 9.94574 183.8 10.1711 183.648 10.4511C183.5 10.7279 183.425 11.0321 183.422 11.3636V12.392C183.422 12.8233 183.5 13.1934 183.658 13.5024C183.816 13.8082 184.036 14.0432 184.32 14.2073C184.603 14.3683 184.934 14.4487 185.314 14.4487C185.568 14.4487 185.799 14.4133 186.005 14.3425C186.211 14.2685 186.389 14.1607 186.54 14.019C186.692 13.8774 186.806 13.702 186.883 13.4928L188.515 13.6762C188.412 14.1075 188.216 14.4841 187.926 14.806C187.64 15.1247 187.273 15.3725 186.825 15.5495C186.378 15.7233 185.866 15.8102 185.29 15.8102Z" fill="white"/>
</svg>
