<svg width="55" height="55" viewBox="0 0 55 55" fill="none" xmlns="http://www.w3.org/2000/svg">
<path d="M0 19.9047C0 12.9374 0 9.45377 1.35593 6.79262C2.54864 4.4518 4.4518 2.54864 6.79262 1.35593C9.45377 0 12.9374 0 19.9047 0H35.0953C42.0626 0 45.5463 0 48.2073 1.35593C50.5481 2.54864 52.4513 4.4518 53.6441 6.79262C55 9.45377 55 12.9374 55 19.9047V35.0953C55 42.0626 55 45.5463 53.6441 48.2073C52.4513 50.5481 50.5481 52.4513 48.2073 53.6441C45.5463 55 42.0626 55 35.0953 55H19.9047C12.9374 55 9.45377 55 6.79262 53.6441C4.4518 52.4513 2.54864 50.5481 1.35593 48.2073C0 45.5463 0 42.0626 0 35.0953V19.9047Z" fill="#001E36"/>
<path d="M29.1138 40.8064H14.5655C14.3192 40.8064 14.1961 40.6673 14.1963 40.3894V16.312C14.169 16.1161 14.3379 15.9427 14.5286 15.9707H19.0335C19.1817 15.9493 19.3125 16.0862 19.2918 16.2362V36.0288H29.8893C30.1107 36.0288 30.197 36.1426 30.1476 36.3701L29.483 40.4651C29.4773 40.6714 29.3082 40.8043 29.1138 40.8064Z" fill="#31A8FF"/>
<path d="M32.7933 22.1742H36.8396C37.0627 22.1762 37.2631 22.3319 37.3222 22.5492C37.6186 23.2142 37.6552 24.016 37.6563 24.7339C38.3502 23.9179 39.187 23.2379 40.1247 22.7283C41.1306 22.1534 42.271 21.8621 43.4265 21.8847C43.6182 21.857 43.788 22.0285 43.7605 22.2221V26.7585C43.7605 26.9337 43.6364 27.0209 43.3893 27.0209C41.6767 26.9016 39.0103 27.3103 37.7658 28.6705V40.4658C37.7658 40.6907 37.6668 40.8032 37.4688 40.8032H33.1275C32.9143 40.834 32.7261 40.6401 32.7562 40.4282V27.6208C32.7562 25.9046 32.7931 24.1368 32.5334 22.4367C32.4935 22.2803 32.6419 22.1349 32.7933 22.1742Z" fill="#31A8FF"/>
</svg>
