<svg width="34" height="36" viewBox="0 0 34 36" fill="none" xmlns="http://www.w3.org/2000/svg">
<path d="M0 35.0924V1.7801H6.14543V35.0924H0ZM27.2814 0H32.9083V28.3213L33.0909 35.0924H28.0597L27.8318 31.2866H27.7398C26.4126 33.9556 23.7156 35.6364 20.4672 35.6364C15.1633 35.6364 10.9555 30.7431 10.9555 23.3288C10.9092 15.2729 15.5738 10.4782 20.9256 10.4782C23.9902 10.4782 26.1852 11.8623 27.1914 13.6419H27.2814V0ZM16.6709 23.1314C16.6709 27.5301 18.6838 30.7431 22.2527 30.7431C24.5392 30.7431 26.5499 29.0628 27.0993 26.4431C27.2367 25.8992 27.2814 25.3063 27.2814 24.6636V21.0557L27.1461 19.4741C26.642 17.1018 24.8591 15.1742 22.2974 15.1742C18.6838 15.1742 16.6709 18.6335 16.6709 23.1314Z" fill="#FF3366"/>
</svg>
