<svg width="59" height="52" viewBox="0 0 59 52" fill="none" xmlns="http://www.w3.org/2000/svg">
<path d="M29.4882 40.1144H13.0622L9.7202 50.7625C9.62739 51.1581 9.26311 51.4383 8.86684 51.4189H0.547197C0.0727498 51.4189 -0.093171 51.1515 0.0494374 50.6166L14.271 8.60796C14.4133 8.17046 14.5556 7.67209 14.6978 7.11285C14.8838 6.1398 14.979 5.1508 14.9822 4.15923C14.9415 3.86629 15.1989 3.60754 15.48 3.64861H26.7861C27.1173 3.64861 27.3069 3.77019 27.355 4.01335L43.4967 50.6895C43.6388 51.1761 43.4966 51.4192 43.0699 51.4189H33.8258C33.5015 51.4557 33.192 51.2334 33.1147 50.9084L29.4882 40.1144ZM15.6221 30.9251H26.8572C25.0113 24.6174 22.9282 18.3926 21.2398 12.0358C19.4181 18.4034 17.4306 24.7452 15.6221 30.9251Z" fill="#FF9A00"/>
<path d="M53.0954 11.3792C52.3701 11.4091 51.6469 11.2816 50.9729 11.0051C50.299 10.7286 49.6896 10.3093 49.1844 9.77469C48.6807 9.21687 48.2895 8.56244 48.0332 7.84902C47.7769 7.1356 47.6606 6.37726 47.691 5.61759C47.6652 4.86544 47.7943 4.11616 48.07 3.41868C48.3457 2.7212 48.7618 2.09122 49.291 1.56986C49.8151 1.05391 50.4337 0.64967 51.1111 0.380527C51.7886 0.111385 52.5113 -0.0173161 53.2375 0.00186861C54.9442 0.00186861 56.2834 0.524532 57.2552 1.56986C57.7457 2.11311 58.127 2.75026 58.3771 3.44483C58.6272 4.13939 58.7413 4.87774 58.7128 5.61759C58.7426 6.38022 58.6226 7.1412 58.3599 7.85533C58.0973 8.56946 57.6974 9.22217 57.184 9.77469C56.6475 10.3172 56.0072 10.7398 55.3035 11.016C54.5998 11.2921 53.848 11.4158 53.0954 11.3792ZM48.1888 50.6893V15.8279C48.1888 15.3904 48.3777 15.1715 48.7577 15.1715H57.5041C57.883 15.1715 58.0726 15.3903 58.073 15.8279V50.6893C58.073 51.1759 57.8833 51.419 57.5041 51.4186H48.8288C48.4023 51.4186 48.1889 51.1755 48.1888 50.6893Z" fill="#FF9A00"/>
</svg>
