<svg width="120" height="14" viewBox="0 0 120 14" fill="none" xmlns="http://www.w3.org/2000/svg">
<path d="M4.74576 9.66077V2.62884C5.18921 2.55493 5.76993 2.49158 6.50902 2.49158C7.41704 2.49158 8.08223 2.70275 8.50456 3.08285C8.88467 3.42072 9.12751 3.93809 9.12751 4.57159C9.12751 5.21566 8.93746 5.72246 8.57847 6.09201C8.08223 6.60937 7.3009 6.87334 6.40343 6.87334C6.12891 6.87334 5.87551 6.86278 5.66434 6.80999V9.66077H4.74576ZM5.66434 3.29402V6.06034C5.86495 6.11313 6.11836 6.13424 6.42455 6.13424C7.53319 6.13424 8.20893 5.58521 8.20893 4.62439C8.20893 3.67413 7.53319 3.22011 6.53013 3.22011C6.12891 3.22011 5.82272 3.25179 5.66434 3.29402ZM12.23 4.44489C13.6976 4.44489 14.6901 5.5113 14.6901 7.06339C14.6901 8.95335 13.3703 9.77691 12.1455 9.77691C10.7729 9.77691 9.69594 8.7633 9.69594 7.14786C9.69594 5.44795 10.8257 4.44489 12.23 4.44489ZM12.2088 5.14175C11.1213 5.14175 10.6462 6.15536 10.6462 7.11618C10.6462 8.23538 11.2797 9.08005 12.1877 9.08005C13.0746 9.08005 13.7398 8.24593 13.7398 7.09506C13.7398 6.22927 13.3069 5.14175 12.2088 5.14175ZM15.2074 4.55048H16.1576L16.8439 7.14786C16.9812 7.71801 17.1184 8.24593 17.2135 8.77386H17.2451C17.3613 8.25649 17.5302 7.70745 17.6992 7.15841L18.5333 4.55048H19.3146L20.1065 7.10562C20.2965 7.71801 20.4444 8.25649 20.5605 8.77386H20.5922C20.6766 8.25649 20.8139 7.71801 20.9828 7.11618L21.7114 4.55048H22.63L20.9828 9.66077H20.1382L19.3568 7.22176C19.1773 6.65161 19.0295 6.1448 18.9028 5.54297H18.8817C18.755 6.15536 18.5966 6.68328 18.4171 7.23232L17.5936 9.66077H16.7489L15.2074 4.55048ZM27.5667 7.27456H23.9768C23.9979 8.53101 24.7898 9.04838 25.7295 9.04838C26.3947 9.04838 26.8065 8.93223 27.1443 8.78441L27.3133 9.4496C26.986 9.59742 26.4158 9.77691 25.6028 9.77691C24.0296 9.77691 23.0899 8.73162 23.0899 7.19009C23.0899 5.64856 23.9979 4.44489 25.4867 4.44489C27.1655 4.44489 27.5984 5.90196 27.5984 6.84166C27.5984 7.03171 27.5878 7.16897 27.5667 7.27456ZM23.9874 6.60937H26.7009C26.7115 6.02866 26.458 5.11008 25.4128 5.11008C24.4625 5.11008 24.0613 5.96531 23.9874 6.60937ZM28.749 9.66077V6.1448C28.749 5.54297 28.7384 5.02561 28.7068 4.55048H29.5198L29.562 5.56409H29.5937C29.8259 4.87779 30.3961 4.44489 31.0191 4.44489C31.1141 4.44489 31.188 4.45545 31.2725 4.46601V5.34236C31.1774 5.32124 31.0824 5.32124 30.9557 5.32124C30.3011 5.32124 29.8365 5.80693 29.7098 6.50379C29.6887 6.63049 29.6781 6.78887 29.6781 6.93669V9.66077H28.749ZM36.2073 7.27456H32.6174C32.6385 8.53101 33.4304 9.04838 34.3701 9.04838C35.0353 9.04838 35.4471 8.93223 35.785 8.78441L35.9539 9.4496C35.6266 9.59742 35.0564 9.77691 34.2434 9.77691C32.6702 9.77691 31.7305 8.73162 31.7305 7.19009C31.7305 5.64856 32.6385 4.44489 34.1273 4.44489C35.8061 4.44489 36.239 5.90196 36.239 6.84166C36.239 7.03171 36.2284 7.16897 36.2073 7.27456ZM32.628 6.60937H35.3415C35.3521 6.02866 35.0987 5.11008 34.0534 5.11008C33.1031 5.11008 32.7019 5.96531 32.628 6.60937ZM40.8739 2.16427H41.7925V8.34096C41.7925 8.79497 41.8136 9.31234 41.8347 9.66077H41.0111L40.9689 8.77386H40.9372C40.6627 9.34401 40.0503 9.77691 39.2162 9.77691C37.9809 9.77691 37.02 8.73162 37.02 7.17953C37.0095 5.47962 38.0759 4.44489 39.3112 4.44489C40.1031 4.44489 40.6205 4.81444 40.8528 5.21566H40.8739V2.16427ZM40.8739 7.5174V6.63049C40.8739 6.51435 40.8633 6.35597 40.8316 6.23983C40.6944 5.65911 40.1876 5.17343 39.4907 5.17343C38.5299 5.17343 37.9597 6.0181 37.9597 7.1373C37.9597 8.17202 38.4771 9.02726 39.4696 9.02726C40.0926 9.02726 40.6627 8.60492 40.8316 7.91862C40.8633 7.79192 40.8739 7.66522 40.8739 7.5174ZM45.5868 8.34096V2.16427H46.5054V5.37404H46.5265C46.8538 4.80388 47.4451 4.44489 48.2687 4.44489C49.5462 4.44489 50.4331 5.50074 50.4331 7.04227C50.4331 8.86888 49.2717 9.77691 48.1314 9.77691C47.3923 9.77691 46.801 9.49183 46.4104 8.82665H46.3893L46.3365 9.66077H45.5446C45.5657 9.31234 45.5868 8.79497 45.5868 8.34096ZM46.5054 6.7044V7.61243C46.5054 7.72857 46.516 7.84471 46.5476 7.9503C46.7166 8.59436 47.2656 9.03782 47.9414 9.03782C48.9233 9.03782 49.4934 8.24593 49.4934 7.07395C49.4934 6.04978 48.9655 5.17343 47.9625 5.17343C47.3395 5.17343 46.7482 5.61688 46.5582 6.31374C46.5265 6.42988 46.5054 6.55658 46.5054 6.7044ZM50.8502 4.55048H51.8638L52.9725 7.57019C53.0992 7.90806 53.2259 8.30928 53.3103 8.61548H53.3314C53.4265 8.30928 53.532 7.91862 53.6588 7.54908L54.6724 4.55048H55.6543L54.2606 8.19314C53.5954 9.94584 53.1414 10.8328 52.5079 11.3924C52.0433 11.783 51.5999 11.9414 51.3676 11.9836L51.1353 11.2129C51.3676 11.1389 51.6738 10.9911 51.9483 10.7588C52.2017 10.5582 52.5079 10.1992 52.7296 9.72412C52.7718 9.62909 52.8035 9.55518 52.8035 9.50239C52.8035 9.4496 52.7824 9.37569 52.7296 9.25955L50.8502 4.55048Z" fill="#9A9A9A"/>
<path d="M88.0652 2.41773C90.0185 2.41773 91.275 3.90647 91.275 6.02872C91.275 8.46772 89.7862 9.77697 87.9702 9.77697C86.0802 9.77697 84.771 8.30935 84.771 6.15542C84.771 3.89591 86.1647 2.41773 88.0652 2.41773ZM88.0335 3.16738C86.5025 3.16738 85.7423 4.58221 85.7423 6.13431C85.7423 7.66528 86.5659 9.02732 88.023 9.02732C89.48 9.02732 90.3036 7.6864 90.3036 6.07096C90.3036 4.64556 89.5645 3.16738 88.0335 3.16738ZM92.4412 11.7514V6.21877C92.4412 5.56415 92.42 5.03623 92.3989 4.55054H93.2225L93.2753 5.42689H93.2964C93.6659 4.80394 94.2783 4.44495 95.1125 4.44495C96.3584 4.44495 97.2875 5.49024 97.2875 7.03177C97.2875 8.86894 96.1577 9.77697 94.9541 9.77697C94.2783 9.77697 93.6871 9.48133 93.3809 8.97453H93.3598V11.7514H92.4412ZM93.3598 6.6939V7.58081C93.3598 7.71807 93.3703 7.84477 93.402 7.96092C93.5709 8.60498 94.1305 9.04844 94.7957 9.04844C95.7776 9.04844 96.3478 8.246 96.3478 7.07401C96.3478 6.0604 95.8093 5.18405 94.8274 5.18405C94.1939 5.18405 93.592 5.6275 93.4231 6.32436C93.3914 6.4405 93.3598 6.57776 93.3598 6.6939ZM102.56 7.27462H98.9698C98.991 8.53107 99.7828 9.04844 100.723 9.04844C101.388 9.04844 101.799 8.93229 102.137 8.78448L102.306 9.44966C101.979 9.59748 101.409 9.77697 100.596 9.77697C99.0226 9.77697 98.0829 8.73168 98.0829 7.19015C98.0829 5.64862 98.991 4.44495 100.48 4.44495C102.158 4.44495 102.591 5.90202 102.591 6.84172C102.591 7.03177 102.581 7.16903 102.56 7.27462ZM98.9804 6.60944H101.694C101.704 6.02872 101.451 5.11014 100.406 5.11014C99.4555 5.11014 99.0543 5.96537 98.9804 6.60944ZM103.742 9.66083V5.9337C103.742 5.39521 103.731 4.97288 103.7 4.55054H104.523L104.576 5.39521H104.597C104.851 4.92008 105.442 4.44495 106.287 4.44495C106.994 4.44495 108.092 4.86729 108.092 6.61999V9.66083H107.163V6.71502C107.163 5.89146 106.857 5.20516 105.98 5.20516C105.379 5.20516 104.903 5.63806 104.735 6.15542C104.692 6.27157 104.671 6.42994 104.671 6.58832V9.66083H103.742ZM113.305 7.42244H110.781L110.042 9.66083H109.092L111.52 2.54443H112.618L115.047 9.66083H114.065L113.305 7.42244ZM110.971 6.70446H113.125L112.418 4.65612C112.259 4.19155 112.154 3.76921 112.048 3.35743H112.027C111.922 3.76921 111.816 4.21267 111.668 4.64556L110.971 6.70446ZM116.085 2.54443H117.014V9.66083H116.085V2.54443Z" fill="#9A9A9A"/>
<path d="M77.2091 5.58618C77.3697 5.12642 77.4266 4.63977 77.376 4.15781C77.3237 3.67587 77.1626 3.21028 76.9035 2.79277C76.5205 2.16171 75.937 1.66174 75.2363 1.36441C74.5357 1.06647 73.753 0.988814 73.0026 1.14278C72.6634 0.780439 72.2466 0.49104 71.78 0.293966C71.3134 0.0968925 70.8078 -0.00330608 70.297 8.31995e-05C69.5289 -0.0020539 68.7798 0.227131 68.1577 0.654637C67.5357 1.08214 67.0726 1.68591 66.8353 2.37901C66.3356 2.47669 65.8637 2.67442 65.4511 2.95899C65.0377 3.24467 64.6918 3.60733 64.44 4.02973C64.0545 4.66002 63.8908 5.3905 63.9728 6.11507C64.0529 6.84042 64.3741 7.52281 64.8898 8.06369C64.7292 8.52344 64.6724 9.0101 64.7229 9.49205C64.7768 9.97417 64.9391 10.439 65.1954 10.8564C65.5785 11.4874 66.162 11.9874 66.8626 12.2847C67.5632 12.5827 68.3459 12.6603 69.0964 12.5064C69.4355 12.8687 69.8523 13.1581 70.3189 13.3552C70.7855 13.5523 71.2911 13.6525 71.8019 13.6491C72.5705 13.6514 73.3199 13.4215 73.9416 12.9928C74.5636 12.5642 75.0264 11.9596 75.2636 11.2658C75.7633 11.1681 76.2352 10.9704 76.6479 10.6858C77.0612 10.4002 77.4026 10.0382 77.6589 9.61582C78.0458 8.98475 78.2073 8.25582 78.1262 7.53048C78.0468 6.8062 77.7255 6.12496 77.2091 5.58618ZM71.8337 12.7539C71.1192 12.7539 70.5618 12.5452 70.0809 12.1617C70.1036 12.1487 70.1393 12.1315 70.1666 12.1142L73.0291 10.5455C73.101 10.5074 73.1603 10.4511 73.2005 10.3829C73.2409 10.3153 73.2623 10.239 73.2627 10.1613V6.33238L74.4725 6.99727C74.4725 6.99727 74.4854 7.00591 74.49 7.01022C74.49 7.01454 74.4945 7.02318 74.4991 7.02749V10.2001C74.4991 11.6371 73.2362 12.7582 71.8337 12.7582V12.7539ZM66.0139 10.4088C65.6975 9.89113 65.5846 9.28387 65.6953 8.69476C65.7173 8.70771 65.7529 8.72858 65.7802 8.74153L68.6435 10.3102C68.7147 10.349 68.7951 10.3698 68.8772 10.3707C68.9583 10.3707 69.0387 10.3491 69.1108 10.3109L72.6074 8.39613V9.74391C72.6074 9.7475 72.5983 9.75614 72.5945 9.76046L69.6994 11.3471C69.0799 11.6848 68.3449 11.7766 67.6545 11.6026C67.3127 11.5161 66.9923 11.3665 66.7116 11.1624C66.4308 10.9583 66.1953 10.7037 66.0184 10.4131L66.0139 10.4088ZM65.2584 4.47731C65.5727 3.95874 66.0695 3.56181 66.6616 3.3562V6.58711C66.6616 6.66411 66.6836 6.7411 66.7238 6.80946C66.7648 6.8771 66.8224 6.93251 66.8952 6.97137L70.3919 8.88545L69.1828 9.55106C69.1828 9.55106 69.1692 9.55538 69.1646 9.55969H69.1419L66.2475 7.97302C65.6294 7.63371 65.1783 7.07584 64.9929 6.42161C64.8083 5.76704 64.9037 5.06976 65.2584 4.48162V4.47731ZM75.2045 6.67346L71.7078 4.75938L72.9169 4.09737C72.9169 4.09737 72.9305 4.09377 72.9351 4.08945H72.9578L75.8522 5.67541C76.2954 5.91839 76.6567 6.27592 76.8939 6.70631C77.1311 7.13669 77.2343 7.62218 77.1917 8.10614C77.1475 8.5897 76.9589 9.05126 76.6479 9.43665C76.3369 9.82522 75.9197 10.1188 75.4388 10.2857V7.05268C75.4382 6.97491 75.4165 6.8986 75.3759 6.83105C75.3356 6.76311 75.2763 6.70707 75.2045 6.66914V6.67346ZM76.4097 4.95079C76.4097 4.95079 76.3513 4.91625 76.324 4.90402L73.4607 3.33461C73.3897 3.29564 73.3091 3.27512 73.2271 3.27512C73.1451 3.27512 73.0645 3.29564 72.9935 3.33461L69.4968 5.24869V3.90236C69.4968 3.89804 69.5052 3.88941 69.5097 3.88509L72.4049 2.29914C72.8474 2.05555 73.3541 1.93698 73.8652 1.95738C74.3764 1.97777 74.8708 2.13629 75.2902 2.41427C75.7091 2.69353 76.0362 3.07961 76.2335 3.52786C76.4308 3.97611 76.4903 4.4682 76.4051 4.94719L76.4097 4.95079ZM68.8354 7.31749L67.6264 6.65187C67.6264 6.65187 67.6135 6.64324 67.609 6.63892C67.6077 6.63268 67.6045 6.62692 67.5999 6.62237V3.44903C67.5999 2.96331 67.7478 2.49055 68.0223 2.07679C68.2964 1.66582 68.6896 1.33854 69.1548 1.13414C69.6191 0.929347 70.1348 0.852547 70.6429 0.91251C71.1511 0.976552 71.6312 1.17228 72.0226 1.48386C71.9998 1.49681 71.9642 1.51408 71.9369 1.53063L69.0744 3.10003C69.0026 3.13796 68.9432 3.19399 68.9029 3.26194C68.8623 3.32949 68.8406 3.4058 68.84 3.48357V7.31317L68.8354 7.31749ZM69.4915 5.97403L71.0464 5.12133L72.6013 5.97403V7.67943L71.0464 8.53285L69.4915 7.67943V5.97403Z" fill="#9A9A9A"/>
</svg>
