<svg width="61" height="50" viewBox="0 0 61 50" fill="none" xmlns="http://www.w3.org/2000/svg">
<path d="M0 48.4408V0.787279C0 0.463105 0.132895 0.277862 0.442985 0.277862C5.02077 0.277862 9.59648 0 14.1755 0C21.6056 0 29.6508 2.58955 32.4708 10.5125C33.1353 12.4575 33.4897 14.4489 33.4897 16.5328C33.4897 20.5155 32.6037 23.8036 30.8317 26.397C25.882 33.6414 17.303 33.5288 9.61277 33.5288V48.3945C9.67291 48.8346 9.30496 49.0428 8.94829 49.0428H0.531582C0.177194 49.0428 0 48.8576 0 48.4408ZM9.65707 9.21579V24.7761C12.7063 25.0038 15.8971 25.0285 18.8269 24.0352C22.0613 23.0842 23.8326 20.2303 23.8326 16.8107C23.9225 13.8968 22.3647 11.101 19.7128 10.0494C16.8184 8.82264 12.7815 8.74916 9.65707 9.21579Z" fill="#9999FF"/>
<path d="M39.4946 12.1594H47.2686C47.6973 12.1633 48.0822 12.4729 48.1957 12.9051C48.7655 14.2275 48.8356 15.8223 48.8377 17.25C50.1708 15.6272 51.7785 14.275 53.5803 13.2611C55.5129 12.1179 57.7037 11.5385 59.9238 11.5835C60.2923 11.5284 60.6185 11.8694 60.5658 12.2545V21.2763C60.5658 21.6246 60.3272 21.7982 59.8527 21.7982C56.5622 21.5608 51.4392 22.3736 49.0482 25.0788V48.5368C49.0482 48.9842 48.858 49.2078 48.4776 49.2078H40.1365C39.7268 49.2693 39.3654 48.8838 39.4232 48.4622V22.9912C39.4232 19.5781 39.494 16.0624 38.9953 12.6815C38.9186 12.3703 39.2035 12.081 39.4946 12.1594Z" fill="#9999FF"/>
</svg>
