<svg width="55" height="55" viewBox="0 0 55 55" fill="none" xmlns="http://www.w3.org/2000/svg">
<path d="M0 19.9048C0 12.9374 0 9.45378 1.35593 6.79262C2.54864 4.45179 4.45179 2.54864 6.79262 1.35593C9.45378 0 12.9374 0 19.9048 0H35.0952C42.0626 0 45.5462 0 48.2074 1.35593C50.5482 2.54864 52.4514 4.45179 53.6441 6.79262C55 9.45378 55 12.9374 55 19.9048V35.0952C55 42.0626 55 45.5462 53.6441 48.2074C52.4514 50.5482 50.5482 52.4514 48.2074 53.6441C45.5462 55 42.0626 55 35.0952 55H19.9048C12.9374 55 9.45378 55 6.79262 53.6441C4.45179 52.4514 2.54864 50.5482 1.35593 48.2074C0 45.5462 0 42.0626 0 35.0952V19.9048Z" fill="#00005B"/>
<path d="M11.7856 39.513V14.7871C11.7856 14.6189 11.8546 14.5228 12.0155 14.5228C14.3908 14.5228 16.7649 14.3786 19.1409 14.3786C22.9961 14.3786 27.1705 15.7222 28.6337 19.8332C28.9785 20.8424 29.1624 21.8757 29.1624 22.957C29.1624 25.0235 28.7027 26.7295 27.7833 28.0752C25.215 31.834 20.7636 31.7756 16.7734 31.7756V39.4889C16.8046 39.7173 16.6137 39.8253 16.4286 39.8253H12.0615C11.8776 39.8253 11.7856 39.7292 11.7856 39.513ZM16.7964 19.1604V27.2341C18.3785 27.3523 20.0341 27.3651 21.5543 26.8497C23.2325 26.3562 24.1516 24.8755 24.1516 23.1011C24.1983 21.5892 23.39 20.1385 22.014 19.5929C20.5121 18.9564 18.4176 18.9183 16.7964 19.1604Z" fill="#9999FF"/>
<path d="M32.2781 20.6877H36.3118C36.5343 20.6898 36.734 20.8504 36.7928 21.0746C37.0885 21.7608 37.1249 22.5883 37.126 23.3291C37.8177 22.487 38.6519 21.7854 39.5867 21.2594C40.5895 20.6662 41.7263 20.3656 42.8782 20.3889C43.0694 20.3603 43.2386 20.5372 43.2113 20.7371V25.4182C43.2113 25.5989 43.0875 25.689 42.8413 25.689C41.1339 25.5658 38.4758 25.9875 37.2352 27.3912V39.5628C37.2352 39.7949 37.1365 39.911 36.9391 39.911H32.6112C32.3986 39.9429 32.2111 39.7428 32.2411 39.5241V26.308C32.2411 24.537 32.2778 22.7128 32.0191 20.9586C31.9792 20.7972 32.1271 20.6471 32.2781 20.6877Z" fill="#9999FF"/>
</svg>
