<svg width="234" height="24" viewBox="0 0 234 24" fill="none" xmlns="http://www.w3.org/2000/svg">
<path d="M3.39418 18.7243H0.428267L4.94744 5.63339H8.5142L13.027 18.7243H10.0611L6.78196 8.62487H6.67969L3.39418 18.7243ZM3.20881 13.5787H10.2145V15.7392H3.20881V13.5787ZM17.1724 18.8841C16.4266 18.8841 15.7512 18.6923 15.1461 18.3088C14.5452 17.921 14.068 17.3521 13.7143 16.6021C13.3648 15.8479 13.1901 14.9232 13.1901 13.828C13.1901 12.703 13.3712 11.7676 13.7334 11.0219C14.0957 10.2719 14.5772 9.71152 15.178 9.34078C15.7832 8.96578 16.4458 8.77828 17.166 8.77828C17.7157 8.77828 18.1738 8.87203 18.5403 9.05953C18.911 9.24277 19.2093 9.47288 19.4351 9.74987C19.6653 10.0226 19.84 10.2911 19.9593 10.5553H20.0424V5.63339H22.759V18.7243H20.0743V17.1519H19.9593C19.8314 17.4246 19.6503 17.6952 19.416 17.9637C19.1859 18.2279 18.8854 18.4473 18.5147 18.622C18.1482 18.7967 17.7008 18.8841 17.1724 18.8841ZM18.0353 16.7172C18.4742 16.7172 18.8449 16.5979 19.1475 16.3592C19.4543 16.1163 19.6887 15.7776 19.8506 15.3429C20.0168 14.9083 20.0999 14.399 20.0999 13.8152C20.0999 13.2314 20.0189 12.7243 19.857 12.2939C19.6951 11.8635 19.4607 11.5311 19.1539 11.2967C18.8471 11.0624 18.4742 10.9452 18.0353 10.9452C17.5878 10.9452 17.2107 11.0666 16.9039 11.3095C16.5971 11.5524 16.3648 11.8891 16.2072 12.3195C16.0495 12.7499 15.9707 13.2485 15.9707 13.8152C15.9707 14.3862 16.0495 14.8912 16.2072 15.3301C16.3691 15.7648 16.6013 16.1057 16.9039 16.3529C17.2107 16.5958 17.5878 16.7172 18.0353 16.7172ZM28.8939 18.9161C27.901 18.9161 27.0423 18.7051 26.3179 18.2833C25.5977 17.8571 25.0416 17.2648 24.6496 16.5063C24.2575 15.7435 24.0615 14.8592 24.0615 13.8536C24.0615 12.8394 24.2575 11.953 24.6496 11.1945C25.0416 10.4317 25.5977 9.83936 26.3179 9.41749C27.0423 8.99135 27.901 8.77828 28.8939 8.77828C29.8868 8.77828 30.7433 8.99135 31.4635 9.41749C32.1879 9.83936 32.7462 10.4317 33.1382 11.1945C33.5303 11.953 33.7263 12.8394 33.7263 13.8536C33.7263 14.8592 33.5303 15.7435 33.1382 16.5063C32.7462 17.2648 32.1879 17.8571 31.4635 18.2833C30.7433 18.7051 29.8868 18.9161 28.8939 18.9161ZM28.9067 16.8067C29.3584 16.8067 29.7355 16.6788 30.0381 16.4232C30.3406 16.1632 30.5686 15.8095 30.722 15.3621C30.8797 14.9146 30.9585 14.4054 30.9585 13.8344C30.9585 13.2634 30.8797 12.7541 30.722 12.3067C30.5686 11.8592 30.3406 11.5056 30.0381 11.2456C29.7355 10.9857 29.3584 10.8557 28.9067 10.8557C28.4507 10.8557 28.0672 10.9857 27.7561 11.2456C27.4493 11.5056 27.2171 11.8592 27.0594 12.3067C26.906 12.7541 26.8293 13.2634 26.8293 13.8344C26.8293 14.4054 26.906 14.9146 27.0594 15.3621C27.2171 15.8095 27.4493 16.1632 27.7561 16.4232C28.0672 16.6788 28.4507 16.8067 28.9067 16.8067ZM35.008 18.7243V5.63339H37.731V10.5553H37.8141C37.9334 10.2911 38.106 10.0226 38.3319 9.74987C38.562 9.47288 38.8603 9.24277 39.2268 9.05953C39.5975 8.87203 40.0577 8.77828 40.6075 8.77828C41.3234 8.77828 41.9839 8.96578 42.589 9.34078C43.1941 9.71152 43.6778 10.2719 44.04 11.0219C44.4022 11.7676 44.5833 12.703 44.5833 13.828C44.5833 14.9232 44.4065 15.8479 44.0528 16.6021C43.7033 17.3521 43.2261 17.921 42.6209 18.3088C42.0201 18.6923 41.3468 18.8841 40.6011 18.8841C40.0727 18.8841 39.6231 18.7967 39.2523 18.622C38.8859 18.4473 38.5854 18.2279 38.3511 17.9637C38.1167 17.6952 37.9377 17.4246 37.8141 17.1519H37.6927V18.7243H35.008ZM37.6735 13.8152C37.6735 14.399 37.7545 14.9083 37.9164 15.3429C38.0783 15.7776 38.3127 16.1163 38.6195 16.3592C38.9263 16.5979 39.2992 16.7172 39.7381 16.7172C40.1813 16.7172 40.5563 16.5958 40.8631 16.3529C41.17 16.1057 41.4022 15.7648 41.5599 15.3301C41.7218 14.8912 41.8028 14.3862 41.8028 13.8152C41.8028 13.2485 41.7239 12.7499 41.5663 12.3195C41.4086 11.8891 41.1763 11.5524 40.8695 11.3095C40.5627 11.0666 40.1856 10.9452 39.7381 10.9452C39.295 10.9452 38.92 11.0624 38.6131 11.2967C38.3106 11.5311 38.0783 11.8635 37.9164 12.2939C37.7545 12.7243 37.6735 13.2314 37.6735 13.8152ZM50.3347 18.9161C49.3247 18.9161 48.4554 18.7115 47.7267 18.3024C47.0023 17.8891 46.444 17.3053 46.052 16.551C45.66 15.7925 45.4639 14.8955 45.4639 13.86C45.4639 12.85 45.66 11.9637 46.052 11.2009C46.444 10.4381 46.9959 9.84362 47.7075 9.41749C48.4235 8.99135 49.2629 8.77828 50.226 8.77828C50.8737 8.77828 51.4767 8.88268 52.035 9.09149C52.5975 9.29604 53.0875 9.60499 53.5051 10.0183C53.927 10.4317 54.2551 10.9516 54.4895 11.578C54.7239 12.2002 54.8411 12.9288 54.8411 13.7641V14.5119H46.5506V12.8244H52.2779C52.2779 12.4324 52.1926 12.0851 52.0222 11.7825C51.8517 11.48 51.6152 11.2435 51.3127 11.073C51.0144 10.8983 50.6671 10.811 50.2708 10.811C49.8574 10.811 49.4909 10.9068 49.1713 11.0986C48.856 11.2861 48.6088 11.5396 48.4298 11.8592C48.2509 12.1746 48.1592 12.5262 48.155 12.9139V14.5183C48.155 15.0041 48.2445 15.4239 48.4235 15.7776C48.6067 16.1313 48.8645 16.404 49.1969 16.5958C49.5293 16.7875 49.9235 16.8834 50.3794 16.8834C50.682 16.8834 50.959 16.8408 51.2104 16.7556C51.4618 16.6703 51.677 16.5425 51.856 16.372C52.035 16.2016 52.1713 15.9928 52.2651 15.7456L54.7835 15.9118C54.6557 16.5169 54.3936 17.0453 53.9973 17.497C53.6053 17.9445 53.0982 18.2939 52.476 18.5453C51.8581 18.7925 51.1443 18.9161 50.3347 18.9161ZM59.7552 18.7243V5.63339H64.92C65.9129 5.63339 66.7588 5.82303 67.4576 6.20229C68.1565 6.57729 68.6892 7.0993 69.0556 7.76834C69.4264 8.43311 69.6117 9.20016 69.6117 10.0695C69.6117 10.9388 69.4242 11.7058 69.0492 12.3706C68.6742 13.0354 68.1309 13.5531 67.4193 13.9239C66.7119 14.2946 65.8553 14.48 64.8497 14.48H61.5578V12.2619H64.4022C64.9349 12.2619 65.3738 12.1703 65.719 11.9871C66.0684 11.7996 66.3284 11.5418 66.4988 11.2137C66.6735 10.8813 66.7609 10.4999 66.7609 10.0695C66.7609 9.63481 66.6735 9.25555 66.4988 8.93169C66.3284 8.60356 66.0684 8.35001 65.719 8.17104C65.3696 7.9878 64.9264 7.89618 64.3894 7.89618H62.523V18.7243H59.7552ZM70.8184 18.7243V8.90612H73.4583V10.6192H73.5606C73.7395 10.0098 74.04 9.54959 74.4618 9.23851C74.8837 8.92317 75.3695 8.7655 75.9192 8.7655C76.0556 8.7655 76.2026 8.77402 76.3603 8.79106C76.5179 8.80811 76.6564 8.83155 76.7758 8.86138V11.2776C76.6479 11.2392 76.4711 11.2051 76.2452 11.1753C76.0194 11.1455 75.8127 11.1306 75.6252 11.1306C75.2246 11.1306 74.8667 11.2179 74.5513 11.3926C74.2402 11.5631 73.9931 11.8017 73.8098 12.1085C73.6309 12.4154 73.5414 12.769 73.5414 13.1696V18.7243H70.8184ZM81.661 18.9161C80.6511 18.9161 79.7817 18.7115 79.053 18.3024C78.3286 17.8891 77.7704 17.3053 77.3783 16.551C76.9863 15.7925 76.7903 14.8955 76.7903 13.86C76.7903 12.85 76.9863 11.9637 77.3783 11.2009C77.7704 10.4381 78.3222 9.84362 79.0339 9.41749C79.7498 8.99135 80.5893 8.77828 81.5523 8.77828C82.2001 8.77828 82.803 8.88268 83.3613 9.09149C83.9238 9.29604 84.4138 9.60499 84.8315 10.0183C85.2533 10.4317 85.5815 10.9516 85.8158 11.578C86.0502 12.2002 86.1674 12.9288 86.1674 13.7641V14.5119H77.8769V12.8244H83.6042C83.6042 12.4324 83.519 12.0851 83.3485 11.7825C83.178 11.48 82.9415 11.2435 82.639 11.073C82.3407 10.8983 81.9934 10.811 81.5971 10.811C81.1837 10.811 80.8173 10.9068 80.4976 11.0986C80.1823 11.2861 79.9351 11.5396 79.7562 11.8592C79.5772 12.1746 79.4856 12.5262 79.4813 12.9139V14.5183C79.4813 15.0041 79.5708 15.4239 79.7498 15.7776C79.933 16.1313 80.1908 16.404 80.5232 16.5958C80.8556 16.7875 81.2498 16.8834 81.7057 16.8834C82.0083 16.8834 82.2853 16.8408 82.5367 16.7556C82.7881 16.6703 83.0033 16.5425 83.1823 16.372C83.3613 16.2016 83.4976 15.9928 83.5914 15.7456L86.1099 15.9118C85.982 16.5169 85.72 17.0453 85.3236 17.497C84.9316 17.9445 84.4245 18.2939 83.8023 18.5453C83.1844 18.7925 82.4707 18.9161 81.661 18.9161ZM87.4044 18.7243V8.90612H89.9996V10.6384H90.1146C90.3192 10.0631 90.6601 9.60925 91.1373 9.27686C91.6146 8.94447 92.1856 8.77828 92.8504 8.77828C93.5237 8.77828 94.0969 8.94661 94.5699 9.28325C95.0429 9.61564 95.3582 10.0673 95.5159 10.6384H95.6182C95.8184 10.0759 96.1807 9.62629 96.7048 9.28964C97.2332 8.94874 97.8575 8.77828 98.5777 8.77828C99.4939 8.77828 100.237 9.07018 100.809 9.65399C101.384 10.2335 101.671 11.056 101.671 12.1213V18.7243H98.9548V12.6583C98.9548 12.1128 98.8099 11.7037 98.5201 11.431C98.2304 11.1583 97.8682 11.0219 97.4335 11.0219C96.9392 11.0219 96.5535 11.1796 96.2765 11.4949C95.9996 11.806 95.8611 12.2172 95.8611 12.7286V18.7243H93.2211V12.6007C93.2211 12.1192 93.0826 11.7357 92.8057 11.4502C92.5329 11.1646 92.1728 11.0219 91.7254 11.0219C91.4228 11.0219 91.1501 11.0986 90.9072 11.252C90.6686 11.4012 90.479 11.6121 90.3383 11.8848C90.1977 12.1533 90.1274 12.4686 90.1274 12.8308V18.7243H87.4044ZM103.282 18.7243V8.90612H106.005V18.7243H103.282ZM104.65 7.6405C104.245 7.6405 103.898 7.50626 103.608 7.2378C103.323 6.96507 103.18 6.63908 103.18 6.25981C103.18 5.88481 103.323 5.56308 103.608 5.29462C103.898 5.02189 104.245 4.88553 104.65 4.88553C105.055 4.88553 105.4 5.02189 105.686 5.29462C105.976 5.56308 106.12 5.88481 106.12 6.25981C106.12 6.63908 105.976 6.96507 105.686 7.2378C105.4 7.50626 105.055 7.6405 104.65 7.6405ZM112.121 18.9161C111.111 18.9161 110.242 18.7115 109.513 18.3024C108.789 17.8891 108.23 17.3053 107.838 16.551C107.446 15.7925 107.25 14.8955 107.25 13.86C107.25 12.85 107.446 11.9637 107.838 11.2009C108.23 10.4381 108.782 9.84362 109.494 9.41749C110.21 8.99135 111.049 8.77828 112.012 8.77828C112.66 8.77828 113.263 8.88268 113.821 9.09149C114.384 9.29604 114.874 9.60499 115.292 10.0183C115.713 10.4317 116.042 10.9516 116.276 11.578C116.51 12.2002 116.627 12.9288 116.627 13.7641V14.5119H108.337V12.8244H114.064C114.064 12.4324 113.979 12.0851 113.809 11.7825C113.638 11.48 113.402 11.2435 113.099 11.073C112.801 10.8983 112.453 10.811 112.057 10.811C111.644 10.811 111.277 10.9068 110.958 11.0986C110.642 11.2861 110.395 11.5396 110.216 11.8592C110.037 12.1746 109.946 12.5262 109.941 12.9139V14.5183C109.941 15.0041 110.031 15.4239 110.21 15.7776C110.393 16.1313 110.651 16.404 110.983 16.5958C111.316 16.7875 111.71 16.8834 112.166 16.8834C112.468 16.8834 112.745 16.8408 112.997 16.7556C113.248 16.6703 113.463 16.5425 113.642 16.372C113.821 16.2016 113.958 15.9928 114.051 15.7456L116.57 15.9118C116.442 16.5169 116.18 17.0453 115.784 17.497C115.392 17.9445 114.885 18.2939 114.262 18.5453C113.645 18.7925 112.931 18.9161 112.121 18.9161ZM117.864 18.7243V8.90612H120.504V10.6192H120.607C120.786 10.0098 121.086 9.54959 121.508 9.23851C121.93 8.92317 122.416 8.7655 122.965 8.7655C123.102 8.7655 123.249 8.77402 123.406 8.79106C123.564 8.80811 123.703 8.83155 123.822 8.86138V11.2776C123.694 11.2392 123.517 11.2051 123.291 11.1753C123.065 11.1455 122.859 11.1306 122.671 11.1306C122.271 11.1306 121.913 11.2179 121.597 11.3926C121.286 11.5631 121.039 11.8017 120.856 12.1085C120.677 12.4154 120.587 12.769 120.587 13.1696V18.7243H117.864ZM128.707 18.9161C127.697 18.9161 126.828 18.7115 126.099 18.3024C125.375 17.8891 124.816 17.3053 124.424 16.551C124.032 15.7925 123.836 14.8955 123.836 13.86C123.836 12.85 124.032 11.9637 124.424 11.2009C124.816 10.4381 125.368 9.84362 126.08 9.41749C126.796 8.99135 127.635 8.77828 128.598 8.77828C129.246 8.77828 129.849 8.88268 130.407 9.09149C130.97 9.29604 131.46 9.60499 131.878 10.0183C132.299 10.4317 132.628 10.9516 132.862 11.578C133.096 12.2002 133.213 12.9288 133.213 13.7641V14.5119H124.923V12.8244H130.65C130.65 12.4324 130.565 12.0851 130.395 11.7825C130.224 11.48 129.988 11.2435 129.685 11.073C129.387 10.8983 129.039 10.811 128.643 10.811C128.23 10.811 127.863 10.9068 127.544 11.0986C127.228 11.2861 126.981 11.5396 126.802 11.8592C126.623 12.1746 126.532 12.5262 126.527 12.9139V14.5183C126.527 15.0041 126.617 15.4239 126.796 15.7776C126.979 16.1313 127.237 16.404 127.569 16.5958C127.902 16.7875 128.296 16.8834 128.752 16.8834C129.054 16.8834 129.331 16.8408 129.583 16.7556C129.834 16.6703 130.049 16.5425 130.228 16.372C130.407 16.2016 130.544 15.9928 130.637 15.7456L133.156 15.9118C133.028 16.5169 132.766 17.0453 132.37 17.497C131.978 17.9445 131.471 18.2939 130.848 18.5453C130.231 18.7925 129.517 18.9161 128.707 18.9161ZM138.128 18.7243V5.63339H143.292C144.285 5.63339 145.131 5.82303 145.83 6.20229C146.529 6.57729 147.062 7.0993 147.428 7.76834C147.799 8.43311 147.984 9.20016 147.984 10.0695C147.984 10.9388 147.797 11.7058 147.422 12.3706C147.047 13.0354 146.503 13.5531 145.792 13.9239C145.084 14.2946 144.228 14.48 143.222 14.48H139.93V12.2619H142.775C143.307 12.2619 143.746 12.1703 144.091 11.9871C144.441 11.7996 144.701 11.5418 144.871 11.2137C145.046 10.8813 145.133 10.4999 145.133 10.0695C145.133 9.63481 145.046 9.25555 144.871 8.93169C144.701 8.60356 144.441 8.35001 144.091 8.17104C143.742 7.9878 143.299 7.89618 142.762 7.89618H140.895V18.7243H138.128ZM149.191 18.7243V8.90612H151.831V10.6192H151.933C152.112 10.0098 152.412 9.54959 152.834 9.23851C153.256 8.92317 153.742 8.7655 154.292 8.7655C154.428 8.7655 154.575 8.77402 154.733 8.79106C154.89 8.80811 155.029 8.83155 155.148 8.86138V11.2776C155.02 11.2392 154.843 11.2051 154.618 11.1753C154.392 11.1455 154.185 11.1306 153.998 11.1306C153.597 11.1306 153.239 11.2179 152.924 11.3926C152.613 11.5631 152.366 11.8017 152.182 12.1085C152.003 12.4154 151.914 12.769 151.914 13.1696V18.7243H149.191ZM159.995 18.9161C159.002 18.9161 158.144 18.7051 157.419 18.2833C156.699 17.8571 156.143 17.2648 155.751 16.5063C155.359 15.7435 155.163 14.8592 155.163 13.8536C155.163 12.8394 155.359 11.953 155.751 11.1945C156.143 10.4317 156.699 9.83936 157.419 9.41749C158.144 8.99135 159.002 8.77828 159.995 8.77828C160.988 8.77828 161.844 8.99135 162.565 9.41749C163.289 9.83936 163.847 10.4317 164.239 11.1945C164.631 11.953 164.827 12.8394 164.827 13.8536C164.827 14.8592 164.631 15.7435 164.239 16.5063C163.847 17.2648 163.289 17.8571 162.565 18.2833C161.844 18.7051 160.988 18.9161 159.995 18.9161ZM160.008 16.8067C160.46 16.8067 160.837 16.6788 161.139 16.4232C161.442 16.1632 161.67 15.8095 161.823 15.3621C161.981 14.9146 162.06 14.4054 162.06 13.8344C162.06 13.2634 161.981 12.7541 161.823 12.3067C161.67 11.8592 161.442 11.5056 161.139 11.2456C160.837 10.9857 160.46 10.8557 160.008 10.8557C159.552 10.8557 159.168 10.9857 158.857 11.2456C158.55 11.5056 158.318 11.8592 158.161 12.3067C158.007 12.7541 157.93 13.2634 157.93 13.8344C157.93 14.4054 158.007 14.9146 158.161 15.3621C158.318 15.8095 158.55 16.1632 158.857 16.4232C159.168 16.6788 159.552 16.8067 160.008 16.8067Z" fill="white"/>
<rect x="175" width="58.2246" height="23.4486" rx="5.65027" fill="#37373B"/>
<path d="M189.709 15.8102C188.985 15.8102 188.357 15.6509 187.826 15.3323C187.295 15.0136 186.883 14.5678 186.59 13.9949C186.3 13.422 186.156 12.7525 186.156 11.9864C186.156 11.2204 186.3 10.5493 186.59 9.9731C186.883 9.39695 187.295 8.94955 187.826 8.6309C188.357 8.31224 188.985 8.15292 189.709 8.15292C190.433 8.15292 191.061 8.31224 191.592 8.6309C192.123 8.94955 192.533 9.39695 192.823 9.9731C193.116 10.5493 193.262 11.2204 193.262 11.9864C193.262 12.7525 193.116 13.422 192.823 13.9949C192.533 14.5678 192.123 15.0136 191.592 15.3323C191.061 15.6509 190.433 15.8102 189.709 15.8102ZM189.719 14.4101C190.111 14.4101 190.44 14.3023 190.704 14.0866C190.968 13.8678 191.164 13.5748 191.293 13.2079C191.425 12.841 191.491 12.4322 191.491 11.9816C191.491 11.5277 191.425 11.1174 191.293 10.7504C191.164 10.3803 190.968 10.0858 190.704 9.86688C190.44 9.64801 190.111 9.53857 189.719 9.53857C189.316 9.53857 188.982 9.64801 188.714 9.86688C188.45 10.0858 188.253 10.3803 188.121 10.7504C187.992 11.1174 187.927 11.5277 187.927 11.9816C187.927 12.4322 187.992 12.841 188.121 13.2079C188.253 13.5748 188.45 13.8678 188.714 14.0866C188.982 14.3023 189.316 14.4101 189.719 14.4101ZM195.814 11.3201V15.6654H194.066V8.24948H195.737V9.50961H195.824C195.994 9.09439 196.266 8.76447 196.639 8.51985C197.016 8.27523 197.481 8.15292 198.035 8.15292C198.547 8.15292 198.992 8.26235 199.372 8.48122C199.755 8.7001 200.051 9.01714 200.261 9.43236C200.473 9.84757 200.578 10.3513 200.574 10.9435V15.6654H198.827V11.2139C198.827 10.7182 198.698 10.3304 198.44 10.0504C198.186 9.77032 197.834 9.63031 197.383 9.63031C197.077 9.63031 196.805 9.6979 196.567 9.83309C196.332 9.96505 196.147 10.1566 196.012 10.4076C195.88 10.6587 195.814 10.9629 195.814 11.3201ZM203.419 5.7775V15.6654H201.671V5.7775H203.419ZM204.537 15.6654V8.24948H206.284V15.6654H204.537ZM205.415 7.19696C205.138 7.19696 204.9 7.10522 204.701 6.92176C204.501 6.73507 204.401 6.51137 204.401 6.25065C204.401 5.98672 204.501 5.76302 204.701 5.57955C204.9 5.39286 205.138 5.29952 205.415 5.29952C205.695 5.29952 205.933 5.39286 206.13 5.57955C206.329 5.76302 206.429 5.98672 206.429 6.25065C206.429 6.51137 206.329 6.73507 206.13 6.92176C205.933 7.10522 205.695 7.19696 205.415 7.19696ZM209.15 11.3201V15.6654H207.402V8.24948H209.072V9.50961H209.159C209.33 9.09439 209.602 8.76447 209.975 8.51985C210.352 8.27523 210.817 8.15292 211.37 8.15292C211.882 8.15292 212.328 8.26235 212.708 8.48122C213.091 8.7001 213.387 9.01714 213.596 9.43236C213.809 9.84757 213.913 10.3513 213.91 10.9435V15.6654H212.162V11.2139C212.162 10.7182 212.033 10.3304 211.776 10.0504C211.522 9.77032 211.169 9.63031 210.719 9.63031C210.413 9.63031 210.141 9.6979 209.903 9.83309C209.668 9.96505 209.483 10.1566 209.347 10.4076C209.215 10.6587 209.15 10.9629 209.15 11.3201ZM218.29 15.8102C217.546 15.8102 216.904 15.6557 216.364 15.3468C215.826 15.0345 215.412 14.5936 215.123 14.0239C214.833 13.4509 214.688 12.7766 214.688 12.0009C214.688 11.2381 214.833 10.5686 215.123 9.99241C215.416 9.41304 215.824 8.96242 216.349 8.64055C216.874 8.31546 217.49 8.15292 218.198 8.15292C218.655 8.15292 219.087 8.22695 219.492 8.37501C219.901 8.51985 220.261 8.74516 220.574 9.05094C220.889 9.35672 221.137 9.74618 221.317 10.2193C221.497 10.6893 221.588 11.2493 221.588 11.8995V12.4354H215.509V11.2574H219.912C219.909 10.9226 219.837 10.6249 219.695 10.3642C219.553 10.1002 219.355 9.89263 219.101 9.74135C218.85 9.59007 218.557 9.51443 218.222 9.51443C217.865 9.51443 217.551 9.60134 217.281 9.77515C217.011 9.94574 216.8 10.1711 216.648 10.4511C216.5 10.7279 216.425 11.0321 216.422 11.3636V12.392C216.422 12.8233 216.5 13.1934 216.658 13.5024C216.816 13.8082 217.036 14.0432 217.32 14.2073C217.603 14.3683 217.934 14.4487 218.314 14.4487C218.568 14.4487 218.799 14.4133 219.005 14.3425C219.211 14.2685 219.389 14.1607 219.54 14.019C219.692 13.8774 219.806 13.702 219.883 13.4928L221.515 13.6762C221.412 14.1075 221.216 14.4841 220.926 14.806C220.64 15.1247 220.273 15.3725 219.825 15.5495C219.378 15.7233 218.866 15.8102 218.29 15.8102Z" fill="white"/>
</svg>
