<svg width="164" height="24" viewBox="0 0 164 24" fill="none" xmlns="http://www.w3.org/2000/svg">
<path d="M8.23935 9.39831C8.18821 8.88268 7.96875 8.48212 7.58097 8.1966C7.19318 7.91109 6.6669 7.76834 6.00213 7.76834C5.55043 7.76834 5.16903 7.83226 4.85795 7.9601C4.54688 8.08368 4.30824 8.25626 4.14205 8.47785C3.98011 8.69945 3.89915 8.95087 3.89915 9.23212C3.89063 9.46649 3.93963 9.67104 4.04616 9.84575C4.15696 10.0205 4.30824 10.1717 4.5 10.2996C4.69176 10.4232 4.91335 10.5318 5.16477 10.6256C5.41619 10.7151 5.68466 10.7918 5.97017 10.8557L7.14631 11.1369C7.71733 11.2648 8.24148 11.4352 8.71875 11.6483C9.19602 11.8614 9.60938 12.1235 9.95881 12.4345C10.3082 12.7456 10.5788 13.1121 10.7706 13.534C10.9666 13.9558 11.0668 14.4395 11.071 14.985C11.0668 15.7861 10.8622 16.4807 10.4574 17.0688C10.0568 17.6526 9.47727 18.1064 8.71875 18.4303C7.96449 18.7499 7.05469 18.9097 5.98935 18.9097C4.93253 18.9097 4.01207 18.7477 3.22798 18.4239C2.44815 18.1 1.83878 17.6206 1.39986 16.9857C0.965199 16.3465 0.737216 15.556 0.715909 14.6142H3.39418C3.42401 15.0531 3.54972 15.4196 3.77131 15.7137C3.99716 16.0034 4.29759 16.2229 4.67259 16.372C5.05185 16.5169 5.48011 16.5894 5.95739 16.5894C6.42614 16.5894 6.8331 16.5212 7.17827 16.3848C7.5277 16.2485 7.7983 16.0588 7.99006 15.8159C8.18182 15.573 8.2777 15.2939 8.2777 14.9786C8.2777 14.6845 8.19034 14.4374 8.01562 14.2371C7.84517 14.0368 7.59375 13.8663 7.26136 13.7257C6.93324 13.5851 6.53054 13.4573 6.05327 13.3422L4.62784 12.9842C3.52415 12.7158 2.6527 12.296 2.01349 11.725C1.37429 11.154 1.05682 10.3848 1.06108 9.41749C1.05682 8.62487 1.26776 7.9324 1.69389 7.34007C2.12429 6.74774 2.71449 6.28538 3.46449 5.953C4.21449 5.62061 5.06676 5.45442 6.02131 5.45442C6.9929 5.45442 7.84091 5.62061 8.56534 5.953C9.29403 6.28538 9.8608 6.74774 10.2656 7.34007C10.6705 7.9324 10.8793 8.61848 10.892 9.39831H8.23935ZM16.7776 18.9161C15.7848 18.9161 14.9261 18.7051 14.2017 18.2833C13.4815 17.8571 12.9254 17.2648 12.5333 16.5063C12.1413 15.7435 11.9453 14.8592 11.9453 13.8536C11.9453 12.8394 12.1413 11.953 12.5333 11.1945C12.9254 10.4317 13.4815 9.83936 14.2017 9.41749C14.9261 8.99135 15.7848 8.77828 16.7776 8.77828C17.7705 8.77828 18.6271 8.99135 19.3473 9.41749C20.0717 9.83936 20.6299 10.4317 21.022 11.1945C21.414 11.953 21.61 12.8394 21.61 13.8536C21.61 14.8592 21.414 15.7435 21.022 16.5063C20.6299 17.2648 20.0717 17.8571 19.3473 18.2833C18.6271 18.7051 17.7705 18.9161 16.7776 18.9161ZM16.7904 16.8067C17.2421 16.8067 17.6193 16.6788 17.9218 16.4232C18.2244 16.1632 18.4524 15.8095 18.6058 15.3621C18.7634 14.9146 18.8423 14.4054 18.8423 13.8344C18.8423 13.2634 18.7634 12.7541 18.6058 12.3067C18.4524 11.8592 18.2244 11.5056 17.9218 11.2456C17.6193 10.9857 17.2421 10.8557 16.7904 10.8557C16.3345 10.8557 15.9509 10.9857 15.6399 11.2456C15.333 11.5056 15.1008 11.8592 14.9431 12.3067C14.7897 12.7541 14.713 13.2634 14.713 13.8344C14.713 14.4054 14.7897 14.9146 14.9431 15.3621C15.1008 15.8095 15.333 16.1632 15.6399 16.4232C15.9509 16.6788 16.3345 16.8067 16.7904 16.8067ZM25.5636 5.63339V18.7243H22.8406V5.63339H25.5636ZM27.2049 18.7243V8.90612H29.9279V18.7243H27.2049ZM28.5728 7.6405C28.168 7.6405 27.8207 7.50626 27.5309 7.2378C27.2454 6.96507 27.1027 6.63908 27.1027 6.25981C27.1027 5.88481 27.2454 5.56308 27.5309 5.29462C27.8207 5.02189 28.168 4.88553 28.5728 4.88553C28.9777 4.88553 29.3228 5.02189 29.6083 5.29462C29.8981 5.56308 30.043 5.88481 30.043 6.25981C30.043 6.63908 29.8981 6.96507 29.6083 7.2378C29.3228 7.50626 28.9777 7.6405 28.5728 7.6405ZM35.1871 18.8841C34.4414 18.8841 33.766 18.6923 33.1608 18.3088C32.56 17.921 32.0827 17.3521 31.729 16.6021C31.3796 15.8479 31.2049 14.9232 31.2049 13.828C31.2049 12.703 31.386 11.7676 31.7482 11.0219C32.1104 10.2719 32.592 9.71152 33.1928 9.34078C33.7979 8.96578 34.4606 8.77828 35.1807 8.77828C35.7304 8.77828 36.1885 8.87203 36.555 9.05953C36.9258 9.24277 37.2241 9.47288 37.4499 9.74987C37.68 10.0226 37.8547 10.2911 37.9741 10.5553H38.0572V5.63339H40.7738V18.7243H38.0891V17.1519H37.9741C37.8462 17.4246 37.6651 17.6952 37.4307 17.9637C37.2006 18.2279 36.9002 18.4473 36.5295 18.622C36.163 18.7967 35.7155 18.8841 35.1871 18.8841ZM36.0501 16.7172C36.489 16.7172 36.8597 16.5979 37.1623 16.3592C37.4691 16.1163 37.7035 15.7776 37.8654 15.3429C38.0316 14.9083 38.1147 14.399 38.1147 13.8152C38.1147 13.2314 38.0337 12.7243 37.8718 12.2939C37.7099 11.8635 37.4755 11.5311 37.1687 11.2967C36.8618 11.0624 36.489 10.9452 36.0501 10.9452C35.6026 10.9452 35.2255 11.0666 34.9187 11.3095C34.6118 11.5524 34.3796 11.8891 34.2219 12.3195C34.0643 12.7499 33.9854 13.2485 33.9854 13.8152C33.9854 14.3862 34.0643 14.8912 34.2219 15.3301C34.3839 15.7648 34.6161 16.1057 34.9187 16.3529C35.2255 16.5958 35.6026 16.7172 36.0501 16.7172ZM45.4705 18.7243L41.7247 5.63339H44.7482L46.9151 14.7293H47.0237L49.4143 5.63339H52.0031L54.3874 14.7485H54.5024L56.6693 5.63339H59.6928L55.947 18.7243H53.2496L50.7567 10.1654H50.6544L48.1679 18.7243H45.4705ZM63.9644 18.9161C62.9715 18.9161 62.1128 18.7051 61.3884 18.2833C60.6682 17.8571 60.1121 17.2648 59.72 16.5063C59.328 15.7435 59.132 14.8592 59.132 13.8536C59.132 12.8394 59.328 11.953 59.72 11.1945C60.1121 10.4317 60.6682 9.83936 61.3884 9.41749C62.1128 8.99135 62.9715 8.77828 63.9644 8.77828C64.9573 8.77828 65.8138 8.99135 66.534 9.41749C67.2584 9.83936 67.8166 10.4317 68.2087 11.1945C68.6007 11.953 68.7968 12.8394 68.7968 13.8536C68.7968 14.8592 68.6007 15.7435 68.2087 16.5063C67.8166 17.2648 67.2584 17.8571 66.534 18.2833C65.8138 18.7051 64.9573 18.9161 63.9644 18.9161ZM63.9772 16.8067C64.4289 16.8067 64.806 16.6788 65.1085 16.4232C65.4111 16.1632 65.6391 15.8095 65.7925 15.3621C65.9502 14.9146 66.029 14.4054 66.029 13.8344C66.029 13.2634 65.9502 12.7541 65.7925 12.3067C65.6391 11.8592 65.4111 11.5056 65.1085 11.2456C64.806 10.9857 64.4289 10.8557 63.9772 10.8557C63.5212 10.8557 63.1377 10.9857 62.8266 11.2456C62.5198 11.5056 62.2875 11.8592 62.1298 12.3067C61.9764 12.7541 61.8997 13.2634 61.8997 13.8344C61.8997 14.4054 61.9764 14.9146 62.1298 15.3621C62.2875 15.8095 62.5198 16.1632 62.8266 16.4232C63.1377 16.6788 63.5212 16.8067 63.9772 16.8067ZM70.0274 18.7243V8.90612H72.6673V10.6192H72.7695C72.9485 10.0098 73.2489 9.54959 73.6708 9.23851C74.0927 8.92317 74.5785 8.7655 75.1282 8.7655C75.2646 8.7655 75.4116 8.77402 75.5693 8.79106C75.7269 8.80811 75.8654 8.83155 75.9847 8.86138V11.2776C75.8569 11.2392 75.6801 11.2051 75.4542 11.1753C75.2283 11.1455 75.0217 11.1306 74.8342 11.1306C74.4336 11.1306 74.0756 11.2179 73.7603 11.3926C73.4492 11.5631 73.2021 11.8017 73.0188 12.1085C72.8399 12.4154 72.7504 12.769 72.7504 13.1696V18.7243H70.0274ZM79.3199 15.899L79.3263 12.6327H79.7226L82.8675 8.90612H85.9932L81.7681 13.8408H81.1225L79.3199 15.899ZM76.8526 18.7243V5.63339H79.5756V18.7243H76.8526ZM82.9889 18.7243L80.0997 14.448L81.9151 12.524L86.1786 18.7243H82.9889ZM94.9582 11.7058L92.4653 11.8592C92.4227 11.6462 92.3311 11.4544 92.1904 11.284C92.0498 11.1092 91.8644 10.9708 91.6343 10.8685C91.4085 10.7619 91.1379 10.7087 90.8225 10.7087C90.4007 10.7087 90.0448 10.7982 89.7551 10.9771C89.4653 11.1519 89.3204 11.3862 89.3204 11.6803C89.3204 11.9146 89.4141 12.1128 89.6016 12.2747C89.7891 12.4367 90.1109 12.5666 90.5668 12.6646L92.3438 13.0226C93.2984 13.2186 94.01 13.534 94.4788 13.9686C94.9475 14.4033 95.1819 14.9743 95.1819 15.6817C95.1819 16.3252 94.9923 16.8898 94.613 17.3756C94.238 17.8614 93.7224 18.2406 93.0661 18.5134C92.4141 18.7818 91.662 18.9161 90.8097 18.9161C89.51 18.9161 88.4745 18.6455 87.7032 18.1043C86.9362 17.5588 86.4866 16.8173 86.3545 15.8798L89.0328 15.7392C89.1137 16.1355 89.3097 16.4381 89.6208 16.6469C89.9319 16.8514 90.3303 16.9537 90.8161 16.9537C91.2934 16.9537 91.6769 16.8621 91.9667 16.6788C92.2607 16.4913 92.4099 16.2506 92.4141 15.9565C92.4099 15.7094 92.3055 15.507 92.1009 15.3493C91.8964 15.1874 91.5811 15.0638 91.1549 14.9786L89.4546 14.6398C88.4958 14.448 87.782 14.1156 87.3133 13.6426C86.8488 13.1696 86.6166 12.5666 86.6166 11.8337C86.6166 11.203 86.787 10.6597 87.1279 10.2037C87.4731 9.74774 87.9568 9.39618 88.5789 9.14902C89.2053 8.90186 89.9383 8.77828 90.7778 8.77828C92.0178 8.77828 92.9937 9.04036 93.7053 9.5645C94.4212 10.0887 94.8389 10.8024 94.9582 11.7058Z" fill="white"/>
<rect x="105" width="58.2246" height="23.4486" rx="5.65027" fill="#37373B"/>
<path d="M119.709 15.8102C118.985 15.8102 118.357 15.6509 117.826 15.3323C117.295 15.0136 116.883 14.5678 116.59 13.9949C116.3 13.422 116.156 12.7525 116.156 11.9864C116.156 11.2204 116.3 10.5493 116.59 9.9731C116.883 9.39695 117.295 8.94955 117.826 8.6309C118.357 8.31224 118.985 8.15292 119.709 8.15292C120.433 8.15292 121.061 8.31224 121.592 8.6309C122.123 8.94955 122.533 9.39695 122.823 9.9731C123.116 10.5493 123.262 11.2204 123.262 11.9864C123.262 12.7525 123.116 13.422 122.823 13.9949C122.533 14.5678 122.123 15.0136 121.592 15.3323C121.061 15.6509 120.433 15.8102 119.709 15.8102ZM119.719 14.4101C120.111 14.4101 120.44 14.3023 120.704 14.0866C120.968 13.8678 121.164 13.5748 121.293 13.2079C121.425 12.841 121.491 12.4322 121.491 11.9816C121.491 11.5277 121.425 11.1174 121.293 10.7504C121.164 10.3803 120.968 10.0858 120.704 9.86688C120.44 9.64801 120.111 9.53857 119.719 9.53857C119.316 9.53857 118.982 9.64801 118.714 9.86688C118.45 10.0858 118.253 10.3803 118.121 10.7504C117.992 11.1174 117.927 11.5277 117.927 11.9816C117.927 12.4322 117.992 12.841 118.121 13.2079C118.253 13.5748 118.45 13.8678 118.714 14.0866C118.982 14.3023 119.316 14.4101 119.719 14.4101ZM125.814 11.3201V15.6654H124.066V8.24948H125.737V9.50961H125.824C125.994 9.09439 126.266 8.76447 126.639 8.51985C127.016 8.27523 127.481 8.15292 128.035 8.15292C128.547 8.15292 128.992 8.26235 129.372 8.48122C129.755 8.7001 130.051 9.01714 130.261 9.43236C130.473 9.84757 130.578 10.3513 130.574 10.9435V15.6654H128.827V11.2139C128.827 10.7182 128.698 10.3304 128.44 10.0504C128.186 9.77032 127.834 9.63031 127.383 9.63031C127.077 9.63031 126.805 9.6979 126.567 9.83309C126.332 9.96505 126.147 10.1566 126.012 10.4076C125.88 10.6587 125.814 10.9629 125.814 11.3201ZM133.419 5.7775V15.6654H131.671V5.7775H133.419ZM134.537 15.6654V8.24948H136.284V15.6654H134.537ZM135.415 7.19696C135.138 7.19696 134.9 7.10522 134.701 6.92176C134.501 6.73507 134.401 6.51137 134.401 6.25065C134.401 5.98672 134.501 5.76302 134.701 5.57955C134.9 5.39286 135.138 5.29952 135.415 5.29952C135.695 5.29952 135.933 5.39286 136.13 5.57955C136.329 5.76302 136.429 5.98672 136.429 6.25065C136.429 6.51137 136.329 6.73507 136.13 6.92176C135.933 7.10522 135.695 7.19696 135.415 7.19696ZM139.15 11.3201V15.6654H137.402V8.24948H139.072V9.50961H139.159C139.33 9.09439 139.602 8.76447 139.975 8.51985C140.352 8.27523 140.817 8.15292 141.37 8.15292C141.882 8.15292 142.328 8.26235 142.708 8.48122C143.091 8.7001 143.387 9.01714 143.596 9.43236C143.809 9.84757 143.913 10.3513 143.91 10.9435V15.6654H142.162V11.2139C142.162 10.7182 142.033 10.3304 141.776 10.0504C141.522 9.77032 141.169 9.63031 140.719 9.63031C140.413 9.63031 140.141 9.6979 139.903 9.83309C139.668 9.96505 139.483 10.1566 139.347 10.4076C139.215 10.6587 139.15 10.9629 139.15 11.3201ZM148.29 15.8102C147.546 15.8102 146.904 15.6557 146.364 15.3468C145.826 15.0345 145.412 14.5936 145.123 14.0239C144.833 13.4509 144.688 12.7766 144.688 12.0009C144.688 11.2381 144.833 10.5686 145.123 9.99241C145.416 9.41304 145.824 8.96242 146.349 8.64055C146.874 8.31546 147.49 8.15292 148.198 8.15292C148.655 8.15292 149.087 8.22695 149.492 8.37501C149.901 8.51985 150.261 8.74516 150.574 9.05094C150.889 9.35672 151.137 9.74618 151.317 10.2193C151.497 10.6893 151.588 11.2493 151.588 11.8995V12.4354H145.509V11.2574H149.912C149.909 10.9226 149.837 10.6249 149.695 10.3642C149.553 10.1002 149.355 9.89263 149.101 9.74135C148.85 9.59007 148.557 9.51443 148.222 9.51443C147.865 9.51443 147.551 9.60134 147.281 9.77515C147.011 9.94574 146.8 10.1711 146.648 10.4511C146.5 10.7279 146.425 11.0321 146.422 11.3636V12.392C146.422 12.8233 146.5 13.1934 146.658 13.5024C146.816 13.8082 147.036 14.0432 147.32 14.2073C147.603 14.3683 147.934 14.4487 148.314 14.4487C148.568 14.4487 148.799 14.4133 149.005 14.3425C149.211 14.2685 149.389 14.1607 149.54 14.019C149.692 13.8774 149.806 13.702 149.883 13.4928L151.515 13.6762C151.412 14.1075 151.216 14.4841 150.926 14.806C150.64 15.1247 150.273 15.3725 149.825 15.5495C149.378 15.7233 148.866 15.8102 148.29 15.8102Z" fill="white"/>
</svg>
