<svg width="37" height="36" viewBox="0 0 37 36" fill="none" xmlns="http://www.w3.org/2000/svg">
<path d="M36.8147 13.6622C36.7794 13.9322 36.4682 14.0891 34.9687 14.078C27.6914 14.0149 26.7792 15.1131 26.7792 15.1131C26.7792 15.1131 26.1653 15.4683 26.5863 16.2813C27.036 17.1483 32.4944 23.5291 33.677 25.7242C34.445 27.1486 35.5227 29.6157 31.24 31.0767C27.0491 32.5364 19.1887 31.0903 19.1368 31.0767C17.2319 30.5978 17.278 30.2726 17.2993 30.132C17.3368 29.8628 17.6424 29.7176 19.1411 29.7183C26.0444 29.7242 29.3816 29.2365 30.1892 28.7322C30.6841 28.4259 30.7671 27.9559 30.7214 27.5434C30.621 26.6433 28.4832 24.02 26.7165 21.9543C24.9028 19.8291 21.0427 16.1214 23.645 13.8714C26.7665 11.173 33.6447 12.3594 34.99 12.649C36.4163 12.9542 36.8445 13.4393 36.8147 13.6622ZM14.2615 1.93975C17.3003 1.93578 19.6627 2.13355 21.28 2.42347C24.5701 3.01736 23.7954 4.67776 22.8604 6.2669C20.5914 10.1358 14.4636 14.4884 14.1076 14.7343C13.6406 15.0559 13.8961 15.2434 14.3047 15.0918C19.2734 13.2438 24.2802 10.0564 26.3024 6.18455C28.0174 2.90042 26.788 1.34262 24.1736 0.608528C19.5056 -0.704749 14.6659 0.498368 14.2586 0.618327C13.6781 0.788574 12.5083 1.11055 12.607 1.53743C12.6704 1.81064 12.9028 1.94075 14.2615 1.93975ZM17.2257 17.6177C12.3824 16.1858 7.10249 17.4308 6.29657 17.6439C5.07739 17.9674 4.36326 18.2933 4.41326 18.6754C4.4508 18.9577 4.76269 19.1519 6.26091 19.114C9.83237 19.0277 12.7914 19.1489 14.6619 19.6722C16.9782 20.3194 17.2635 21.5124 16.1164 23.8559C15.5859 24.939 14.8018 26.0581 13.6138 27.2486C11.2425 29.628 8.27823 31.176 6.60839 32.0212C4.98495 32.8455 4.39107 32.4075 4.57119 31.5943C4.79345 30.5993 9.39943 22.6289 9.39943 22.6289C9.7462 22.0236 9.80729 21.4555 9.39943 21.2853C9.05036 21.1366 8.41721 21.6272 7.75964 22.388C5.07156 25.5105 0.112615 35.0103 0.0203943 35.3221C-0.0698089 35.6205 0.163192 35.6584 0.252098 35.6604C2.35112 35.644 15.2391 31.8323 19.3976 24.0415C21.5875 19.9393 20.4791 18.5816 17.2257 17.6177Z" fill="#DA291C"/>
</svg>
